<svg viewBox="0 0 566 263" fill="none" xmlns="http://www.w3.org/2000/svg"><path fill="var(--vscode-editorGroupHeader-tabsBackground, #252526)" d="M32 0h502v39H32z"/><g clip-path="url(#a)"><path fill="var(--vscode-tab-activeBackground, #1e1e1e)" d="M32 0h115.654v39.3H32z"/><rect x="45.474" y="15.72" width="88.705" height="7.86" rx="3.93" fill="var(--vscode-tab-unfocusedInactiveForeground, #454545)"/></g><g filter="url(#b)"><path fill="var(--vscode-quickInput-background)" d="M12 39h542v210H12z"/><path d="M34.769 69v-9.864h-1.532V69h1.532Zm2.303 0h1.47v-4.355c0-1.196.69-1.934 1.777-1.934s1.607.602 1.607 1.832V69h1.47v-4.806c0-1.77-.916-2.761-2.578-2.761-1.12 0-1.859.499-2.221 1.319h-.11v-1.176h-1.415V69Zm8.914-9.297v1.894h-1.182v1.175h1.182v4.273c0 1.429.65 2.003 2.284 2.003.287 0 .56-.034.8-.075v-1.17c-.206.021-.336.035-.561.035-.732 0-1.053-.349-1.053-1.148v-3.917h1.613v-1.176h-1.613v-1.894h-1.47Zm9.612 7.308c-.274.601-.882.93-1.77.93-1.177 0-1.935-.848-1.983-2.195v-.068h5.257v-.506c0-2.324-1.251-3.74-3.323-3.74-2.098 0-3.431 1.511-3.431 3.87 0 2.372 1.305 3.842 3.438 3.842 1.702 0 2.905-.82 3.227-2.133h-1.415Zm-1.825-4.382c1.086 0 1.797.786 1.831 1.99h-3.76c.083-1.197.841-1.99 1.928-1.99ZM58.864 69h1.47v-4.436c0-1.046.786-1.764 1.9-1.764.26 0 .698.048.82.082V61.5a3.68 3.68 0 0 0-.656-.055c-.97 0-1.797.527-2.01 1.258h-.109v-1.128h-1.415V69Zm7.609.123c.977 0 1.79-.424 2.235-1.176h.116V69h1.415v-5.08c0-1.558-1.052-2.487-2.919-2.487-1.688 0-2.891.813-3.042 2.064h1.422c.164-.54.732-.848 1.552-.848 1.005 0 1.524.458 1.524 1.272v.65l-2.016.122c-1.77.11-2.769.882-2.769 2.215 0 1.354 1.046 2.215 2.482 2.215Zm.376-1.183c-.8 0-1.381-.403-1.381-1.093 0-.677.465-1.04 1.49-1.108l1.818-.123v.643c0 .957-.82 1.681-1.927 1.681Zm11.785-3.978c-.192-1.443-1.32-2.53-3.186-2.53-2.167 0-3.486 1.47-3.486 3.829 0 2.406 1.326 3.883 3.493 3.883 1.839 0 2.987-1.033 3.179-2.496h-1.429c-.191.807-.827 1.245-1.757 1.245-1.223 0-1.982-.992-1.982-2.632 0-1.607.752-2.577 1.982-2.577.985 0 1.586.553 1.757 1.278h1.429Zm2.31-4.259v1.894h-1.182v1.175h1.182v4.273c0 1.429.65 2.003 2.284 2.003.287 0 .56-.034.8-.075v-1.17c-.206.021-.336.035-.561.035-.732 0-1.053-.349-1.053-1.148v-3.917h1.613v-1.176h-1.613v-1.894h-1.47Zm5.572.547a.93.93 0 0 0 .93-.923.93.93 0 0 0-1.86 0 .93.93 0 0 0 .93.923ZM85.785 69h1.463v-7.424h-1.463V69Zm9.926-7.424h-1.559l-1.845 5.92h-.117l-1.852-5.92h-1.572L91.452 69h1.58l2.679-7.424Zm6.084 5.435c-.274.601-.882.93-1.771.93-1.175 0-1.934-.848-1.982-2.195v-.068h5.257v-.506c0-2.324-1.251-3.74-3.322-3.74-2.1 0-3.432 1.511-3.432 3.87 0 2.372 1.306 3.842 3.438 3.842 1.703 0 2.906-.82 3.227-2.133h-1.415Zm-1.825-4.382c1.087 0 1.798.786 1.832 1.99h-3.76c.082-1.197.84-1.99 1.928-1.99Zm9.092-3.493V69h1.531v-3.37h2.283c1.935 0 3.302-1.326 3.302-3.227 0-1.941-1.326-3.267-3.254-3.267h-3.862Zm1.531 1.292h1.928c1.346 0 2.091.697 2.091 1.975 0 1.238-.772 1.942-2.091 1.942h-1.928v-3.917ZM118.051 69h1.47V58.664h-1.47V69Zm5.735.123c.978 0 1.791-.424 2.235-1.176h.117V69h1.415v-5.08c0-1.558-1.053-2.487-2.919-2.487-1.689 0-2.892.813-3.042 2.064h1.422c.164-.54.731-.848 1.551-.848 1.005 0 1.525.458 1.525 1.272v.65l-2.017.122c-1.77.11-2.768.882-2.768 2.215 0 1.354 1.046 2.215 2.481 2.215Zm.376-1.183c-.8 0-1.381-.403-1.381-1.093 0-.677.465-1.04 1.49-1.108l1.819-.123v.643c0 .957-.82 1.681-1.928 1.681Zm5.975 3.753c1.517 0 2.221-.567 2.857-2.351l2.776-7.766h-1.559l-1.859 5.947h-.117l-1.866-5.947h-1.599l2.693 7.444-.109.383c-.253.786-.65 1.08-1.347 1.08-.137 0-.362-.006-.479-.027v1.203c.137.02.486.034.609.034Zm9.987.144c2.105 0 3.438-1.073 3.438-2.762v-7.499h-1.408v1.183h-.116c-.417-.807-1.312-1.313-2.338-1.313-1.9 0-3.09 1.497-3.09 3.746 0 2.229 1.176 3.699 3.077 3.699 1.025 0 1.845-.445 2.296-1.251h.11v1.428c0 1.005-.725 1.607-1.948 1.607-.992 0-1.614-.356-1.737-.916h-1.504c.158 1.25 1.361 2.078 3.22 2.078Zm-.02-4.163c-1.265 0-1.976-.964-1.976-2.482 0-1.517.711-2.488 1.976-2.488 1.25 0 2.016.97 2.016 2.488s-.759 2.482-2.016 2.482ZM145.695 69h1.47v-4.436c0-1.046.786-1.764 1.9-1.764.26 0 .698.048.821.082V61.5a3.684 3.684 0 0 0-.657-.055c-.97 0-1.797.527-2.009 1.258h-.11v-1.128h-1.415V69Zm8.559.144c2.174 0 3.507-1.457 3.507-3.856 0-2.4-1.34-3.855-3.507-3.855-2.174 0-3.514 1.462-3.514 3.855 0 2.4 1.333 3.856 3.514 3.856Zm0-1.251c-1.278 0-1.996-.95-1.996-2.605 0-1.654.718-2.611 1.996-2.611 1.271 0 1.996.957 1.996 2.611 0 1.648-.725 2.605-1.996 2.605Zm11.553-6.317h-1.47v4.355c0 1.196-.649 1.92-1.839 1.92-1.08 0-1.565-.587-1.565-1.818v-4.457h-1.47v4.82c0 1.743.916 2.748 2.563 2.748 1.128 0 1.887-.479 2.249-1.32h.117V69h1.415v-7.424ZM167.939 69h1.47v-4.355c0-1.196.691-1.934 1.778-1.934 1.086 0 1.606.602 1.606 1.832V69h1.47v-4.806c0-1.77-.916-2.761-2.577-2.761-1.122 0-1.86.499-2.222 1.319h-.11v-1.176h-1.415V69Zm11.116.123c1.025 0 1.893-.485 2.338-1.299h.116V69h1.408V58.664h-1.47v4.088h-.109c-.403-.814-1.265-1.306-2.283-1.306-1.88 0-3.09 1.497-3.09 3.835 0 2.352 1.196 3.842 3.09 3.842Zm.417-6.419c1.23 0 2.003.998 2.003 2.584 0 1.6-.766 2.577-2.003 2.577-1.244 0-1.99-.964-1.99-2.577 0-1.606.752-2.584 1.99-2.584Z" fill="var(--vscode-foreground)"/><rect x="32" y="109" width="204" height="8" rx="4" fill="var(--vscode-tab-unfocusedInactiveForeground)"/><rect x="242" y="109" width="47" height="8" rx="4" fill="var(--vscode-pickerGroup-foreground)"/><rect x="32" y="89" width="94" height="8" rx="4" fill="var(--vscode-tab-unfocusedInactiveForeground)"/><rect x="32" y="127" width="101" height="8" rx="4" fill="var(--vscode-tab-unfocusedInactiveForeground)"/><rect x="139" y="127" width="236" height="8" rx="4" fill="var(--vscode-tab-unfocusedInactiveForeground)"/><rect x="381" y="127" width="79" height="8" rx="4" fill="var(--vscode-pickerGroup-foreground)"/><rect x="32" y="151" width="506" height="82" rx="4" fill="var(--vscode-editor-background)"/><path d="m52.008 169.416-.528 2.074h1.436l.533-2.074h.938l-.534 2.074h1.43v.897h-1.646l-.575 2.302h1.465v.897h-1.693l-.61 2.414h-.937l.615-2.414h-1.441L49.846 178h-.932l.61-2.414h-1.512v-.897h1.74l.574-2.302h-1.558v-.897h1.775l.527-2.074h.938Zm.691 2.971h-1.435l-.575 2.302h1.442l.568-2.302Zm4.729 4.787v3.322h-1.084v-9.058h1.084v.837c.18-.324.418-.57.715-.738.3-.172.646-.258 1.037-.258.793 0 1.414.307 1.863.92.453.613.68 1.463.68 2.549 0 1.066-.227 1.904-.68 2.514-.453.605-1.074.908-1.863.908-.399 0-.748-.084-1.05-.252a1.825 1.825 0 0 1-.702-.744Zm3.164-2.449c0-.836-.133-1.467-.399-1.893-.261-.426-.652-.639-1.171-.639-.524 0-.92.215-1.19.645-.27.426-.404 1.055-.404 1.887 0 .828.135 1.457.404 1.886.27.43.666.645 1.19.645.519 0 .91-.213 1.171-.639.266-.426.399-1.056.399-1.892Zm3.451 2.285h1.84v-6.61l-2.203 1.061v-1.137l2.191-1.043h1.184v7.729h1.816v.99h-4.828v-.99Z" fill="#DFD155"/><path d="M82.969 178.299v.844h-.375c-.973 0-1.625-.145-1.957-.434-.328-.289-.493-.865-.493-1.729v-1.171c0-.426-.12-.793-.363-1.102-.238-.309-.61-.463-1.113-.463h-.715v-.838h.715c.55 0 .934-.131 1.148-.392.22-.262.328-.647.328-1.155v-1.523c0-.863.165-1.438.493-1.723.332-.289.984-.433 1.957-.433h.375v.838h-.41c-.547 0-.905.086-1.073.257-.164.168-.246.53-.246 1.084v1.571c0 .687-.134 1.15-.404 1.388-.27.235-.795.405-1.576.51.758.09 1.277.264 1.558.522.282.254.422.714.422 1.382v1.225c0 .559.082.922.246 1.09.168.168.526.252 1.073.252h.41Zm184.535-2.414h1.828v1.553l-1.154 2.238h-1.254l.58-2.238v-1.553Zm-.076-4.442h1.828v2.116h-1.828v-2.116Zm6.41 6.856c.547 0 .902-.084 1.066-.252.168-.168.252-.531.252-1.09v-1.225c0-.668.141-1.128.422-1.382.281-.258.801-.432 1.559-.522-.782-.105-1.307-.275-1.576-.51-.27-.238-.405-.701-.405-1.388v-1.571c0-.554-.084-.916-.252-1.084-.164-.171-.519-.257-1.066-.257h-.41v-.838h.375c.972 0 1.623.144 1.951.433.332.285.498.86.498 1.723v1.523c0 .508.107.893.322 1.155.219.261.604.392 1.155.392h.714v.838h-.714c-.504 0-.877.154-1.12.463a1.752 1.752 0 0 0-.357 1.102v1.171c0 .864-.166 1.44-.498 1.729-.328.289-.979.434-1.951.434h-.375v-.844h.41Zm-190.87 18v.844h-.374c-.973 0-1.625-.145-1.957-.434-.328-.289-.493-.865-.493-1.729v-1.171c0-.426-.12-.793-.363-1.102-.238-.309-.61-.463-1.113-.463h-.715v-.838h.715c.55 0 .934-.131 1.148-.392.22-.262.328-.647.328-1.155v-1.523c0-.863.165-1.438.493-1.723.332-.289.984-.433 1.957-.433h.375v.838h-.41c-.547 0-.905.086-1.073.257-.164.168-.246.53-.246 1.084v1.571c0 .687-.134 1.15-.404 1.388-.27.235-.795.405-1.576.51.758.09 1.277.264 1.558.522.282.254.422.714.422 1.382v1.225c0 .559.082.922.246 1.09.168.168.526.252 1.073.252h.41Zm158.034-9.99c-.52.89-.908 1.779-1.166 2.666a9.611 9.611 0 0 0-.381 2.671c0 .895.127 1.786.381 2.672.258.887.646 1.78 1.166 2.678h-.938c-.589-.93-1.029-1.834-1.318-2.713a8.438 8.438 0 0 1-.434-2.637c0-.871.145-1.748.434-2.63.289-.883.729-1.786 1.318-2.707h.938Zm26.502 7.576h1.828v1.553l-1.301 2.525-1.172.006.645-2.531v-1.553Zm43.383 0h1.828v1.553l-1.301 2.525-1.172.006.645-2.531v-1.553Zm35.601-7.576h.938c.59.921 1.029 1.824 1.318 2.707a8.41 8.41 0 0 1 .434 2.63c0 .879-.145 1.76-.434 2.643-.289.883-.728 1.785-1.318 2.707h-.938c.52-.906.907-1.803 1.16-2.689a9.487 9.487 0 0 0 .387-2.661c0-.89-.129-1.779-.387-2.666a11.73 11.73 0 0 0-1.16-2.671Zm7.782 7.576h1.828v1.553l-1.155 2.238h-1.254l.581-2.238v-1.553Zm-.077-4.442h1.828v2.116h-1.828v-2.116Zm6.411 6.856c.546 0 .902-.084 1.066-.252.168-.168.252-.531.252-1.09v-1.225c0-.668.14-1.128.422-1.382.281-.258.801-.432 1.558-.522-.781-.105-1.306-.275-1.576-.51-.269-.238-.404-.701-.404-1.388v-1.571c0-.554-.084-.916-.252-1.084-.164-.171-.52-.257-1.066-.257h-.411v-.838h.375c.973 0 1.623.144 1.952.433.332.285.498.86.498 1.723v1.523c0 .508.107.893.322 1.155.219.261.603.392 1.154.392h.715v.838h-.715c-.504 0-.877.154-1.119.463a1.752 1.752 0 0 0-.357 1.102v1.171c0 .864-.166 1.44-.498 1.729-.329.289-.979.434-1.952.434h-.375v-.844h.411Zm-277.635 18v.844h-.375c-.973 0-1.625-.145-1.957-.434-.328-.289-.493-.865-.493-1.729v-1.171c0-.426-.12-.793-.363-1.102-.238-.309-.61-.463-1.113-.463h-.715v-.838h.715c.55 0 .934-.131 1.148-.392.22-.262.328-.647.328-1.155v-1.523c0-.863.165-1.438.493-1.723.332-.289.984-.433 1.957-.433h.375v.838h-.41c-.547 0-.905.086-1.073.257-.164.168-.246.53-.246 1.084v1.571c0 .687-.134 1.15-.404 1.388-.27.235-.795.405-1.576.51.758.09 1.277.264 1.558.522.282.254.422.714.422 1.382v1.225c0 .559.082.922.246 1.09.168.168.526.252 1.073.252h.41Zm6.562-3.574c0-.836-.133-1.467-.398-1.893-.266-.426-.658-.639-1.178-.639-.523 0-.92.215-1.19.645-.269.426-.404 1.055-.404 1.887 0 .828.135 1.457.405 1.886.27.43.666.645 1.19.645.519 0 .911-.213 1.177-.639.265-.426.398-1.056.398-1.892Zm-3.17-2.45c.172-.32.408-.566.71-.738a2.109 2.109 0 0 1 1.054-.258c.79 0 1.41.305 1.863.914.453.606.68 1.442.68 2.508 0 1.082-.229 1.932-.686 2.549-.453.613-1.076.92-1.869.92a2.09 2.09 0 0 1-1.037-.252 1.904 1.904 0 0 1-.715-.744V214h-1.078v-9.117h1.078v3.392Zm161.871-3.966c-.519.89-.908 1.779-1.166 2.666a9.61 9.61 0 0 0-.38 2.671c0 .895.126 1.786.38 2.672.258.887.647 1.78 1.166 2.678h-.937c-.59-.93-1.029-1.834-1.318-2.713a8.438 8.438 0 0 1-.434-2.637c0-.871.145-1.748.434-2.63.289-.883.728-1.786 1.318-2.707h.937Zm12.041 7.576h1.829v1.553l-1.301 2.525-1.172.006.644-2.531v-1.553Zm21.692 0h1.828v1.553l-1.301 2.525-1.172.006.645-2.531v-1.553Zm36.152 0h1.828v1.553l-1.3 2.525-1.172.006.644-2.531v-1.553Zm50.063-7.576h.937c.59.921 1.029 1.824 1.319 2.707.289.882.433 1.759.433 2.63 0 .879-.144 1.76-.433 2.643-.29.883-.729 1.785-1.319 2.707h-.937c.519-.906.906-1.803 1.16-2.689a9.487 9.487 0 0 0 .387-2.661c0-.89-.129-1.779-.387-2.666a11.819 11.819 0 0 0-1.16-2.671Zm7.781 7.576h1.828v1.553l-1.154 2.238h-1.254l.58-2.238v-1.553Zm-.076-4.442h1.828v2.116h-1.828v-2.116Zm6.41 6.856c.547 0 .902-.084 1.066-.252.168-.168.252-.531.252-1.09v-1.225c0-.668.141-1.128.422-1.382.281-.258.801-.432 1.559-.522-.782-.105-1.307-.275-1.576-.51-.27-.238-.405-.701-.405-1.388v-1.571c0-.554-.084-.916-.252-1.084-.164-.171-.519-.257-1.066-.257h-.41v-.838h.375c.972 0 1.623.144 1.951.433.332.285.498.86.498 1.723v1.523c0 .508.107.893.322 1.155.219.261.604.392 1.155.392h.714v.838h-.714c-.504 0-.877.154-1.12.463a1.752 1.752 0 0 0-.357 1.102v1.171c0 .864-.166 1.44-.498 1.729-.328.289-.979.434-1.951.434h-.375v-.844h.41Z" fill="var(--vscode-foreground)"/><path d="M89.531 174.725c0-.836-.133-1.467-.398-1.893-.266-.426-.658-.639-1.178-.639-.523 0-.92.215-1.19.645-.269.426-.404 1.055-.404 1.887 0 .828.135 1.457.405 1.886.27.43.666.645 1.19.645.519 0 .911-.213 1.177-.639.265-.426.398-1.056.398-1.892Zm-3.17-2.45c.172-.32.408-.566.71-.738a2.109 2.109 0 0 1 1.054-.258c.79 0 1.41.305 1.863.914.453.606.68 1.442.68 2.508 0 1.082-.229 1.932-.686 2.549-.453.613-1.076.92-1.869.92a2.09 2.09 0 0 1-1.037-.252 1.904 1.904 0 0 1-.715-.744V178h-1.078v-9.117h1.078v3.392Zm9.135 2.426h-.357c-.63 0-1.104.111-1.424.334-.317.219-.475.547-.475.985 0 .394.12.701.358.919.238.219.568.329.99.329.594 0 1.06-.206 1.4-.616.34-.414.512-.984.516-1.711v-.24h-1.008Zm2.092-.445V178h-1.084v-.973c-.23.391-.522.68-.873.868-.348.183-.772.275-1.272.275-.668 0-1.2-.188-1.6-.563-.398-.378-.597-.884-.597-1.517 0-.731.244-1.285.732-1.664.493-.379 1.213-.569 2.163-.569h1.447v-.169c-.004-.524-.137-.903-.398-1.137-.262-.239-.68-.358-1.254-.358-.368 0-.739.053-1.114.159-.375.105-.74.259-1.095.462v-1.078c.398-.152.779-.265 1.142-.34a5.127 5.127 0 0 1 1.067-.117c.542 0 1.005.08 1.388.241.387.16.7.4.938.72.148.196.254.438.316.727.063.285.094.715.094 1.289Zm7.242 3.41a3.644 3.644 0 0 1-.896.375 3.442 3.442 0 0 1-.938.129c-1.016 0-1.81-.305-2.385-.914-.57-.61-.855-1.453-.855-2.531 0-1.079.285-1.922.855-2.532.575-.609 1.369-.914 2.385-.914.316 0 .625.041.926.123.301.082.603.209.908.381v1.131a2.915 2.915 0 0 0-.861-.551 2.626 2.626 0 0 0-.973-.17c-.676 0-1.195.219-1.558.657-.364.437-.545 1.062-.545 1.875 0 .808.181 1.433.545 1.875.367.437.886.656 1.558.656.375 0 .711-.057 1.008-.17.297-.117.572-.297.826-.539v1.119Zm2.397-8.783h1.113v5.279l2.83-2.724h1.312l-2.584 2.472 2.989 4.09h-1.319l-2.425-3.387-.803.756V178h-1.113v-9.117Zm10.875 5.783c0-.809-.133-1.422-.399-1.84-.262-.422-.644-.633-1.148-.633-.528 0-.93.211-1.207.633-.278.418-.416 1.031-.416 1.84 0 .809.138 1.426.416 1.852.281.421.687.632 1.218.632.496 0 .875-.212 1.137-.638.266-.426.399-1.041.399-1.846Zm1.078 2.912c0 .984-.233 1.731-.698 2.238-.464.508-1.148.762-2.05.762-.297 0-.608-.027-.932-.082a6.939 6.939 0 0 1-.973-.24v-1.067c.383.18.731.313 1.043.399.313.086.6.129.862.129.582 0 1.006-.158 1.271-.475.266-.316.399-.818.399-1.506v-.779c-.172.367-.407.641-.704.82-.296.18-.658.27-1.084.27-.765 0-1.376-.307-1.834-.92-.457-.613-.685-1.434-.685-2.461 0-1.031.228-1.854.685-2.467.458-.613 1.069-.92 1.834-.92.422 0 .78.084 1.073.252.293.168.531.428.715.78v-.85h1.078v6.117Zm7.892-4.787a2.43 2.43 0 0 0-.703-.393 2.398 2.398 0 0 0-.785-.123c-.672 0-1.186.211-1.541.633-.355.422-.533 1.031-.533 1.828V178h-1.084v-6.562h1.084v1.283c.179-.465.455-.821.826-1.067.375-.25.818-.375 1.33-.375.266 0 .514.033.744.1.231.066.451.17.662.31v1.102Zm4.073-.598c-.547 0-.961.213-1.243.639-.281.426-.422 1.057-.422 1.893 0 .832.141 1.463.422 1.892.282.426.696.639 1.243.639.55 0 .966-.213 1.248-.639.281-.429.421-1.06.421-1.892 0-.836-.14-1.467-.421-1.893-.282-.426-.698-.639-1.248-.639Zm0-.914c.91 0 1.605.295 2.085.885.485.59.727 1.443.727 2.561 0 1.121-.24 1.976-.721 2.566-.48.586-1.177.879-2.091.879-.911 0-1.606-.293-2.086-.879-.481-.59-.721-1.445-.721-2.566 0-1.118.24-1.971.721-2.561.48-.59 1.175-.885 2.086-.885Zm4.763 4.237v-4.067h1.078v4.067c0 .589.104 1.023.311 1.3.211.278.535.416.973.416.507 0 .896-.177 1.166-.533.269-.359.404-.873.404-1.541v-3.709h1.084V178h-1.084v-.984a2.031 2.031 0 0 1-.785.861c-.328.195-.713.293-1.155.293-.671 0-1.171-.219-1.5-.656-.328-.442-.492-1.108-.492-1.998Zm12.246-1.582V178h-1.084v-4.066c0-.59-.103-1.024-.31-1.301-.207-.278-.531-.416-.973-.416-.504 0-.892.179-1.166.539-.269.355-.404.867-.404 1.535V178h-1.078v-6.562h1.078v.984c.191-.375.451-.658.779-.85.328-.195.717-.293 1.166-.293.668 0 1.166.221 1.494.662.332.438.498 1.102.498 1.993Zm6.1-1.659v-3.392h1.078V178h-1.078v-.826c-.18.324-.42.572-.721.744-.297.168-.64.252-1.031.252-.793 0-1.418-.307-1.875-.92-.453-.617-.68-1.467-.68-2.549 0-1.066.229-1.902.686-2.508.457-.609 1.08-.914 1.869-.914.394 0 .742.086 1.043.258.301.168.537.414.709.738Zm-3.17 2.45c0 .836.133 1.466.398 1.892.266.426.659.639 1.178.639.52 0 .914-.215 1.184-.645.273-.429.41-1.058.41-1.886 0-.832-.137-1.461-.41-1.887-.27-.43-.664-.645-1.184-.645-.519 0-.912.213-1.178.639-.265.426-.398 1.057-.398 1.893Zm5.971-.967h6.211v.99h-6.211v-.99Zm12.849 3.908a3.644 3.644 0 0 1-.896.375 3.436 3.436 0 0 1-.938.129c-1.015 0-1.81-.305-2.384-.914-.571-.61-.856-1.453-.856-2.531 0-1.079.285-1.922.856-2.532.574-.609 1.369-.914 2.384-.914.317 0 .625.041.926.123.301.082.604.209.908.381v1.131a2.915 2.915 0 0 0-.861-.551 2.622 2.622 0 0 0-.973-.17c-.675 0-1.195.219-1.558.657-.364.437-.545 1.062-.545 1.875 0 .808.181 1.433.545 1.875.367.437.886.656 1.558.656.375 0 .711-.057 1.008-.17.297-.117.572-.297.826-.539v1.119Zm4.623-5.473c-.547 0-.961.213-1.242.639-.281.426-.422 1.057-.422 1.893 0 .832.141 1.463.422 1.892.281.426.695.639 1.242.639.551 0 .967-.213 1.248-.639.282-.429.422-1.06.422-1.892 0-.836-.14-1.467-.422-1.893-.281-.426-.697-.639-1.248-.639Zm0-.914c.911 0 1.606.295 2.086.885.485.59.727 1.443.727 2.561 0 1.121-.24 1.976-.721 2.566-.48.586-1.178.879-2.092.879-.91 0-1.605-.293-2.086-.879-.48-.59-.72-1.445-.72-2.566 0-1.118.24-1.971.72-2.561.481-.59 1.176-.885 2.086-.885Zm7.834 4.348c0 .484.088.85.264 1.096.18.246.443.369.791.369h1.26V178h-1.365c-.645 0-1.145-.205-1.5-.615-.352-.414-.528-1-.528-1.758v-5.936h-1.728v-.843h2.806v6.779Zm6.627-3.434c-.547 0-.961.213-1.242.639-.281.426-.422 1.057-.422 1.893 0 .832.141 1.463.422 1.892.281.426.695.639 1.242.639.551 0 .967-.213 1.248-.639.282-.429.422-1.06.422-1.892 0-.836-.14-1.467-.422-1.893-.281-.426-.697-.639-1.248-.639Zm0-.914c.91 0 1.606.295 2.086.885.485.59.727 1.443.727 2.561 0 1.121-.24 1.976-.721 2.566-.48.586-1.178.879-2.092.879-.91 0-1.605-.293-2.086-.879-.48-.59-.72-1.445-.72-2.566 0-1.118.24-1.971.72-2.561.481-.59 1.176-.885 2.086-.885Zm10.389 1.512a2.444 2.444 0 0 0-.703-.393 2.398 2.398 0 0 0-.785-.123c-.672 0-1.186.211-1.541.633-.356.422-.534 1.031-.534 1.828V178h-1.084v-6.562h1.084v1.283c.18-.465.456-.821.827-1.067.375-.25.818-.375 1.33-.375.265 0 .513.033.744.1.23.066.451.17.662.31v1.102Zm2.977-1.348h1.828v2.116h-1.828v-2.116Zm0 4.424h1.828V178h-1.828v-2.133ZM89.531 192.725c0-.836-.133-1.467-.398-1.893-.266-.426-.658-.639-1.178-.639-.523 0-.92.215-1.19.645-.269.426-.404 1.055-.404 1.887 0 .828.135 1.457.405 1.886.27.43.666.645 1.19.645.519 0 .911-.213 1.177-.639.265-.426.398-1.056.398-1.892Zm-3.17-2.45c.172-.32.408-.566.71-.738a2.109 2.109 0 0 1 1.054-.258c.79 0 1.41.305 1.863.914.453.606.68 1.442.68 2.508 0 1.082-.229 1.932-.686 2.549-.453.613-1.076.92-1.869.92a2.09 2.09 0 0 1-1.037-.252 1.904 1.904 0 0 1-.715-.744V196h-1.078v-9.117h1.078v3.392Zm9.135 2.426h-.357c-.63 0-1.104.111-1.424.334-.317.219-.475.547-.475.985 0 .394.12.701.358.919.238.219.568.329.99.329.594 0 1.06-.206 1.4-.616.34-.414.512-.984.516-1.711v-.24h-1.008Zm2.092-.445V196h-1.084v-.973c-.23.391-.522.68-.873.868-.348.183-.772.275-1.272.275-.668 0-1.2-.188-1.6-.563-.398-.378-.597-.884-.597-1.517 0-.731.244-1.285.732-1.664.493-.379 1.213-.569 2.163-.569h1.447v-.169c-.004-.524-.137-.903-.398-1.137-.262-.239-.68-.358-1.254-.358-.368 0-.739.053-1.114.159-.375.105-.74.259-1.095.462v-1.078c.398-.152.779-.265 1.142-.34a5.127 5.127 0 0 1 1.067-.117c.542 0 1.005.08 1.388.241.387.16.7.4.938.72.148.196.254.438.316.727.063.285.094.715.094 1.289Zm7.242 3.41a3.644 3.644 0 0 1-.896.375 3.442 3.442 0 0 1-.938.129c-1.016 0-1.81-.305-2.385-.914-.57-.61-.855-1.453-.855-2.531 0-1.079.285-1.922.855-2.532.575-.609 1.369-.914 2.385-.914.316 0 .625.041.926.123.301.082.603.209.908.381v1.131a2.915 2.915 0 0 0-.861-.551 2.626 2.626 0 0 0-.973-.17c-.676 0-1.195.219-1.558.657-.364.437-.545 1.062-.545 1.875 0 .808.181 1.433.545 1.875.367.437.886.656 1.558.656.375 0 .711-.057 1.008-.17.297-.117.572-.297.826-.539v1.119Zm2.397-8.783h1.113v5.279l2.83-2.724h1.312l-2.584 2.472 2.989 4.09h-1.319l-2.425-3.387-.803.756V196h-1.113v-9.117Zm10.875 5.783c0-.809-.133-1.422-.399-1.84-.262-.422-.644-.633-1.148-.633-.528 0-.93.211-1.207.633-.278.418-.416 1.031-.416 1.84 0 .809.138 1.426.416 1.852.281.421.687.632 1.218.632.496 0 .875-.212 1.137-.638.266-.426.399-1.041.399-1.846Zm1.078 2.912c0 .984-.233 1.731-.698 2.238-.464.508-1.148.762-2.05.762-.297 0-.608-.027-.932-.082a6.939 6.939 0 0 1-.973-.24v-1.067c.383.18.731.313 1.043.399.313.086.6.129.862.129.582 0 1.006-.158 1.271-.475.266-.316.399-.818.399-1.506v-.779c-.172.367-.407.641-.704.82-.296.18-.658.27-1.084.27-.765 0-1.376-.307-1.834-.92-.457-.613-.685-1.434-.685-2.461 0-1.031.228-1.854.685-2.467.458-.613 1.069-.92 1.834-.92.422 0 .78.084 1.073.252.293.168.531.428.715.78v-.85h1.078v6.117Zm7.892-4.787a2.43 2.43 0 0 0-.703-.393 2.398 2.398 0 0 0-.785-.123c-.672 0-1.186.211-1.541.633-.355.422-.533 1.031-.533 1.828V196h-1.084v-6.562h1.084v1.283c.179-.465.455-.821.826-1.067.375-.25.818-.375 1.33-.375.266 0 .514.033.744.1.231.066.451.17.662.31v1.102Zm4.073-.598c-.547 0-.961.213-1.243.639-.281.426-.422 1.057-.422 1.893 0 .832.141 1.463.422 1.892.282.426.696.639 1.243.639.55 0 .966-.213 1.248-.639.281-.429.421-1.06.421-1.892 0-.836-.14-1.467-.421-1.893-.282-.426-.698-.639-1.248-.639Zm0-.914c.91 0 1.605.295 2.085.885.485.59.727 1.443.727 2.561 0 1.121-.24 1.976-.721 2.566-.48.586-1.177.879-2.091.879-.911 0-1.606-.293-2.086-.879-.481-.59-.721-1.445-.721-2.566 0-1.118.24-1.971.721-2.561.48-.59 1.175-.885 2.086-.885Zm4.763 4.237v-4.067h1.078v4.067c0 .589.104 1.023.311 1.3.211.278.535.416.973.416.507 0 .896-.177 1.166-.533.269-.359.404-.873.404-1.541v-3.709h1.084V196h-1.084v-.984a2.031 2.031 0 0 1-.785.861c-.328.195-.713.293-1.155.293-.671 0-1.171-.219-1.5-.656-.328-.442-.492-1.108-.492-1.998Zm12.246-1.582V196h-1.084v-4.066c0-.59-.103-1.024-.31-1.301-.207-.278-.531-.416-.973-.416-.504 0-.892.179-1.166.539-.269.355-.404.867-.404 1.535V196h-1.078v-6.562h1.078v.984c.191-.375.451-.658.779-.85.328-.195.717-.293 1.166-.293.668 0 1.166.221 1.494.662.332.438.498 1.102.498 1.993Zm6.1-1.659v-3.392h1.078V196h-1.078v-.826c-.18.324-.42.572-.721.744-.297.168-.64.252-1.031.252-.793 0-1.418-.307-1.875-.92-.453-.617-.68-1.467-.68-2.549 0-1.066.229-1.902.686-2.508.457-.609 1.08-.914 1.869-.914.394 0 .742.086 1.043.258.301.168.537.414.709.738Zm-3.17 2.45c0 .836.133 1.466.398 1.892.266.426.659.639 1.178.639.52 0 .914-.215 1.184-.645.273-.429.41-1.058.41-1.886 0-.832-.137-1.461-.41-1.887-.27-.43-.664-.645-1.184-.645-.519 0-.912.213-1.178.639-.265.426-.398 1.057-.398 1.893Zm5.971-.967h6.211v.99h-6.211v-.99Zm12.849 3.908a3.644 3.644 0 0 1-.896.375 3.436 3.436 0 0 1-.938.129c-1.015 0-1.81-.305-2.384-.914-.571-.61-.856-1.453-.856-2.531 0-1.079.285-1.922.856-2.532.574-.609 1.369-.914 2.384-.914.317 0 .625.041.926.123.301.082.604.209.908.381v1.131a2.915 2.915 0 0 0-.861-.551 2.622 2.622 0 0 0-.973-.17c-.675 0-1.195.219-1.558.657-.364.437-.545 1.062-.545 1.875 0 .808.181 1.433.545 1.875.367.437.886.656 1.558.656.375 0 .711-.057 1.008-.17.297-.117.572-.297.826-.539v1.119Zm4.623-5.473c-.547 0-.961.213-1.242.639-.281.426-.422 1.057-.422 1.893 0 .832.141 1.463.422 1.892.281.426.695.639 1.242.639.551 0 .967-.213 1.248-.639.282-.429.422-1.06.422-1.892 0-.836-.14-1.467-.422-1.893-.281-.426-.697-.639-1.248-.639Zm0-.914c.911 0 1.606.295 2.086.885.485.59.727 1.443.727 2.561 0 1.121-.24 1.976-.721 2.566-.48.586-1.178.879-2.092.879-.91 0-1.605-.293-2.086-.879-.48-.59-.72-1.445-.72-2.566 0-1.118.24-1.971.72-2.561.481-.59 1.176-.885 2.086-.885Zm7.834 4.348c0 .484.088.85.264 1.096.18.246.443.369.791.369h1.26V196h-1.365c-.645 0-1.145-.205-1.5-.615-.352-.414-.528-1-.528-1.758v-5.936h-1.728v-.843h2.806v6.779Zm6.627-3.434c-.547 0-.961.213-1.242.639-.281.426-.422 1.057-.422 1.893 0 .832.141 1.463.422 1.892.281.426.695.639 1.242.639.551 0 .967-.213 1.248-.639.282-.429.422-1.06.422-1.892 0-.836-.14-1.467-.422-1.893-.281-.426-.697-.639-1.248-.639Zm0-.914c.91 0 1.606.295 2.086.885.485.59.727 1.443.727 2.561 0 1.121-.24 1.976-.721 2.566-.48.586-1.178.879-2.092.879-.91 0-1.605-.293-2.086-.879-.48-.59-.72-1.445-.72-2.566 0-1.118.24-1.971.72-2.561.481-.59 1.176-.885 2.086-.885Zm10.389 1.512a2.444 2.444 0 0 0-.703-.393 2.398 2.398 0 0 0-.785-.123c-.672 0-1.186.211-1.541.633-.356.422-.534 1.031-.534 1.828V196h-1.084v-6.562h1.084v1.283c.18-.465.456-.821.827-1.067.375-.25.818-.375 1.33-.375.265 0 .513.033.744.1.23.066.451.17.662.31v1.102Zm2.977-1.348h1.828v2.116h-1.828v-2.116Zm0 4.424h1.828V196h-1.828v-2.133ZM95.496 210.701h-.357c-.63 0-1.104.111-1.424.334-.317.219-.475.547-.475.985 0 .394.12.701.358.919.238.219.568.329.99.329.594 0 1.06-.206 1.4-.616.34-.414.512-.984.516-1.711v-.24h-1.008Zm2.092-.445V214h-1.084v-.973c-.23.391-.522.68-.873.868-.348.183-.772.275-1.272.275-.668 0-1.2-.188-1.6-.563-.398-.378-.597-.884-.597-1.517 0-.731.244-1.285.732-1.664.493-.379 1.213-.569 2.163-.569h1.447v-.169c-.004-.524-.137-.903-.398-1.137-.262-.239-.68-.358-1.254-.358-.368 0-.739.053-1.114.159-.375.105-.74.259-1.095.462v-1.078c.398-.152.779-.265 1.142-.34a5.127 5.127 0 0 1 1.067-.117c.542 0 1.005.08 1.388.241.387.16.7.4.938.72.148.196.254.438.316.727.063.285.094.715.094 1.289Zm7.242 3.41a3.644 3.644 0 0 1-.896.375 3.442 3.442 0 0 1-.938.129c-1.016 0-1.81-.305-2.385-.914-.57-.61-.855-1.453-.855-2.531 0-1.079.285-1.922.855-2.532.575-.609 1.369-.914 2.385-.914.316 0 .625.041.926.123.301.082.603.209.908.381v1.131a2.915 2.915 0 0 0-.861-.551 2.626 2.626 0 0 0-.973-.17c-.676 0-1.195.219-1.558.657-.364.437-.545 1.062-.545 1.875 0 .808.181 1.433.545 1.875.367.437.886.656 1.558.656.375 0 .711-.057 1.008-.17.297-.117.572-.297.826-.539v1.119Zm2.397-8.783h1.113v5.279l2.83-2.724h1.312l-2.584 2.472 2.989 4.09h-1.319l-2.425-3.387-.803.756V214h-1.113v-9.117Zm10.875 5.783c0-.809-.133-1.422-.399-1.84-.262-.422-.644-.633-1.148-.633-.528 0-.93.211-1.207.633-.278.418-.416 1.031-.416 1.84 0 .809.138 1.426.416 1.852.281.421.687.632 1.218.632.496 0 .875-.212 1.137-.638.266-.426.399-1.041.399-1.846Zm1.078 2.912c0 .984-.233 1.731-.698 2.238-.464.508-1.148.762-2.05.762-.297 0-.608-.027-.932-.082a6.939 6.939 0 0 1-.973-.24v-1.067c.383.18.731.313 1.043.399.313.086.6.129.862.129.582 0 1.006-.158 1.271-.475.266-.316.399-.818.399-1.506v-.779c-.172.367-.407.641-.704.82-.296.18-.658.27-1.084.27-.765 0-1.376-.307-1.834-.92-.457-.613-.685-1.434-.685-2.461 0-1.031.228-1.854.685-2.467.458-.613 1.069-.92 1.834-.92.422 0 .78.084 1.073.252.293.168.531.428.715.78v-.85h1.078v6.117Zm7.892-4.787a2.43 2.43 0 0 0-.703-.393 2.398 2.398 0 0 0-.785-.123c-.672 0-1.186.211-1.541.633-.355.422-.533 1.031-.533 1.828V214h-1.084v-6.562h1.084v1.283c.179-.465.455-.821.826-1.067.375-.25.818-.375 1.33-.375.266 0 .514.033.744.1.231.066.451.17.662.31v1.102Zm4.073-.598c-.547 0-.961.213-1.243.639-.281.426-.422 1.057-.422 1.893 0 .832.141 1.463.422 1.892.282.426.696.639 1.243.639.55 0 .966-.213 1.248-.639.281-.429.421-1.06.421-1.892 0-.836-.14-1.467-.421-1.893-.282-.426-.698-.639-1.248-.639Zm0-.914c.91 0 1.605.295 2.085.885.485.59.727 1.443.727 2.561 0 1.121-.24 1.976-.721 2.566-.48.586-1.177.879-2.091.879-.911 0-1.606-.293-2.086-.879-.481-.59-.721-1.445-.721-2.566 0-1.118.24-1.971.721-2.561.48-.59 1.175-.885 2.086-.885Zm4.763 4.237v-4.067h1.078v4.067c0 .589.104 1.023.311 1.3.211.278.535.416.973.416.507 0 .896-.177 1.166-.533.269-.359.404-.873.404-1.541v-3.709h1.084V214h-1.084v-.984a2.031 2.031 0 0 1-.785.861c-.328.195-.713.293-1.155.293-.671 0-1.171-.219-1.5-.656-.328-.442-.492-1.108-.492-1.998Zm12.246-1.582V214h-1.084v-4.066c0-.59-.103-1.024-.31-1.301-.207-.278-.531-.416-.973-.416-.504 0-.892.179-1.166.539-.269.355-.404.867-.404 1.535V214h-1.078v-6.562h1.078v.984c.191-.375.451-.658.779-.85.328-.195.717-.293 1.166-.293.668 0 1.166.221 1.494.662.332.438.498 1.102.498 1.993Zm6.1-1.659v-3.392h1.078V214h-1.078v-.826c-.18.324-.42.572-.721.744-.297.168-.64.252-1.031.252-.793 0-1.418-.307-1.875-.92-.453-.617-.68-1.467-.68-2.549 0-1.066.229-1.902.686-2.508.457-.609 1.08-.914 1.869-.914.394 0 .742.086 1.043.258.301.168.537.414.709.738Zm-3.17 2.45c0 .836.133 1.466.398 1.892.266.426.659.639 1.178.639.52 0 .914-.215 1.184-.645.273-.429.41-1.058.41-1.886 0-.832-.137-1.461-.41-1.887-.27-.43-.664-.645-1.184-.645-.519 0-.912.213-1.178.639-.265.426-.398 1.057-.398 1.893Zm5.971-.967h6.211v.99h-6.211v-.99Zm12.849 3.908a3.644 3.644 0 0 1-.896.375 3.436 3.436 0 0 1-.938.129c-1.015 0-1.81-.305-2.384-.914-.571-.61-.856-1.453-.856-2.531 0-1.079.285-1.922.856-2.532.574-.609 1.369-.914 2.384-.914.317 0 .625.041.926.123.301.082.604.209.908.381v1.131a2.915 2.915 0 0 0-.861-.551 2.622 2.622 0 0 0-.973-.17c-.675 0-1.195.219-1.558.657-.364.437-.545 1.062-.545 1.875 0 .808.181 1.433.545 1.875.367.437.886.656 1.558.656.375 0 .711-.057 1.008-.17.297-.117.572-.297.826-.539v1.119Zm4.623-5.473c-.547 0-.961.213-1.242.639-.281.426-.422 1.057-.422 1.893 0 .832.141 1.463.422 1.892.281.426.695.639 1.242.639.551 0 .967-.213 1.248-.639.282-.429.422-1.06.422-1.892 0-.836-.14-1.467-.422-1.893-.281-.426-.697-.639-1.248-.639Zm0-.914c.911 0 1.606.295 2.086.885.485.59.727 1.443.727 2.561 0 1.121-.24 1.976-.721 2.566-.48.586-1.178.879-2.092.879-.91 0-1.605-.293-2.086-.879-.48-.59-.72-1.445-.72-2.566 0-1.118.24-1.971.72-2.561.481-.59 1.176-.885 2.086-.885Zm7.834 4.348c0 .484.088.85.264 1.096.18.246.443.369.791.369h1.26V214h-1.365c-.645 0-1.145-.205-1.5-.615-.352-.414-.528-1-.528-1.758v-5.936h-1.728v-.843h2.806v6.779Zm6.627-3.434c-.547 0-.961.213-1.242.639-.281.426-.422 1.057-.422 1.893 0 .832.141 1.463.422 1.892.281.426.695.639 1.242.639.551 0 .967-.213 1.248-.639.282-.429.422-1.06.422-1.892 0-.836-.14-1.467-.422-1.893-.281-.426-.697-.639-1.248-.639Zm0-.914c.91 0 1.606.295 2.086.885.485.59.727 1.443.727 2.561 0 1.121-.24 1.976-.721 2.566-.48.586-1.178.879-2.092.879-.91 0-1.605-.293-2.086-.879-.48-.59-.72-1.445-.72-2.566 0-1.118.24-1.971.72-2.561.481-.59 1.176-.885 2.086-.885Zm10.389 1.512a2.444 2.444 0 0 0-.703-.393 2.398 2.398 0 0 0-.785-.123c-.672 0-1.186.211-1.541.633-.356.422-.534 1.031-.534 1.828V214h-1.084v-6.562h1.084v1.283c.18-.465.456-.821.827-1.067.375-.25.818-.375 1.33-.375.265 0 .513.033.744.1.23.066.451.17.662.31v1.102Zm2.977-1.348h1.828v2.116h-1.828v-2.116Zm0 4.424h1.828V214h-1.828v-2.133Z" fill="#75BEFF"/><path d="m218.309 169.416-.528 2.074h1.436l.533-2.074h.938l-.534 2.074h1.43v.897h-1.646l-.575 2.302h1.465v.897h-1.693l-.61 2.414h-.937l.615-2.414h-1.441l-.616 2.414h-.931l.609-2.414h-1.512v-.897h1.741l.574-2.302h-1.559v-.897h1.776l.527-2.074h.938Zm.691 2.971h-1.436l-.574 2.302h1.442l.568-2.302Zm8.76-3.504v.896h-1.225c-.387 0-.656.08-.808.241-.149.156-.223.435-.223.837v.581h2.256v.837h-2.256V178h-1.078v-5.725h-1.752v-.837h1.752v-.458c0-.718.164-1.248.492-1.587.332-.34.848-.51 1.547-.51h1.295Zm7.23 0v.896h-1.224c-.387 0-.657.08-.809.241-.148.156-.223.435-.223.837v.581h2.256v.837h-2.256V178h-1.078v-5.725h-1.752v-.837h1.752v-.458c0-.718.164-1.248.492-1.587.332-.34.848-.51 1.547-.51h1.295Zm4.612.24c.933 0 1.638.381 2.115 1.143.48.761.721 1.888.721 3.38 0 1.493-.241 2.62-.721 3.381-.477.762-1.182 1.143-2.115 1.143-.934 0-1.639-.381-2.116-1.143-.476-.761-.715-1.888-.715-3.381 0-1.492.239-2.619.715-3.38.477-.762 1.182-1.143 2.116-1.143Zm0 8.109c.554 0 .966-.294 1.236-.884.273-.59.41-1.491.41-2.702 0-.644-.039-1.226-.117-1.746l-2.789 4.366c.293.644.713.966 1.26.966Zm0-7.171c-.551 0-.963.294-1.237.884-.269.59-.404 1.491-.404 2.701 0 .551.037 1.067.111 1.547l2.731-4.353c-.297-.52-.698-.779-1.201-.779Zm7.23-.938c.934 0 1.639.381 2.115 1.143.481.761.721 1.888.721 3.38 0 1.493-.24 2.62-.721 3.381-.476.762-1.181 1.143-2.115 1.143-.934 0-1.639-.381-2.115-1.143-.477-.761-.715-1.888-.715-3.381 0-1.492.238-2.619.715-3.38.476-.762 1.181-1.143 2.115-1.143Zm0 8.109c.555 0 .967-.294 1.236-.884.274-.59.411-1.491.411-2.702 0-.644-.04-1.226-.118-1.746l-2.789 4.366c.293.644.713.966 1.26.966Zm0-7.171c-.551 0-.963.294-1.236.884-.27.59-.405 1.491-.405 2.701 0 .551.038 1.067.112 1.547l2.73-4.353c-.297-.52-.697-.779-1.201-.779Zm7.23-.938c.934 0 1.639.381 2.116 1.143.48.761.72 1.888.72 3.38 0 1.493-.24 2.62-.72 3.381-.477.762-1.182 1.143-2.116 1.143-.933 0-1.638-.381-2.115-1.143-.476-.761-.715-1.888-.715-3.381 0-1.492.239-2.619.715-3.38.477-.762 1.182-1.143 2.115-1.143Zm0 8.109c.555 0 .967-.294 1.237-.884.273-.59.41-1.491.41-2.702 0-.644-.039-1.226-.117-1.746l-2.789 4.366c.293.644.713.966 1.259.966Zm0-7.171c-.55 0-.962.294-1.236.884-.269.59-.404 1.491-.404 2.701 0 .551.037 1.067.111 1.547l2.731-4.353c-.297-.52-.698-.779-1.202-.779Zm7.231-.938c.934 0 1.639.381 2.115 1.143.481.761.721 1.888.721 3.38 0 1.493-.24 2.62-.721 3.381-.476.762-1.181 1.143-2.115 1.143-.934 0-1.639-.381-2.115-1.143-.477-.761-.715-1.888-.715-3.381 0-1.492.238-2.619.715-3.38.476-.762 1.181-1.143 2.115-1.143Zm0 8.109c.555 0 .967-.294 1.236-.884.274-.59.41-1.491.41-2.702 0-.644-.039-1.226-.117-1.746l-2.789 4.366c.293.644.713.966 1.26.966Zm0-7.171c-.551 0-.963.294-1.236.884-.27.59-.405 1.491-.405 2.701 0 .551.037 1.067.112 1.547l2.73-4.353c-.297-.52-.697-.779-1.201-.779Z" fill="#EE9D28"/><path d="M291.814 169.252h1.114l-4.606 9.861h-1.119l4.611-9.861Zm8.93 3.644-2.601 1.407 2.601 1.412-.41.715-2.449-1.471v2.73h-.838v-2.73l-2.449 1.471-.41-.715 2.607-1.412-2.607-1.407.41-.72 2.449 1.47v-2.73h.838v2.73l2.449-1.47.41.72Zm8.731-3.644h4.857v.996h-1.834v6.756h1.834V178h-4.857v-.996h1.834v-6.756h-1.834v-.996Zm9.339-.369h1.477v1.207l-1.154 2.244h-.897l.574-2.244v-1.207Zm7.905 3.222c.133-.281.301-.488.504-.621.207-.136.455-.205.744-.205.527 0 .898.205 1.113.616.219.406.328 1.173.328 2.302V178h-.984v-3.756c0-.926-.053-1.5-.158-1.723-.102-.226-.289-.339-.563-.339-.312 0-.527.121-.644.363-.114.238-.17.805-.17 1.699V178h-.985v-3.756c0-.937-.056-1.515-.17-1.734-.109-.219-.308-.328-.597-.328-.285 0-.485.121-.598.363-.109.238-.164.805-.164 1.699V178h-.979v-6.562h.979V172a1.43 1.43 0 0 1 .48-.533c.196-.125.416-.188.663-.188.296 0 .543.069.738.205.199.137.353.344.463.621Zm14.109.088c-.547 0-.961.213-1.242.639-.281.426-.422 1.057-.422 1.893 0 .832.141 1.463.422 1.892.281.426.695.639 1.242.639.551 0 .967-.213 1.248-.639.281-.429.422-1.06.422-1.892 0-.836-.141-1.467-.422-1.893-.281-.426-.697-.639-1.248-.639Zm0-.914c.91 0 1.606.295 2.086.885.484.59.727 1.443.727 2.561 0 1.121-.241 1.976-.721 2.566-.481.586-1.178.879-2.092.879-.91 0-1.605-.293-2.086-.879-.48-.59-.721-1.445-.721-2.566 0-1.118.241-1.971.721-2.561.481-.59 1.176-.885 2.086-.885Zm9.779 2.655V178h-1.084v-4.066c0-.59-.103-1.024-.31-1.301-.207-.278-.531-.416-.973-.416-.504 0-.892.179-1.166.539-.269.355-.404.867-.404 1.535V178h-1.078v-6.562h1.078v.984c.191-.375.451-.658.779-.85.328-.195.717-.293 1.166-.293.668 0 1.166.221 1.494.662.332.438.498 1.102.498 1.993Zm12.85-.616c.574.153 1.014.424 1.318.815.305.387.457.871.457 1.453 0 .805-.271 1.437-.814 1.898-.539.457-1.287.686-2.244.686a7.05 7.05 0 0 1-1.231-.111 7.952 7.952 0 0 1-1.23-.323v-1.177a5.65 5.65 0 0 0 1.178.462c.386.102.771.153 1.154.153.648 0 1.146-.147 1.494-.44.348-.293.522-.714.522-1.265 0-.508-.174-.91-.522-1.207-.348-.301-.818-.451-1.412-.451h-.902v-.973h.902c.543 0 .967-.119 1.271-.358.305-.238.457-.57.457-.996 0-.449-.142-.793-.427-1.031-.282-.242-.684-.363-1.207-.363-.348 0-.707.039-1.078.117-.372.078-.76.195-1.166.352v-1.09c.472-.125.892-.219 1.259-.281.371-.063.7-.094.985-.094.851 0 1.531.215 2.039.644.511.426.767.992.767 1.7 0 .48-.134.88-.404 1.201-.266.32-.654.547-1.166.679Zm14.127 2.309c0 .484.088.85.264 1.096.179.246.443.369.791.369h1.259V178h-1.365c-.644 0-1.144-.205-1.5-.615-.351-.414-.527-1-.527-1.758v-5.936h-1.729v-.843h2.807v6.779Zm4.869-4.166h2.76v5.701h2.139V178h-5.356v-.838h2.139v-4.863h-1.682v-.838Zm1.682-2.549h1.078v1.359h-1.078v-1.359Zm9.855 5.022V178h-1.084v-4.066c0-.59-.103-1.024-.31-1.301-.207-.278-.532-.416-.973-.416-.504 0-.893.179-1.166.539-.269.355-.404.867-.404 1.535V178h-1.078v-6.562h1.078v.984c.191-.375.451-.658.779-.85.328-.195.717-.293 1.166-.293.668 0 1.166.221 1.494.662.332.438.498 1.102.498 1.993Zm7.635.246v.527h-4.67v.035c-.031.895.139 1.537.51 1.928.375.391.902.586 1.582.586a3.86 3.86 0 0 0 1.078-.164c.375-.11.775-.276 1.201-.498v1.072c-.41.168-.806.293-1.189.375a4.972 4.972 0 0 1-1.102.129c-1.019 0-1.816-.305-2.39-.914-.575-.613-.862-1.457-.862-2.531 0-1.047.281-1.883.844-2.508.562-.625 1.312-.938 2.25-.938.836 0 1.494.283 1.975.85.484.566.742 1.25.773 2.051Zm-1.078-.317a2.07 2.07 0 0 0-.498-1.172c-.281-.332-.688-.498-1.219-.498-.519 0-.947.172-1.283.516-.336.344-.52.73-.551 1.16l3.551-.006Zm7.447-2.197v1.055a4.086 4.086 0 0 0-.932-.405 3.463 3.463 0 0 0-.955-.134c-.488 0-.853.08-1.095.24-.239.156-.358.396-.358.721 0 .293.09.511.27.656.18.144.627.285 1.342.422l.433.082c.535.101.94.304 1.213.609.277.305.416.701.416 1.19 0 .648-.23 1.156-.691 1.523-.461.363-1.102.545-1.922.545-.324 0-.664-.035-1.02-.106a9.004 9.004 0 0 1-1.154-.304v-1.114c.402.208.787.364 1.154.469a3.9 3.9 0 0 0 1.043.153c.477 0 .846-.096 1.108-.288.261-.195.392-.466.392-.814 0-.5-.478-.846-1.435-1.037l-.047-.012-.404-.082c-.622-.121-1.075-.324-1.36-.609-.285-.289-.428-.682-.428-1.178 0-.629.213-1.113.639-1.453.426-.344 1.033-.516 1.822-.516.352 0 .69.033 1.014.1.324.062.643.158.955.287Zm4.729-2.414h1.189v3.838l-.123 1.799h-.943l-.123-1.799v-3.838Zm-.176 7.26h1.541V178h-1.541v-1.488Zm-33.967 10.74h1.113l-4.605 9.861h-1.119l4.611-9.861Zm8.93 3.644-2.602 1.407 2.602 1.412-.41.715-2.45-1.471v2.73h-.838v-2.73l-2.449 1.471-.41-.715 2.608-1.412-2.608-1.407.41-.72 2.449 1.47v-2.73h.838v2.73l2.45-1.47.41.72Zm8.73-3.644h4.858v.996h-1.834v6.756h1.834V196h-4.858v-.996h1.834v-6.756h-1.834v-.996Zm9.34-.369h1.477v1.207l-1.155 2.244h-.896l.574-2.244v-1.207Zm7.904 3.222c.133-.281.301-.488.504-.621.207-.136.455-.205.744-.205.528 0 .899.205 1.114.616.218.406.328 1.173.328 2.302V196h-.985v-3.756c0-.926-.052-1.5-.158-1.723-.101-.226-.289-.339-.562-.339-.313 0-.528.121-.645.363-.113.238-.17.805-.17 1.699V196h-.984v-3.756c0-.937-.057-1.515-.17-1.734-.109-.219-.309-.328-.598-.328-.285 0-.484.121-.597.363-.11.238-.164.805-.164 1.699V196h-.979v-6.562h.979V190a1.43 1.43 0 0 1 .48-.533c.195-.125.416-.188.662-.188.297 0 .543.069.738.205.2.137.354.344.463.621Zm14.11.088c-.547 0-.961.213-1.242.639-.282.426-.422 1.057-.422 1.893 0 .832.14 1.463.422 1.892.281.426.695.639 1.242.639.551 0 .967-.213 1.248-.639.281-.429.422-1.06.422-1.892 0-.836-.141-1.467-.422-1.893-.281-.426-.697-.639-1.248-.639Zm0-.914c.91 0 1.605.295 2.086.885.484.59.726 1.443.726 2.561 0 1.121-.24 1.976-.72 2.566-.481.586-1.178.879-2.092.879-.91 0-1.606-.293-2.086-.879-.481-.59-.721-1.445-.721-2.566 0-1.118.24-1.971.721-2.561.48-.59 1.176-.885 2.086-.885Zm9.779 2.655V196h-1.084v-4.066c0-.59-.103-1.024-.31-1.301-.208-.278-.532-.416-.973-.416-.504 0-.893.179-1.166.539-.27.355-.404.867-.404 1.535V196h-1.079v-6.562h1.079v.984c.191-.375.451-.658.779-.85.328-.195.717-.293 1.166-.293.668 0 1.166.221 1.494.662.332.438.498 1.102.498 1.993Zm12.85-.616c.574.153 1.013.424 1.318.815.305.387.457.871.457 1.453 0 .805-.271 1.437-.814 1.898-.539.457-1.288.686-2.245.686-.402 0-.812-.037-1.23-.111a7.952 7.952 0 0 1-1.23-.323v-1.177c.398.207.791.361 1.177.462.387.102.772.153 1.155.153.648 0 1.146-.147 1.494-.44.347-.293.521-.714.521-1.265 0-.508-.174-.91-.521-1.207-.348-.301-.819-.451-1.412-.451h-.903v-.973h.903c.543 0 .966-.119 1.271-.358.305-.238.457-.57.457-.996 0-.449-.142-.793-.428-1.031-.281-.242-.683-.363-1.207-.363a5.24 5.24 0 0 0-1.078.117c-.371.078-.76.195-1.166.352v-1.09a14.4 14.4 0 0 1 1.26-.281c.371-.063.699-.094.984-.094.852 0 1.532.215 2.039.644.512.426.768.992.768 1.7 0 .48-.135.88-.404 1.201-.266.32-.655.547-1.166.679Zm14.127 2.309c0 .484.088.85.263 1.096.18.246.444.369.791.369h1.26V196h-1.365c-.645 0-1.145-.205-1.5-.615-.352-.414-.528-1-.528-1.758v-5.936h-1.728v-.843h2.807v6.779Zm4.869-4.166h2.76v5.701h2.138V196h-5.355v-.838h2.138v-4.863h-1.681v-.838Zm1.681-2.549h1.079v1.359H470.9v-1.359Zm9.856 5.022V196h-1.084v-4.066c0-.59-.104-1.024-.311-1.301-.207-.278-.531-.416-.972-.416-.504 0-.893.179-1.166.539-.27.355-.405.867-.405 1.535V196h-1.078v-6.562h1.078v.984c.192-.375.452-.658.78-.85.328-.195.716-.293 1.166-.293.668 0 1.166.221 1.494.662.332.438.498 1.102.498 1.993Zm7.635.246v.527h-4.67v.035c-.032.895.138 1.537.509 1.928.375.391.903.586 1.582.586.344 0 .704-.055 1.079-.164.375-.11.775-.276 1.201-.498v1.072c-.41.168-.807.293-1.19.375a4.97 4.97 0 0 1-1.101.129c-1.02 0-1.817-.305-2.391-.914-.574-.613-.861-1.457-.861-2.531 0-1.047.281-1.883.844-2.508.562-.625 1.312-.938 2.25-.938.836 0 1.494.283 1.974.85.485.566.742 1.25.774 2.051Zm-1.079-.317a2.057 2.057 0 0 0-.498-1.172c-.281-.332-.687-.498-1.218-.498-.52 0-.948.172-1.284.516-.335.344-.519.73-.55 1.16l3.55-.006Zm7.448-2.197v1.055a4.105 4.105 0 0 0-.932-.405 3.469 3.469 0 0 0-.955-.134c-.488 0-.853.08-1.096.24-.238.156-.357.396-.357.721 0 .293.09.511.269.656.18.144.627.285 1.342.422l.434.082c.535.101.939.304 1.213.609.277.305.416.701.416 1.19 0 .648-.231 1.156-.692 1.523-.461.363-1.101.545-1.922.545-.324 0-.664-.035-1.019-.106a8.962 8.962 0 0 1-1.154-.304v-1.114c.402.208.787.364 1.154.469a3.9 3.9 0 0 0 1.043.153c.476 0 .846-.096 1.107-.288.262-.195.393-.466.393-.814 0-.5-.479-.846-1.436-1.037l-.047-.012-.404-.082c-.621-.121-1.074-.324-1.359-.609-.285-.289-.428-.682-.428-1.178 0-.629.213-1.113.639-1.453.426-.344 1.033-.516 1.822-.516.352 0 .689.033 1.014.1.324.062.642.158.955.287Zm4.728-2.414h1.19v3.838l-.123 1.799h-.944l-.123-1.799v-3.838Zm-.176 7.26h1.542V196h-1.542v-1.488Zm-99.041 10.74h1.114l-4.606 9.861h-1.119l4.611-9.861Zm8.93 3.644-2.601 1.407 2.601 1.412-.41.715-2.449-1.471v2.73h-.838v-2.73l-2.449 1.471-.41-.715 2.607-1.412-2.607-1.407.41-.72 2.449 1.47v-2.73h.838v2.73l2.449-1.47.41.72Zm8.731-3.644h4.857v.996h-1.834v6.756h1.834V214h-4.857v-.996h1.834v-6.756h-1.834v-.996Zm9.339-.369h1.477v1.207l-1.154 2.244h-.897l.574-2.244v-1.207Zm7.905 3.222c.133-.281.301-.488.504-.621.207-.136.455-.205.744-.205.527 0 .898.205 1.113.616.219.406.328 1.173.328 2.302V214h-.984v-3.756c0-.926-.053-1.5-.158-1.723-.102-.226-.289-.339-.563-.339-.312 0-.527.121-.644.363-.114.238-.17.805-.17 1.699V214h-.985v-3.756c0-.937-.056-1.515-.17-1.734-.109-.219-.308-.328-.597-.328-.285 0-.485.121-.598.363-.109.238-.164.805-.164 1.699V214h-.978v-6.562h.978V208a1.43 1.43 0 0 1 .48-.533c.196-.125.417-.188.663-.188.296 0 .543.069.738.205.199.137.353.344.463.621Zm14.109.088c-.547 0-.961.213-1.242.639-.281.426-.422 1.057-.422 1.893 0 .832.141 1.463.422 1.892.281.426.695.639 1.242.639.551 0 .967-.213 1.248-.639.281-.429.422-1.06.422-1.892 0-.836-.141-1.467-.422-1.893-.281-.426-.697-.639-1.248-.639Zm0-.914c.91 0 1.606.295 2.086.885.484.59.727 1.443.727 2.561 0 1.121-.241 1.976-.721 2.566-.481.586-1.178.879-2.092.879-.91 0-1.605-.293-2.086-.879-.48-.59-.72-1.445-.72-2.566 0-1.118.24-1.971.72-2.561.481-.59 1.176-.885 2.086-.885Zm9.779 2.655V214h-1.084v-4.066c0-.59-.103-1.024-.31-1.301-.207-.278-.531-.416-.973-.416-.504 0-.892.179-1.166.539-.269.355-.404.867-.404 1.535V214h-1.078v-6.562h1.078v.984c.191-.375.451-.658.779-.85.328-.195.717-.293 1.166-.293.668 0 1.166.221 1.494.662.332.438.498 1.102.498 1.993Zm12.85-.616c.574.153 1.014.424 1.318.815.305.387.457.871.457 1.453 0 .805-.271 1.437-.814 1.898-.539.457-1.287.686-2.244.686-.402 0-.813-.037-1.231-.111a7.952 7.952 0 0 1-1.23-.323v-1.177a5.65 5.65 0 0 0 1.178.462c.386.102.771.153 1.154.153.648 0 1.146-.147 1.494-.44.348-.293.522-.714.522-1.265 0-.508-.174-.91-.522-1.207-.348-.301-.818-.451-1.412-.451h-.902v-.973h.902c.543 0 .967-.119 1.271-.358.305-.238.457-.57.457-.996 0-.449-.142-.793-.427-1.031-.281-.242-.684-.363-1.207-.363-.348 0-.707.039-1.078.117-.371.078-.76.195-1.166.352v-1.09c.472-.125.892-.219 1.259-.281.371-.063.7-.094.985-.094.851 0 1.531.215 2.039.644.512.426.767.992.767 1.7 0 .48-.134.88-.404 1.201-.266.32-.654.547-1.166.679Zm14.127 2.309c0 .484.088.85.264 1.096.179.246.443.369.791.369h1.259V214h-1.365c-.644 0-1.144-.205-1.5-.615-.351-.414-.527-1-.527-1.758v-5.936h-1.729v-.843h2.807v6.779Zm4.869-4.166h2.76v5.701h2.139V214h-5.356v-.838h2.139v-4.863h-1.682v-.838Zm1.682-2.549h1.078v1.359h-1.078v-1.359Zm9.855 5.022V214h-1.084v-4.066c0-.59-.103-1.024-.31-1.301-.207-.278-.532-.416-.973-.416-.504 0-.892.179-1.166.539-.269.355-.404.867-.404 1.535V214h-1.078v-6.562h1.078v.984c.191-.375.451-.658.779-.85.328-.195.717-.293 1.166-.293.668 0 1.166.221 1.494.662.332.438.498 1.102.498 1.993Zm7.635.246v.527h-4.67v.035c-.031.895.139 1.537.51 1.928.375.391.902.586 1.582.586a3.86 3.86 0 0 0 1.078-.164c.375-.11.775-.276 1.201-.498v1.072c-.41.168-.806.293-1.189.375a4.972 4.972 0 0 1-1.102.129c-1.019 0-1.816-.305-2.39-.914-.575-.613-.862-1.457-.862-2.531 0-1.047.281-1.883.844-2.508.562-.625 1.312-.938 2.25-.938.836 0 1.494.283 1.975.85.484.566.742 1.25.773 2.051Zm-1.078-.317a2.07 2.07 0 0 0-.498-1.172c-.281-.332-.688-.498-1.219-.498-.519 0-.947.172-1.283.516-.336.344-.52.73-.551 1.16l3.551-.006Zm7.447-2.197v1.055a4.098 4.098 0 0 0-.931-.405 3.476 3.476 0 0 0-.956-.134c-.488 0-.853.08-1.095.24-.239.156-.358.396-.358.721 0 .293.09.511.27.656.18.144.627.285 1.342.422l.433.082c.535.101.94.304 1.213.609.277.305.416.701.416 1.19 0 .648-.23 1.156-.691 1.523-.461.363-1.102.545-1.922.545-.324 0-.664-.035-1.02-.106a9.004 9.004 0 0 1-1.154-.304v-1.114c.402.208.787.364 1.154.469.368.102.715.153 1.043.153.477 0 .846-.096 1.108-.288.261-.195.392-.466.392-.814 0-.5-.478-.846-1.435-1.037l-.047-.012-.404-.082c-.621-.121-1.075-.324-1.36-.609-.285-.289-.428-.682-.428-1.178 0-.629.213-1.113.639-1.453.426-.344 1.033-.516 1.822-.516.352 0 .69.033 1.014.1.324.062.643.158.955.287Zm4.729-2.414h1.189v3.838l-.123 1.799h-.943l-.123-1.799v-3.838Zm-.176 7.26h1.541V214h-1.541v-1.488Z" fill="#327E36"/><path d="m52.008 187.416-.528 2.074h1.436l.533-2.074h.938l-.534 2.074h1.43v.897h-1.646l-.575 2.302h1.465v.897h-1.693l-.61 2.414h-.937l.615-2.414h-1.441L49.846 196h-.932l.61-2.414h-1.512v-.897h1.74l.574-2.302h-1.558v-.897h1.775l.527-2.074h.938Zm.691 2.971h-1.435l-.575 2.302h1.442l.568-2.302Zm4.729 4.787v3.322h-1.084v-9.058h1.084v.837c.18-.324.418-.57.715-.738.3-.172.646-.258 1.037-.258.793 0 1.414.307 1.863.92.453.613.68 1.463.68 2.549 0 1.066-.227 1.904-.68 2.514-.453.605-1.074.908-1.863.908-.399 0-.748-.084-1.05-.252a1.825 1.825 0 0 1-.702-.744Zm3.164-2.449c0-.836-.133-1.467-.399-1.893-.261-.426-.652-.639-1.171-.639-.524 0-.92.215-1.19.645-.27.426-.404 1.055-.404 1.887 0 .828.135 1.457.404 1.886.27.43.666.645 1.19.645.519 0 .91-.213 1.171-.639.266-.426.399-1.056.399-1.892Zm4.055 2.279h4.019V196h-5.314v-.996c.73-.77 1.369-1.449 1.916-2.039.546-.59.923-1.006 1.13-1.248.391-.477.655-.862.791-1.155.137-.296.206-.599.206-.908 0-.488-.145-.871-.434-1.148-.285-.277-.678-.416-1.178-.416-.355 0-.728.064-1.119.193-.39.129-.805.324-1.242.586v-1.195a6.402 6.402 0 0 1 1.184-.434c.39-.097.775-.146 1.154-.146.855 0 1.543.228 2.062.685.524.453.785 1.049.785 1.787 0 .375-.088.75-.263 1.125-.172.375-.453.789-.844 1.243-.219.254-.537.605-.955 1.054-.414.45-1.047 1.121-1.898 2.016Zm-12.64 10.412-.526 2.074h1.435l.533-2.074h.938l-.534 2.074h1.43v.897h-1.646l-.575 2.302h1.465v.897h-1.693l-.61 2.414h-.937l.615-2.414h-1.441L49.846 214h-.932l.61-2.414h-1.512v-.897h1.74l.574-2.302h-1.558v-.897h1.775l.527-2.074h.938Zm.692 2.971h-1.435l-.575 2.302h1.442l.568-2.302Zm4.729 4.787v3.322h-1.084v-9.058h1.084v.837c.18-.324.418-.57.715-.738.3-.172.646-.258 1.037-.258.793 0 1.414.307 1.863.92.453.613.68 1.463.68 2.549 0 1.066-.227 1.904-.68 2.514-.453.605-1.074.908-1.863.908-.399 0-.748-.084-1.05-.252a1.825 1.825 0 0 1-.702-.744Zm3.164-2.449c0-.836-.133-1.467-.399-1.893-.261-.426-.652-.639-1.171-.639-.524 0-.92.215-1.19.645-.27.426-.404 1.055-.404 1.887 0 .828.135 1.457.404 1.886.27.43.666.645 1.19.645.519 0 .91-.213 1.171-.639.266-.426.399-1.056.399-1.892Zm6.416-1.407c.574.153 1.014.424 1.318.815.305.387.457.871.457 1.453 0 .805-.271 1.437-.814 1.898-.54.457-1.287.686-2.244.686a7.05 7.05 0 0 1-1.23-.111 7.969 7.969 0 0 1-1.231-.323v-1.177c.398.207.79.361 1.177.462a4.51 4.51 0 0 0 1.155.153c.648 0 1.146-.147 1.494-.44.347-.293.521-.714.521-1.265 0-.508-.174-.91-.521-1.207-.348-.301-.819-.451-1.412-.451h-.903v-.973h.903c.543 0 .966-.119 1.271-.358.305-.238.457-.57.457-.996 0-.449-.142-.793-.428-1.031-.28-.242-.683-.363-1.206-.363-.348 0-.708.039-1.079.117-.37.078-.76.195-1.166.352v-1.09c.473-.125.893-.219 1.26-.281.371-.063.7-.094.984-.094.852 0 1.532.215 2.04.644.511.426.767.992.767 1.7 0 .48-.135.88-.404 1.201-.266.32-.655.547-1.166.679Z" fill="#DFD155"/><path d="M220.459 191.934V196h-1.084v-4.066c0-.59-.104-1.024-.311-1.301-.207-.278-.531-.416-.972-.416-.504 0-.893.179-1.166.539-.27.355-.405.867-.405 1.535V196h-1.078v-9.117h1.078v3.539c.192-.375.452-.658.78-.85.328-.195.717-.293 1.166-.293.668 0 1.166.221 1.494.662.332.438.498 1.102.498 1.993Zm6.773-2.268v1.055a4.098 4.098 0 0 0-.931-.405 3.474 3.474 0 0 0-.955-.134c-.489 0-.854.08-1.096.24-.238.156-.357.396-.357.721 0 .293.089.511.269.656.18.144.627.285 1.342.422l.434.082c.535.101.939.304 1.212.609.278.305.416.701.416 1.19 0 .648-.23 1.156-.691 1.523-.461.363-1.102.545-1.922.545-.324 0-.664-.035-1.019-.106a8.974 8.974 0 0 1-1.155-.304v-1.114a6.3 6.3 0 0 0 1.155.469c.367.102.714.153 1.043.153.476 0 .845-.096 1.107-.288.262-.195.393-.466.393-.814 0-.5-.479-.846-1.436-1.037l-.047-.012-.404-.082c-.621-.121-1.074-.324-1.36-.609-.285-.289-.427-.682-.427-1.178 0-.629.213-1.113.638-1.453.426-.344 1.034-.516 1.823-.516.351 0 .689.033 1.013.1.325.062.643.158.955.287Zm5.743 3.961c0 .484.087.85.263 1.096.18.246.444.369.791.369h1.26V196h-1.365c-.645 0-1.145-.205-1.5-.615-.352-.414-.528-1-.528-1.758v-5.936h-1.728v-.843h2.807v6.779Z" fill="#F5FFBB"/><path d="M244.805 195.01h1.84v-6.61l-2.204 1.061v-1.137l2.192-1.043h1.183v7.729h1.817v.99h-4.828v-.99Zm7.834-.006h4.019V196h-5.314v-.996c.73-.77 1.369-1.449 1.916-2.039.547-.59.924-1.006 1.131-1.248.39-.477.654-.862.791-1.155.136-.296.205-.599.205-.908 0-.488-.145-.871-.434-1.148-.285-.277-.678-.416-1.178-.416a3.57 3.57 0 0 0-1.119.193c-.39.129-.804.324-1.242.586v-1.195a6.39 6.39 0 0 1 1.184-.434c.39-.097.775-.146 1.154-.146.855 0 1.543.228 2.062.685.524.453.786 1.049.786 1.787 0 .375-.088.75-.264 1.125-.172.375-.453.789-.844 1.243-.219.254-.537.605-.955 1.054-.414.45-1.047 1.121-1.898 2.016Zm8.654-7.881c.934 0 1.639.381 2.115 1.143.481.761.721 1.888.721 3.38 0 1.493-.24 2.62-.721 3.381-.476.762-1.181 1.143-2.115 1.143-.934 0-1.639-.381-2.115-1.143-.477-.761-.715-1.888-.715-3.381 0-1.492.238-2.619.715-3.38.476-.762 1.181-1.143 2.115-1.143Zm0 8.109c.555 0 .967-.294 1.236-.884.274-.59.41-1.491.41-2.702 0-.644-.039-1.226-.117-1.746l-2.789 4.366c.293.644.713.966 1.26.966Zm0-7.171c-.551 0-.963.294-1.236.884-.27.59-.405 1.491-.405 2.701 0 .551.037 1.067.112 1.547l2.73-4.353c-.297-.52-.697-.779-1.201-.779Zm19.664 6.949h1.84v-6.61l-2.203 1.061v-1.137l2.191-1.043h1.184v7.729h1.816v.99h-4.828v-.99Zm9.258-7.887c.933 0 1.639.381 2.115 1.143.481.761.721 1.888.721 3.38 0 1.493-.24 2.62-.721 3.381-.476.762-1.182 1.143-2.115 1.143-.934 0-1.639-.381-2.115-1.143-.477-.761-.715-1.888-.715-3.381 0-1.492.238-2.619.715-3.38.476-.762 1.181-1.143 2.115-1.143Zm0 8.109c.555 0 .967-.294 1.236-.884.274-.59.41-1.491.41-2.702 0-.644-.039-1.226-.117-1.746l-2.789 4.366c.293.644.713.966 1.26.966Zm0-7.171c-.551 0-.963.294-1.236.884-.27.59-.405 1.491-.405 2.701 0 .551.037 1.067.112 1.547l2.73-4.353c-.297-.52-.697-.779-1.201-.779Zm7.23-.938c.934 0 1.639.381 2.116 1.143.48.761.72 1.888.72 3.38 0 1.493-.24 2.62-.72 3.381-.477.762-1.182 1.143-2.116 1.143-.933 0-1.638-.381-2.115-1.143-.476-.761-.715-1.888-.715-3.381 0-1.492.239-2.619.715-3.38.477-.762 1.182-1.143 2.115-1.143Zm0 8.109c.555 0 .967-.294 1.237-.884.273-.59.41-1.491.41-2.702 0-.644-.039-1.226-.117-1.746l-2.789 4.366c.293.644.712.966 1.259.966Zm0-7.171c-.55 0-.963.294-1.236.884-.27.59-.404 1.491-.404 2.701 0 .551.037 1.067.111 1.547l2.73-4.353c-.296-.52-.697-.779-1.201-.779Zm7.7 6.07a1.051 1.051 0 0 0 1.072 1.078c.301 0 .554-.104.762-.311.21-.21.316-.466.316-.767a1.05 1.05 0 0 0-.316-.768 1.038 1.038 0 0 0-.762-.316c-.305 0-.561.103-.768.31a1.06 1.06 0 0 0-.304.774Zm-.791 0c0-.527.179-.971.539-1.33a1.79 1.79 0 0 1 1.324-.545c.25 0 .486.047.709.14.226.094.429.231.609.411.18.183.319.388.416.615.098.226.147.463.147.709 0 .519-.182.961-.545 1.324a1.82 1.82 0 0 1-1.336.545c-.531 0-.975-.178-1.33-.533-.356-.36-.533-.805-.533-1.336Zm-2.801-.709-.258-.662 6.533-2.614.293.663-6.568 2.613Zm.498-3.938c0 .309.101.567.304.774.207.203.465.304.774.304.301 0 .557-.103.767-.31.211-.211.317-.467.317-.768 0-.3-.106-.554-.317-.761a1.042 1.042 0 0 0-.767-.317c-.301 0-.557.104-.768.311-.207.207-.31.463-.31.767Zm-.791 0c0-.527.179-.97.539-1.33a1.798 1.798 0 0 1 1.33-.545c.25 0 .488.047.715.141a1.847 1.847 0 0 1 1.013 1.014c.098.226.147.466.147.72 0 .524-.182.967-.545 1.33-.363.36-.807.54-1.33.54-.527 0-.971-.18-1.33-.54a1.803 1.803 0 0 1-.539-1.33Zm22.711-2.232h4.429v.996h-3.351v2.15c.168-.062.336-.107.504-.134.172-.032.343-.047.515-.047.907 0 1.625.267 2.157.803.531.535.796 1.259.796 2.173 0 .922-.279 1.649-.837 2.18-.555.531-1.315.797-2.28.797a7.97 7.97 0 0 1-1.277-.094 4.674 4.674 0 0 1-1.031-.281v-1.201c.359.195.72.342 1.084.439.363.094.734.141 1.113.141.652 0 1.154-.172 1.506-.516.355-.344.533-.832.533-1.465 0-.625-.184-1.111-.551-1.459-.363-.347-.871-.521-1.523-.521a3.86 3.86 0 0 0-.926.111 3.617 3.617 0 0 0-.861.322v-4.394Zm9.627-.129c.933 0 1.638.381 2.115 1.143.48.761.721 1.888.721 3.38 0 1.493-.241 2.62-.721 3.381-.477.762-1.182 1.143-2.115 1.143-.934 0-1.639-.381-2.116-1.143-.476-.761-.714-1.888-.714-3.381 0-1.492.238-2.619.714-3.38.477-.762 1.182-1.143 2.116-1.143Zm0 8.109c.554 0 .966-.294 1.236-.884.273-.59.41-1.491.41-2.702 0-.644-.039-1.226-.117-1.746l-2.789 4.366c.293.644.713.966 1.26.966Zm0-7.171c-.551 0-.963.294-1.237.884-.269.59-.404 1.491-.404 2.701 0 .551.037 1.067.111 1.547l2.731-4.353c-.297-.52-.697-.779-1.201-.779Zm7.699 6.07c0 .305.101.56.305.767.207.207.462.311.767.311.301 0 .555-.104.762-.311.211-.21.316-.466.316-.767s-.105-.557-.316-.768a1.038 1.038 0 0 0-.762-.316c-.305 0-.56.103-.767.31a1.058 1.058 0 0 0-.305.774Zm-.791 0c0-.527.18-.971.539-1.33a1.791 1.791 0 0 1 1.324-.545c.25 0 .486.047.709.14.227.094.43.231.61.411.179.183.318.388.416.615.097.226.146.463.146.709 0 .519-.182.961-.545 1.324a1.818 1.818 0 0 1-1.336.545c-.531 0-.974-.178-1.33-.533-.355-.36-.533-.805-.533-1.336Zm-2.801-.709-.258-.662 6.533-2.614.293.663-6.568 2.613Zm.498-3.938c0 .309.102.567.305.774.207.203.465.304.773.304.301 0 .557-.103.768-.31.211-.211.316-.467.316-.768 0-.3-.105-.554-.316-.761a1.046 1.046 0 0 0-.768-.317c-.301 0-.556.104-.767.311a1.043 1.043 0 0 0-.311.767Zm-.791 0c0-.527.18-.97.539-1.33a1.8 1.8 0 0 1 1.33-.545c.25 0 .489.047.715.141.231.094.434.229.609.404.176.176.311.379.405.61.097.226.146.466.146.72 0 .524-.181.967-.545 1.33-.363.36-.806.54-1.33.54-.527 0-.97-.18-1.33-.54a1.807 1.807 0 0 1-.539-1.33Zm-83.35 15.639c.934 0 1.639.381 2.116 1.143.48.761.72 1.888.72 3.38 0 1.493-.24 2.62-.72 3.381-.477.762-1.182 1.143-2.116 1.143-.933 0-1.638-.381-2.115-1.143-.476-.761-.715-1.888-.715-3.381 0-1.492.239-2.619.715-3.38.477-.762 1.182-1.143 2.115-1.143Zm0 8.109c.555 0 .967-.294 1.237-.884.273-.59.41-1.491.41-2.702 0-.644-.039-1.226-.117-1.746l-2.789 4.366c.293.644.713.966 1.259.966Zm0-7.171c-.55 0-.962.294-1.236.884-.269.59-.404 1.491-.404 2.701 0 .551.037 1.067.111 1.547l2.731-4.353c-.297-.52-.698-.779-1.202-.779Zm22.389.269-2.76 4.623h2.76v-4.623Zm-.193-1.078h1.371v5.701h1.166v.961h-1.166V214h-1.178v-2.086h-3.709v-1.119l3.516-5.543Zm19.763 7.752h4.02V214h-5.314v-.996c.73-.77 1.369-1.449 1.916-2.039a50.83 50.83 0 0 0 1.13-1.248c.391-.477.655-.862.791-1.155.137-.296.206-.599.206-.908 0-.488-.145-.871-.434-1.148-.285-.277-.678-.416-1.178-.416a3.57 3.57 0 0 0-1.119.193 6.247 6.247 0 0 0-1.242.586v-1.195a6.408 6.408 0 0 1 1.183-.434 4.786 4.786 0 0 1 1.155-.146c.855 0 1.543.228 2.062.685.524.453.785 1.049.785 1.787 0 .375-.087.75-.263 1.125-.172.375-.453.789-.844 1.243-.219.254-.537.605-.955 1.054a181.25 181.25 0 0 1-1.899 2.016Zm6.258-7.752h4.43v.996h-3.352v2.15c.168-.062.336-.107.504-.134.172-.032.344-.047.516-.047.906 0 1.625.267 2.156.803.531.535.797 1.259.797 2.173 0 .922-.279 1.649-.838 2.18-.554.531-1.314.797-2.279.797-.465 0-.891-.031-1.277-.094a4.699 4.699 0 0 1-1.032-.281v-1.201c.36.195.721.342 1.084.439.364.094.735.141 1.114.141.652 0 1.154-.172 1.505-.516.356-.344.534-.832.534-1.465 0-.625-.184-1.111-.551-1.459-.363-.347-.871-.521-1.524-.521-.316 0-.625.037-.925.111a3.64 3.64 0 0 0-.862.322v-4.394Zm7.231 0h4.429v.996h-3.351v2.15c.168-.062.336-.107.504-.134.172-.032.344-.047.515-.047.907 0 1.625.267 2.157.803.531.535.797 1.259.797 2.173 0 .922-.28 1.649-.838 2.18-.555.531-1.315.797-2.28.797a7.98 7.98 0 0 1-1.277-.094 4.674 4.674 0 0 1-1.031-.281v-1.201c.359.195.72.342 1.084.439.363.094.734.141 1.113.141.652 0 1.154-.172 1.506-.516.355-.344.533-.832.533-1.465 0-.625-.183-1.111-.551-1.459-.363-.347-.871-.521-1.523-.521a3.86 3.86 0 0 0-.926.111 3.617 3.617 0 0 0-.861.322v-4.394Zm24.088-.129c.933 0 1.638.381 2.115 1.143.48.761.721 1.888.721 3.38 0 1.493-.241 2.62-.721 3.381-.477.762-1.182 1.143-2.115 1.143-.934 0-1.639-.381-2.116-1.143-.476-.761-.714-1.888-.714-3.381 0-1.492.238-2.619.714-3.38.477-.762 1.182-1.143 2.116-1.143Zm0 8.109c.554 0 .966-.294 1.236-.884.273-.59.41-1.491.41-2.702 0-.644-.039-1.226-.117-1.746l-2.789 4.366c.293.644.713.966 1.26.966Zm0-7.171c-.551 0-.963.294-1.237.884-.269.59-.404 1.491-.404 2.701 0 .551.037 1.067.111 1.547l2.731-4.353c-.297-.52-.697-.779-1.201-.779Zm5.9 5.572h2.063V214h-2.063v-2.367Zm5.766-6.381h5.507v.504L347.643 214h-1.237l3.047-7.752h-4.189v-.996Zm10.963 4.066c.574.153 1.013.424 1.318.815.305.387.457.871.457 1.453 0 .805-.272 1.437-.814 1.898-.54.457-1.288.686-2.245.686-.402 0-.812-.037-1.23-.111a7.994 7.994 0 0 1-1.231-.323v-1.177c.399.207.791.361 1.178.462.387.102.772.153 1.154.153.649 0 1.147-.147 1.495-.44.347-.293.521-.714.521-1.265 0-.508-.174-.91-.521-1.207-.348-.301-.819-.451-1.413-.451h-.902v-.973h.902c.543 0 .967-.119 1.272-.358.305-.238.457-.57.457-.996 0-.449-.143-.793-.428-1.031-.281-.242-.683-.363-1.207-.363a5.24 5.24 0 0 0-1.078.117c-.371.078-.76.195-1.166.352v-1.09a14.4 14.4 0 0 1 1.26-.281c.371-.063.699-.094.984-.094.852 0 1.531.215 2.039.644.512.426.768.992.768 1.7 0 .48-.135.88-.404 1.201-.266.32-.655.547-1.166.679Zm7.23 0c.574.153 1.014.424 1.318.815.305.387.457.871.457 1.453 0 .805-.271 1.437-.814 1.898-.539.457-1.287.686-2.244.686a7.05 7.05 0 0 1-1.231-.111 7.952 7.952 0 0 1-1.23-.323v-1.177a5.65 5.65 0 0 0 1.178.462c.386.102.771.153 1.154.153.648 0 1.146-.147 1.494-.44.348-.293.522-.714.522-1.265 0-.508-.174-.91-.522-1.207-.348-.301-.818-.451-1.412-.451h-.902v-.973h.902c.543 0 .967-.119 1.271-.358.305-.238.457-.57.457-.996 0-.449-.142-.793-.427-1.031-.282-.242-.684-.363-1.207-.363-.348 0-.707.039-1.078.117-.372.078-.76.195-1.166.352v-1.09c.472-.125.892-.219 1.259-.281.371-.063.7-.094.985-.094.851 0 1.531.215 2.039.644.511.426.767.992.767 1.7 0 .48-.134.88-.404 1.201-.266.32-.654.547-1.166.679Z" fill="#73C991"/><path d="M221.068 208.791a2.418 2.418 0 0 0-.703-.393 2.398 2.398 0 0 0-.785-.123c-.672 0-1.185.211-1.541.633-.355.422-.533 1.031-.533 1.828V214h-1.084v-6.562h1.084v1.283c.18-.465.455-.821.826-1.067.375-.25.818-.375 1.33-.375.266 0 .514.033.744.1.231.066.451.17.662.31v1.102Zm5.491 1.875c0-.809-.133-1.422-.399-1.84-.262-.422-.644-.633-1.148-.633-.528 0-.93.211-1.207.633-.278.418-.416 1.031-.416 1.84 0 .809.138 1.426.416 1.852.281.421.687.632 1.218.632.497 0 .875-.212 1.137-.638.266-.426.399-1.041.399-1.846Zm1.078 2.912c0 .984-.233 1.731-.698 2.238-.464.508-1.148.762-2.05.762-.297 0-.608-.027-.932-.082a6.939 6.939 0 0 1-.973-.24v-1.067c.383.18.731.313 1.043.399.313.086.6.129.862.129.582 0 1.006-.158 1.271-.475.266-.316.399-.818.399-1.506v-.779c-.172.367-.407.641-.704.82-.296.18-.658.27-1.084.27-.765 0-1.376-.307-1.833-.92-.458-.613-.686-1.434-.686-2.461 0-1.031.228-1.854.686-2.467.457-.613 1.068-.92 1.833-.92.422 0 .78.084 1.073.252.293.168.531.428.715.78v-.85h1.078v6.117Zm6.504-2.853c0-.836-.133-1.467-.399-1.893-.265-.426-.658-.639-1.178-.639-.523 0-.919.215-1.189.645-.27.426-.404 1.055-.404 1.887 0 .828.134 1.457.404 1.886.27.43.666.645 1.189.645.52 0 .913-.213 1.178-.639.266-.426.399-1.056.399-1.892Zm-3.17-2.45c.172-.32.408-.566.709-.738a2.105 2.105 0 0 1 1.054-.258c.789 0 1.411.305 1.864.914.453.606.679 1.442.679 2.508 0 1.082-.228 1.932-.685 2.549-.453.613-1.076.92-1.869.92-.391 0-.737-.084-1.037-.252a1.899 1.899 0 0 1-.715-.744V214h-1.078v-9.117h1.078v3.392Zm9.134 2.426h-.357c-.629 0-1.103.111-1.424.334-.316.219-.474.547-.474.985 0 .394.119.701.357.919.238.219.568.329.99.329.594 0 1.061-.206 1.401-.616.34-.414.511-.984.515-1.711v-.24h-1.008Zm2.092-.445V214h-1.084v-.973c-.23.391-.521.68-.873.868-.347.183-.771.275-1.271.275-.668 0-1.201-.188-1.6-.563-.398-.378-.598-.884-.598-1.517 0-.731.245-1.285.733-1.664.492-.379 1.213-.569 2.162-.569h1.447v-.169c-.004-.524-.136-.903-.398-1.137-.262-.239-.68-.358-1.254-.358-.367 0-.738.053-1.113.159a4.826 4.826 0 0 0-1.096.462v-1.078a7.397 7.397 0 0 1 1.143-.34 5.121 5.121 0 0 1 1.066-.117c.543 0 1.006.08 1.389.241.386.16.699.4.937.72.149.196.254.438.317.727.062.285.093.715.093 1.289Z" fill="#F5FFBB"/><path fill="var(--vscode-editorCursor-foreground)" d="M417 163h4v22h-4zM504 181h4v22h-4zM525 199h4v22h-4z"/></g><defs><clipPath id="a"><path fill="#fff" transform="translate(32)" d="M0 0h115.654v39.3H0z"/></clipPath><filter id="b" x="0" y="29" width="566" height="234" filterUnits="userSpaceOnUse" color-interpolation-filters="sRGB"><feFlood flood-opacity="0" result="BackgroundImageFix"/><feColorMatrix in="SourceAlpha" values="0 0 0 0 0 0 0 0 0 0 0 0 0 0 0 0 0 0 127 0"/><feOffset dy="2"/><feGaussianBlur stdDeviation="6"/><feColorMatrix values="0 0 0 0 0 0 0 0 0 0 0 0 0 0 0 0 0 0 0.6 0"/><feBlend in2="BackgroundImageFix" result="effect1_dropShadow"/><feBlend in="SourceGraphic" in2="effect1_dropShadow" result="shape"/></filter></defs></svg>