<svg width="520" height="238" fill="none" xmlns="http://www.w3.org/2000/svg"><path fill="var(--vscode-breadcrumb-background, #1E1E1E)" d="M0 0h520v238H0z"/><g clip-path="url(#a)"><path fill="var(--vscode-breadcrumbPicker-background, #252526)" d="M0 0h520v39H0z"/><g clip-path="url(#b)"><path fill="var(--vscode-breadcrumb-background, #1E1E1E)" d="M0 0h115.654v39.3H0z"/><rect x="13.474" y="15.72" width="88.705" height="7.86" rx="3.93" fill="var(--vscode-tab-inactiveBackground, #2D2D2D)"/></g><path d="M215.244 20.222c-2.545 0-4.132-1.84-4.132-4.799 0-2.964 1.58-4.805 4.126-4.805 2.018 0 3.58 1.289 3.808 3.123h-1.415c-.267-1.136-1.187-1.86-2.393-1.86-1.644 0-2.673 1.365-2.673 3.542 0 2.178 1.029 3.536 2.679 3.536 1.213 0 2.133-.654 2.387-1.695h1.415c-.254 1.784-1.758 2.958-3.802 2.958ZM220.76 20v-6.894h1.314v1.048h.102c.197-.68.965-1.168 1.866-1.168.203 0 .463.019.609.05v1.283a4.357 4.357 0 0 0-.761-.076c-1.035 0-1.765.666-1.765 1.637V20h-1.365Zm9.56-1.847h1.314c-.299 1.219-1.416 1.98-2.996 1.98-1.981 0-3.193-1.364-3.193-3.567 0-2.19 1.238-3.593 3.186-3.593 1.924 0 3.085 1.314 3.085 3.472v.47h-4.881v.064c.044 1.25.749 2.037 1.841 2.037.825 0 1.39-.305 1.644-.863Zm-1.695-4.069c-1.009 0-1.714.736-1.79 1.847h3.491c-.032-1.117-.692-1.847-1.701-1.847Zm6.64 6.03c-1.333 0-2.305-.8-2.305-2.056 0-1.238.927-1.956 2.571-2.057l1.873-.114v-.603c0-.756-.483-1.181-1.416-1.181-.761 0-1.288.286-1.441.787h-1.32c.14-1.162 1.257-1.917 2.825-1.917 1.733 0 2.71.863 2.71 2.31V20h-1.314v-.977h-.108c-.412.698-1.168 1.091-2.075 1.091Zm.349-1.098c1.028 0 1.79-.673 1.79-1.561v-.597l-1.689.114c-.952.064-1.383.4-1.383 1.028 0 .642.539 1.016 1.282 1.016Zm5.573-7.649h1.365v1.758h1.498v1.092h-1.498v3.638c0 .742.298 1.066.977 1.066.21 0 .33-.013.521-.032v1.086c-.222.038-.476.07-.743.07-1.517 0-2.12-.534-2.12-1.86v-3.968h-1.098v-1.091h1.098v-1.759Zm8.925 6.786h1.314c-.299 1.219-1.416 1.98-2.996 1.98-1.981 0-3.193-1.364-3.193-3.567 0-2.19 1.238-3.593 3.186-3.593 1.924 0 3.085 1.314 3.085 3.472v.47h-4.881v.064c.044 1.25.749 2.037 1.841 2.037.825 0 1.39-.305 1.644-.863Zm-1.695-4.069c-1.009 0-1.714.736-1.79 1.847h3.491c-.032-1.117-.692-1.847-1.701-1.847Zm8.442-3.244h3.587c1.79 0 3.021 1.232 3.021 3.034 0 1.765-1.269 2.997-3.066 2.997h-2.12V20h-1.422v-9.16Zm1.422 1.2v3.637h1.79c1.225 0 1.943-.654 1.943-1.803 0-1.187-.692-1.834-1.943-1.834h-1.79Zm6.862 7.96v-6.894h1.314v1.048h.102c.196-.68.964-1.168 1.866-1.168.203 0 .463.019.609.05v1.283a4.36 4.36 0 0 0-.762-.076c-1.034 0-1.764.666-1.764 1.637V20h-1.365Zm7.947.133c-2.025 0-3.262-1.352-3.262-3.58 0-2.222 1.244-3.58 3.262-3.58 2.013 0 3.257 1.352 3.257 3.58 0 2.228-1.238 3.58-3.257 3.58Zm0-1.161c1.181 0 1.854-.889 1.854-2.419 0-1.536-.673-2.425-1.854-2.425-1.187 0-1.853.89-1.853 2.425 0 1.536.666 2.419 1.853 2.419ZM278.479 20v-5.783h-1.136v-1.091h1.136v-.743c0-1.371.699-2.044 2.133-2.044.311 0 .578.025.813.063v1.029a3.75 3.75 0 0 0-.527-.032c-.762 0-1.073.349-1.073 1.047v.68h1.543v1.091h-1.524V20h-1.365Zm5.142-8.125a.863.863 0 0 1-.863-.857.864.864 0 0 1 1.726 0c0 .47-.387.857-.863.857ZM282.942 20v-6.894h1.358V20h-1.358Zm3.428 0v-9.598h1.364V20h-1.364Zm7.947-1.847h1.314c-.298 1.219-1.416 1.98-2.996 1.98-1.981 0-3.193-1.364-3.193-3.567 0-2.19 1.238-3.593 3.186-3.593 1.924 0 3.085 1.314 3.085 3.472v.47h-4.881v.064c.044 1.25.749 2.037 1.841 2.037.825 0 1.39-.305 1.644-.863Zm-1.695-4.069c-1.009 0-1.714.736-1.79 1.847h3.491c-.031-1.117-.692-1.847-1.701-1.847Zm5.789 6.011c-.533 0-.933-.4-.933-.914s.4-.914.933-.914c.54 0 .933.4.933.914s-.393.914-.933.914Zm4.101 0c-.533 0-.933-.4-.933-.914s.4-.914.933-.914c.539 0 .933.4.933.914s-.394.914-.933.914Zm4.1 0c-.533 0-.933-.4-.933-.914s.4-.914.933-.914c.54 0 .933.4.933.914s-.393.914-.933.914Z" fill="var(--vscode-quickInput-foreground, #FFFFFF)"/></g><g filter="url(#c)"><path fill="var(--vscode-breadcrumbPicker-background, #252526)" d="M47 24h425v196H47z"/><path fill="var(--vscode-checkbox-background, #3C3C3C)" d="M54.5 31.5h410v25h-410z"/><path stroke="var(--vscode-focusBorder, #007FD4)" d="M54.5 31.5h410v25h-410z"/><path fill="var(--vscode-peekViewEditor-background, #062F4A)" d="M47 64h425v24H47z"/><path d="M65.963 79.775V81H60.15v-9.16h5.814v1.225h-4.392v2.68h4.157v1.18h-4.157v2.85h4.392ZM67.861 81v-6.894h1.314v1.099h.102c.305-.775 1.003-1.232 1.923-1.232.946 0 1.6.489 1.904 1.232h.108c.35-.743 1.143-1.232 2.102-1.232 1.396 0 2.209.838 2.209 2.273V81h-1.365v-4.424c0-.952-.445-1.416-1.34-1.416-.882 0-1.46.648-1.46 1.48V81H72.02v-4.564c0-.787-.52-1.276-1.333-1.276-.832 0-1.46.705-1.46 1.606V81h-1.365Zm15.165-7.014c1.758 0 2.869 1.377 2.869 3.567 0 2.178-1.11 3.561-2.856 3.561-.984 0-1.765-.425-2.127-1.155h-.108v3.339H79.44v-9.192h1.314v1.143h.102c.419-.787 1.231-1.263 2.17-1.263Zm-.387 5.96c1.161 0 1.853-.895 1.853-2.393 0-1.498-.692-2.4-1.847-2.4-1.149 0-1.866.921-1.866 2.4 0 1.473.717 2.393 1.86 2.393Zm5.383-7.579h1.364v1.758h1.498v1.092h-1.498v3.638c0 .742.299 1.066.978 1.066.21 0 .33-.013.52-.032v1.086c-.222.038-.476.07-.742.07-1.517 0-2.12-.534-2.12-1.86v-3.968h-1.099v-1.091h1.099v-1.759Zm5.154 11.134c-.115 0-.438-.013-.565-.032v-1.117c.108.02.317.025.444.025.648 0 1.016-.272 1.25-1.002l.102-.356-2.5-6.913h1.485l1.733 5.523h.107l1.727-5.523h1.447l-2.577 7.211c-.59 1.657-1.244 2.184-2.653 2.184Zm10.34-11.66h3.587c1.79 0 3.021 1.23 3.021 3.034 0 1.764-1.27 2.996-3.066 2.996h-2.12V81h-1.422v-9.16Zm1.422 1.199v3.637h1.79c1.225 0 1.942-.654 1.942-1.803 0-1.186-.691-1.834-1.942-1.834h-1.79ZM111.8 81v-6.894h1.314v1.048h.101c.197-.68.965-1.168 1.867-1.168.203 0 .463.019.609.05v1.283a4.37 4.37 0 0 0-.762-.076c-1.034 0-1.764.666-1.764 1.637V81H111.8Zm7.947.133c-2.025 0-3.263-1.352-3.263-3.58 0-2.221 1.245-3.58 3.263-3.58 2.012 0 3.256 1.352 3.256 3.58 0 2.228-1.237 3.58-3.256 3.58Zm0-1.161c1.181 0 1.854-.889 1.854-2.419 0-1.536-.673-2.425-1.854-2.425-1.187 0-1.853.89-1.853 2.425 0 1.536.666 2.419 1.853 2.419ZM125.136 81v-5.783H124v-1.091h1.136v-.743c0-1.371.698-2.044 2.133-2.044.311 0 .578.025.813.063v1.029a3.75 3.75 0 0 0-.527-.032c-.762 0-1.073.349-1.073 1.047v.68h1.542v1.091h-1.523V81h-1.365Zm5.142-8.125a.863.863 0 0 1-.863-.857.864.864 0 0 1 1.726 0c0 .47-.387.857-.863.857ZM129.599 81v-6.894h1.358V81h-1.358Zm3.427 0v-9.598h1.365V81h-1.365Zm7.948-1.847h1.314c-.299 1.219-1.416 1.98-2.996 1.98-1.981 0-3.193-1.364-3.193-3.567 0-2.19 1.237-3.593 3.186-3.593 1.923 0 3.085 1.314 3.085 3.472v.47h-4.881v.063c.044 1.251.749 2.038 1.841 2.038.825 0 1.39-.305 1.644-.863Zm-1.695-4.069c-1.009 0-1.714.736-1.79 1.847h3.491c-.032-1.117-.692-1.847-1.701-1.847Z" fill="var(--vscode-quickInput-foreground, #FFFFFF)"/><rect x="59" y="98" width="62.5" height="6" rx="3" fill="var(--vscode-editorOverviewRuler-commonContentForeground, #606060)"/><rect x="125.5" y="98" width="29" height="6" rx="3" fill="var(--vscode-banner-iconForeground, #3794FF)" fill-opacity=".6"/><rect x="158.5" y="98" width="62.5" height="6" rx="3" fill="var(--vscode-editorOverviewRuler-commonContentForeground, #606060)"/><g fill="var(--vscode-quickInput-foreground, #FFFFFF)"><path d="M60.149 123.84h3.586c1.79 0 3.022 1.232 3.022 3.035 0 1.764-1.27 2.996-3.066 2.996h-2.12V133h-1.422v-9.16Zm1.422 1.2v3.637h1.79c1.225 0 1.942-.654 1.942-1.802 0-1.187-.692-1.835-1.942-1.835h-1.79Zm7.763 10.461a5.85 5.85 0 0 1-.565-.032v-1.117c.108.019.317.025.444.025.648 0 1.016-.273 1.25-1.002l.102-.356-2.5-6.913h1.485l1.733 5.523h.108l1.726-5.523h1.447l-2.577 7.211c-.59 1.657-1.244 2.184-2.653 2.184Zm7.11-11.134h1.364v1.758h1.498v1.092h-1.498v3.637c0 .743.298 1.067.978 1.067.21 0 .33-.013.52-.032v1.086a4.422 4.422 0 0 1-.742.069c-1.518 0-2.12-.533-2.12-1.859v-3.968h-1.099v-1.092h1.098v-1.758ZM80.975 133v-9.598h1.352v3.803h.108c.336-.768 1.066-1.226 2.107-1.226 1.473 0 2.38.934 2.38 2.565V133H85.56v-4.132c0-1.137-.515-1.701-1.48-1.701-1.117 0-1.739.717-1.739 1.796V133h-1.364Zm10.79.133c-2.024 0-3.262-1.352-3.262-3.58 0-2.221 1.244-3.58 3.263-3.58 2.012 0 3.256 1.352 3.256 3.58 0 2.228-1.238 3.58-3.256 3.58Zm0-1.161c1.181 0 1.854-.889 1.854-2.419 0-1.536-.673-2.425-1.853-2.425-1.187 0-1.854.889-1.854 2.425 0 1.536.667 2.419 1.854 2.419ZM96.668 133v-6.894h1.314v1.092h.102c.336-.761 1.022-1.225 2.063-1.225 1.542 0 2.393.921 2.393 2.565V133h-1.365v-4.139c0-1.142-.483-1.701-1.492-1.701-1.01 0-1.65.686-1.65 1.797V133h-1.365ZM60.149 149.84h3.307c2.717 0 4.31 1.676 4.31 4.558 0 2.914-1.58 4.602-4.31 4.602H60.15v-9.16Zm1.422 1.225v6.71h1.726c1.917 0 3.022-1.225 3.022-3.358 0-2.114-1.124-3.352-3.022-3.352h-1.726Zm10.886 8.068c-2.025 0-3.263-1.352-3.263-3.58 0-2.221 1.245-3.58 3.263-3.58 2.012 0 3.256 1.352 3.256 3.58 0 2.228-1.237 3.58-3.256 3.58Zm0-1.161c1.18 0 1.854-.889 1.854-2.419 0-1.536-.673-2.425-1.854-2.425-1.187 0-1.853.889-1.853 2.425 0 1.536.666 2.419 1.853 2.419Zm10.753-3.65h-1.327c-.158-.673-.717-1.187-1.631-1.187-1.143 0-1.84.901-1.84 2.393 0 1.523.704 2.444 1.84 2.444.863 0 1.454-.407 1.631-1.156h1.327c-.178 1.359-1.244 2.317-2.952 2.317-2.012 0-3.243-1.371-3.243-3.605 0-2.19 1.225-3.555 3.237-3.555 1.733 0 2.78 1.009 2.958 2.349Zm10.467-2.171L91.716 159H90.37l-2.47-9.16h1.48l1.682 7.122h.089l1.91-7.122h1.32l1.924 7.122h.089l1.676-7.122h1.479L97.073 159h-1.34l-1.967-6.849h-.089Zm7.027 6.849v-6.894h1.314v1.048h.102c.196-.679.964-1.168 1.866-1.168.203 0 .463.019.609.051v1.282a4.332 4.332 0 0 0-.762-.076c-1.034 0-1.764.666-1.764 1.637V159h-1.365Zm5.91-8.125a.863.863 0 0 1-.864-.857.865.865 0 0 1 1.727 0c0 .47-.387.857-.863.857Zm-.679 8.125v-6.894h1.358V159h-1.358Zm3.846-8.633h1.365v1.758h1.498v1.092h-1.498v3.637c0 .743.298 1.067.978 1.067.209 0 .33-.013.52-.032v1.086a4.42 4.42 0 0 1-.743.069c-1.517 0-2.12-.533-2.12-1.859v-3.968h-1.098v-1.092h1.098v-1.758Zm8.925 6.786h1.314c-.298 1.219-1.416 1.98-2.996 1.98-1.981 0-3.193-1.364-3.193-3.567 0-2.19 1.238-3.593 3.187-3.593 1.923 0 3.085 1.314 3.085 3.472v.47h-4.882v.064c.045 1.25.749 2.037 1.841 2.037.825 0 1.39-.305 1.644-.863Zm-1.695-4.069c-1.009 0-1.714.736-1.79 1.847h3.491c-.031-1.117-.691-1.847-1.701-1.847ZM121.74 159v-6.894h1.314v1.048h.102c.197-.679.965-1.168 1.866-1.168.203 0 .463.019.609.051v1.282a4.33 4.33 0 0 0-.761-.076c-1.035 0-1.765.666-1.765 1.637V159h-1.365Z"/></g><rect x="59" y="178" width="26" height="6" rx="3" fill="var(--vscode-banner-iconForeground, #3794FF)" fill-opacity=".6"/><rect x="89" y="178" width="164" height="6" rx="3" fill="var(--vscode-editorOverviewRuler-commonContentForeground, #606060)"/><rect x="59" y="200" width="46" height="6" rx="3" fill="var(--vscode-editorOverviewRuler-commonContentForeground, #606060)"/><rect x="109" y="200" width="29" height="6" rx="3" fill="var(--vscode-banner-iconForeground, #3794FF)" fill-opacity=".6"/><rect x="142" y="200" width="46" height="6" rx="3" fill="var(--vscode-editorOverviewRuler-commonContentForeground, #606060)"/></g><defs><clipPath id="a"><path fill="var(--vscode-activityBar-activeBorder, #FFFFFF)" d="M0 0h520v238H0z"/></clipPath><clipPath id="b"><path fill="var(--vscode-activityBar-activeBorder, #FFFFFF)" d="M0 0h115.654v39.3H0z"/></clipPath><filter id="c" x="31" y="10" width="457" height="228" filterUnits="userSpaceOnUse" color-interpolation-filters="sRGB"><feFlood flood-opacity="0" result="BackgroundImageFix"/><feColorMatrix in="SourceAlpha" values="0 0 0 0 0 0 0 0 0 0 0 0 0 0 0 0 0 0 127 0" result="hardAlpha"/><feOffset dy="2"/><feGaussianBlur stdDeviation="8"/><feColorMatrix values="0 0 0 0 0 0 0 0 0 0 0 0 0 0 0 0 0 0 0.36 0"/><feBlend in2="BackgroundImageFix" result="effect1_dropShadow_1_138"/><feBlend in="SourceGraphic" in2="effect1_dropShadow_1_138" result="shape"/></filter></defs></svg>