<svg viewBox="0 0 526 353" fill="none" xmlns="http://www.w3.org/2000/svg"><g filter="url(#a)"><path fill="var(--vscode-editorGroupHeader-tabsBackground)" d="M12 10h502v39H12z"/><g clip-path="url(#b)"><path fill="var(--vscode-tab-activeBackground)" d="M12 10h119.931v39.3H12z"/><path d="M35.234 27.03h-2.14v6.36h-1.56v-6.36h-2.12v-1.14h5.74v1.14h.08Zm4.8 4.44a.841.841 0 0 0-.08-.38 1.532 1.532 0 0 0-.22-.32c-.08-.067-.2-.14-.36-.22-.107-.04-.293-.113-.56-.22l-.16-.06c-.867-.253-1.553-.567-2.06-.94-.453-.387-.68-.867-.68-1.44 0-.627.273-1.127.82-1.5.493-.373 1.147-.56 1.96-.56.827 0 1.507.233 2.04.7.493.44.74.98.74 1.62h-1.44c0-.187-.033-.347-.1-.48a1.22 1.22 0 0 0-.28-.4c-.267-.2-.6-.3-1-.3s-.707.08-.92.24c-.213.16-.32.387-.32.68 0 .24.127.453.38.64.107.08.267.16.48.24.16.067.413.153.76.26.813.24 1.434.547 1.86.92.427.36.64.867.64 1.52 0 .32-.066.613-.2.88-.12.253-.3.46-.54.62-.506.373-1.173.56-2 .56-.88 0-1.593-.213-2.14-.64-.627-.493-.913-1.093-.86-1.8h1.5c0 .427.147.76.44 1 .12.093.28.167.48.22.2.053.413.08.64.08.453 0 .767-.08.94-.24.16-.253.24-.48.24-.68Z" fill="#519ABA"/><path d="M57.043 34.65h1.511l-3.307-9.16h-1.53l-3.307 9.16h1.46l.844-2.476h3.491l.838 2.476Zm-2.634-7.541h.108l1.326 3.923h-2.767l1.333-3.923Zm9.172.527c-.94 0-1.752.476-2.17 1.263h-.102v-1.143h-1.314v9.192h1.365v-3.34h.108c.361.73 1.142 1.156 2.126 1.156 1.746 0 2.856-1.384 2.856-3.56 0-2.19-1.11-3.568-2.869-3.568Zm-.387 5.96c-1.143 0-1.86-.92-1.86-2.393 0-1.479.717-2.4 1.866-2.4 1.156 0 1.848.902 1.848 2.4 0 1.498-.692 2.393-1.854 2.393Zm8.487-5.96c-.94 0-1.752.476-2.171 1.263h-.102v-1.143h-1.314v9.192h1.365v-3.34h.108c.362.73 1.143 1.156 2.127 1.156 1.745 0 2.856-1.384 2.856-3.56 0-2.19-1.11-3.568-2.87-3.568Zm-.387 5.96c-1.143 0-1.86-.92-1.86-2.393 0-1.479.717-2.4 1.866-2.4 1.155 0 1.847.902 1.847 2.4 0 1.498-.692 2.393-1.853 2.393Zm5.808 1.15c.54 0 .933-.4.933-.915 0-.514-.394-.914-.933-.914-.533 0-.933.4-.933.914s.4.914.933.914Zm3.307-8.729v1.758H79.31v1.092h1.098v3.967c0 1.327.603 1.86 2.12 1.86.267 0 .52-.031.743-.07V33.54c-.19.02-.311.032-.52.032-.68 0-.978-.324-.978-1.067v-3.637h1.498v-1.092h-1.498v-1.758h-1.365Zm4.208 3.669c0 1.022.61 1.606 1.924 1.91l1.206.286c.692.165 1.016.445 1.016.876 0 .565-.604.959-1.454.959-.825 0-1.333-.337-1.505-.876H84.44c.12 1.2 1.193 1.942 2.837 1.942 1.65 0 2.863-.87 2.863-2.152 0-1.003-.616-1.567-1.93-1.872l-1.149-.267c-.749-.178-1.098-.444-1.098-.87 0-.558.578-.933 1.34-.933.774 0 1.269.337 1.396.851h1.308c-.134-1.193-1.15-1.917-2.705-1.917-1.561 0-2.685.863-2.685 2.063Zm9.579 2.495 1.51 2.482h1.569l-2.305-3.485 2.28-3.409h-1.524l-1.473 2.463h-.108l-1.485-2.463h-1.593l2.31 3.46-2.291 3.434h1.498l1.51-2.482h.102Z" fill="var(--vscode-tab-activeForeground, #1e1e1e)"/><path d="m110.457 30.354 3.648 3.648.704-.704-3.648-3.648 3.648-3.648-.704-.704-3.648 3.648-3.648-3.648-.704.704 3.648 3.648-3.648 3.648.704.704 3.648-3.648Z" fill="var(--vscode-tab-activeForeground"/></g><g clip-path="url(#c)"><g opacity=".5" clip-path="url(#d)"><path fill="var(--vscode-tab-inactiveBackground)" d="M264 10h122.931v39.3H264z"/><path d="m283.914 34.21.5-2.5h-1.56v-1.32h1.88l.3-1.56h-1.62v-1.3h1.94l.5-2.44h1.74l-.5 2.44h1.76l.5-2.44h1.74l-.5 2.44h1.56v1.3h-1.8l-.38 1.56h1.62v1.32h-1.86l-.5 2.5h-1.76l.5-2.5h-1.74l-.5 2.5h-1.82Zm4.32-3.8.3-1.58h-1.74l-.32 1.58h1.76Z" fill="#519ABA"/><path d="M309.043 34.65h1.511l-3.307-9.16h-1.53l-3.307 9.16h1.46l.844-2.476h3.491l.838 2.476Zm-2.634-7.541h.108l1.327 3.923h-2.768l1.333-3.923Zm9.172.527c-.939 0-1.752.476-2.171 1.263h-.101v-1.143h-1.314v9.192h1.365v-3.34h.108c.361.73 1.142 1.156 2.126 1.156 1.746 0 2.856-1.384 2.856-3.56 0-2.19-1.11-3.568-2.869-3.568Zm-.387 5.96c-1.142 0-1.86-.92-1.86-2.393 0-1.479.718-2.4 1.866-2.4 1.156 0 1.848.902 1.848 2.4 0 1.498-.692 2.393-1.854 2.393Zm8.487-5.96c-.94 0-1.752.476-2.171 1.263h-.102v-1.143h-1.314v9.192h1.365v-3.34h.108c.362.73 1.143 1.156 2.127 1.156 1.745 0 2.856-1.384 2.856-3.56 0-2.19-1.111-3.568-2.869-3.568Zm-.387 5.96c-1.143 0-1.86-.92-1.86-2.393 0-1.479.717-2.4 1.866-2.4 1.155 0 1.847.902 1.847 2.4 0 1.498-.692 2.393-1.853 2.393Zm5.808 1.15c.539 0 .933-.4.933-.915 0-.514-.394-.914-.933-.914-.533 0-.933.4-.933.914s.4.914.933.914Zm8.639-4.774c-.178-1.34-1.225-2.349-2.958-2.349-2.012 0-3.237 1.365-3.237 3.555 0 2.234 1.231 3.605 3.243 3.605 1.708 0 2.774-.958 2.952-2.317h-1.327c-.177.75-.768 1.156-1.631 1.156-1.136 0-1.841-.92-1.841-2.444 0-1.492.698-2.393 1.841-2.393.914 0 1.473.514 1.631 1.187h1.327Zm1.403-.286c0 1.022.609 1.606 1.923 1.91l1.206.286c.692.165 1.016.445 1.016.876 0 .565-.603.959-1.454.959-.825 0-1.333-.337-1.504-.876h-1.365c.121 1.2 1.193 1.942 2.837 1.942 1.651 0 2.863-.87 2.863-2.152 0-1.003-.615-1.567-1.929-1.872l-1.149-.267c-.749-.178-1.098-.444-1.098-.87 0-.558.577-.933 1.339-.933.774 0 1.269.337 1.396.851h1.308c-.133-1.193-1.149-1.917-2.704-1.917-1.562 0-2.685.863-2.685 2.063Zm6.881 0c0 1.022.609 1.606 1.923 1.91l1.206.286c.692.165 1.016.445 1.016.876 0 .565-.603.959-1.454.959-.825 0-1.333-.337-1.504-.876h-1.365c.121 1.2 1.193 1.942 2.837 1.942 1.651 0 2.863-.87 2.863-2.152 0-1.003-.616-1.567-1.93-1.872l-1.148-.267c-.75-.178-1.099-.444-1.099-.87 0-.558.578-.933 1.34-.933.774 0 1.269.337 1.396.851h1.308c-.133-1.193-1.149-1.917-2.704-1.917-1.562 0-2.685.863-2.685 2.063ZM365.457 30.354l3.648 3.648.704-.704-3.648-3.648 3.648-3.648-.704-.704-3.648 3.648-3.648-3.648-.704.704 3.648 3.648-3.648 3.648.704.704 3.648-3.648Z" fill="var(--vscode-tab-inactiveForeground)"/></g></g><path d="M12 49h502v287a2 2 0 0 1-2 2H14a2 2 0 0 1-2-2V49Z" fill="var(--vscode-quickInput-background, #252526)"/><rect x="36" y="73" width="75" height="8" rx="4" fill="#B180D7"/><rect x="288" y="73" width="34" height="8" rx="4" fill="#B180D7"/><rect x="36" y="92" width="75" height="8" rx="4" fill="#B180D7"/><rect x="288" y="292" width="98" height="8" rx="4" fill="#007ACC"/><rect x="354" y="206" width="98" height="8" rx="4" fill="#B180D7"/><rect x="288" y="225" width="64" height="8" rx="4" fill="#B180D7"/><rect x="288" y="244" width="41" height="8" rx="4" fill="#B180D7"/><rect x="358" y="225" width="64" height="8" rx="4" fill="#F14C4C"/><rect x="335" y="244" width="87" height="8" rx="4" fill="#F14C4C"/><rect x="392" y="292" width="60" height="8" rx="4" fill="var(--vscode-editorOverviewRuler-warningForeground)"/><rect x="288" y="206" width="60" height="8" rx="4" fill="var(--vscode-editorOverviewRuler-warningForeground)"/><rect x="36" y="285" width="98.133" height="8" rx="4" fill="#B180D7"/><rect x="141.311" y="285" width="35.437" height="8" rx="4" fill="var(--vscode-editorOverviewRuler-warningForeground)"/><rect x="117" y="73" width="71" height="8" rx="4" fill="#8ADDFF"/><rect x="328" y="73" width="107" height="8" rx="4" fill="#8ADDFF"/><rect x="117" y="92" width="101" height="8" rx="4" fill="#8ADDFF"/><path d="M42.563 140.18v.527h-4.67v.035c-.032.895.138 1.537.51 1.928.374.391.902.586 1.581.586.344 0 .703-.055 1.078-.164.376-.11.776-.276 1.202-.498v1.072c-.41.168-.807.293-1.19.375a4.971 4.971 0 0 1-1.101.129c-1.02 0-1.817-.305-2.391-.914-.574-.613-.861-1.457-.861-2.531 0-1.047.281-1.883.844-2.508.562-.625 1.312-.938 2.25-.938.835 0 1.494.283 1.974.85.484.566.742 1.25.773 2.051Zm-1.079-.317a2.068 2.068 0 0 0-.498-1.172c-.28-.332-.687-.498-1.218-.498-.52 0-.948.172-1.284.516-.336.344-.52.73-.55 1.16l3.55-.006Zm8.297-2.425-2.35 3.14L50.01 144h-1.248l-1.922-2.631L44.924 144h-1.248l2.578-3.422-2.35-3.14H45.1l1.74 2.373 1.728-2.373h1.213Zm2.877 5.736v3.322h-1.084v-9.058h1.084v.837c.18-.324.418-.57.715-.738.3-.172.647-.258 1.037-.258.793 0 1.414.307 1.863.92.454.613.68 1.463.68 2.549 0 1.066-.226 1.904-.68 2.514-.453.605-1.074.908-1.863.908-.398 0-.748-.084-1.049-.252a1.826 1.826 0 0 1-.703-.744Zm3.164-2.449c0-.836-.133-1.467-.398-1.893-.262-.426-.652-.639-1.172-.639-.524 0-.92.215-1.19.645-.269.426-.404 1.055-.404 1.887 0 .828.135 1.457.404 1.886.27.43.666.645 1.19.645.52 0 .91-.213 1.172-.639.266-.426.398-1.056.398-1.892Zm5.479-2.532c-.547 0-.961.213-1.242.639-.282.426-.422 1.057-.422 1.893 0 .832.14 1.463.422 1.892.28.426.695.639 1.242.639.55 0 .967-.213 1.248-.639.281-.429.422-1.06.422-1.892 0-.836-.14-1.467-.422-1.893-.281-.426-.697-.639-1.248-.639Zm0-.914c.91 0 1.605.295 2.086.885.484.59.726 1.443.726 2.561 0 1.121-.24 1.976-.72 2.566-.48.586-1.178.879-2.092.879-.91 0-1.606-.293-2.086-.879-.48-.59-.72-1.445-.72-2.566 0-1.118.24-1.971.72-2.561.48-.59 1.176-.885 2.086-.885Zm10.388 1.512a2.434 2.434 0 0 0-.703-.393 2.4 2.4 0 0 0-.785-.123c-.672 0-1.185.211-1.54.633-.356.422-.534 1.031-.534 1.828V144h-1.084v-6.562h1.084v1.283c.18-.465.455-.821.826-1.067.375-.25.819-.375 1.33-.375.266 0 .514.033.744.1.23.066.451.17.662.31v1.102Zm4.061-3.217v1.864h2.45v.837h-2.45v3.563c0 .484.092.822.275 1.014.184.191.504.287.961.287H78.2V144h-1.318c-.809 0-1.379-.162-1.711-.486-.332-.325-.498-.883-.498-1.676v-3.563H72.92v-.837h1.752v-1.864h1.078Zm-18.522 21.217a2.434 2.434 0 0 0-.703-.393 2.4 2.4 0 0 0-.785-.123c-.672 0-1.185.211-1.54.633-.356.422-.534 1.031-.534 1.828V162h-1.084v-6.562h1.084v1.283c.18-.465.455-.821.826-1.067.375-.25.819-.375 1.33-.375.266 0 .514.033.744.1.23.066.452.17.662.31v1.102Zm7.026 1.389v.527h-4.67v.035c-.031.895.139 1.537.51 1.928.375.391.902.586 1.582.586.343 0 .703-.055 1.078-.164.375-.11.775-.276 1.201-.498v1.072c-.41.168-.807.293-1.19.375a4.971 4.971 0 0 1-1.1.129c-1.02 0-1.817-.305-2.392-.914-.574-.613-.86-1.457-.86-2.531 0-1.047.28-1.883.843-2.508.562-.625 1.312-.938 2.25-.938.836 0 1.494.283 1.974.85.485.566.743 1.25.774 2.051Zm-1.078-.317a2.068 2.068 0 0 0-.498-1.172c-.281-.332-.688-.498-1.219-.498-.52 0-.947.172-1.283.516-.336.344-.52.73-.551 1.16l3.55-.006Zm5.343-4.289v1.864h2.45v.837h-2.45v3.563c0 .484.092.822.276 1.014.183.191.504.287.96.287h1.214V162H69.65c-.808 0-1.379-.162-1.71-.486-.333-.325-.499-.883-.499-1.676v-3.563H65.69v-.837h1.752v-1.864h1.078Zm4.776 5.942v-4.067h1.078v4.067c0 .589.104 1.023.31 1.3.211.278.536.416.973.416.508 0 .897-.177 1.166-.533.27-.359.405-.873.405-1.541v-3.709h1.084V162h-1.084v-.984a2.028 2.028 0 0 1-.786.861c-.328.195-.713.293-1.154.293-.672 0-1.172-.219-1.5-.656-.328-.442-.492-1.108-.492-1.998Zm12.855-2.725a2.435 2.435 0 0 0-.703-.393 2.4 2.4 0 0 0-.785-.123c-.672 0-1.185.211-1.54.633-.356.422-.534 1.031-.534 1.828V162h-1.084v-6.562h1.084v1.283c.18-.465.455-.821.826-1.067.375-.25.818-.375 1.33-.375.266 0 .514.033.744.1.23.066.451.17.662.31v1.102Zm6.621 1.143V162h-1.084v-4.066c0-.59-.103-1.024-.31-1.301-.207-.278-.531-.416-.973-.416-.504 0-.892.179-1.166.539-.27.355-.404.867-.404 1.535V162h-1.078v-6.562h1.078v.984c.191-.375.451-.658.78-.85.327-.195.716-.293 1.165-.293.668 0 1.166.221 1.494.662.333.438.499 1.102.499 1.993Z" fill="#C586C0"/><path d="M159.434 141.07h6.193v.991h-6.193v-.991Zm0-2.759h6.193v.99h-6.193v-.99Zm18.955-4.002c-.52.89-.909 1.779-1.166 2.666a9.611 9.611 0 0 0-.381 2.671c0 .895.127 1.786.381 2.672.257.887.646 1.78 1.166 2.678h-.938c-.59-.93-1.029-1.834-1.318-2.713a8.438 8.438 0 0 1-.434-2.637c0-.871.145-1.748.434-2.63.289-.883.728-1.786 1.318-2.707h.938Zm4.259 0h.938c.59.921 1.029 1.824 1.318 2.707a8.41 8.41 0 0 1 .434 2.63c0 .879-.145 1.76-.434 2.643-.289.883-.728 1.785-1.318 2.707h-.938c.52-.906.907-1.803 1.161-2.689a9.522 9.522 0 0 0 .386-2.661 9.54 9.54 0 0 0-.386-2.666 11.779 11.779 0 0 0-1.161-2.671Zm40.161 9.99v.844h-.375c-.973 0-1.625-.145-1.957-.434-.329-.289-.493-.865-.493-1.729v-1.171c0-.426-.121-.793-.363-1.102-.238-.309-.609-.463-1.113-.463h-.715v-.838h.715c.551 0 .933-.131 1.148-.392.219-.262.328-.647.328-1.155v-1.523c0-.863.164-1.438.493-1.723.332-.289.984-.433 1.957-.433h.375v.838h-.411c-.546 0-.904.086-1.072.257-.164.168-.246.53-.246 1.084v1.571c0 .687-.135 1.15-.404 1.388-.27.235-.795.405-1.576.51.757.09 1.277.264 1.558.522.281.254.422.714.422 1.382v1.225c0 .559.082.922.246 1.09.168.168.526.252 1.072.252h.411Zm-116.725 8.01c-.52.89-.908 1.779-1.166 2.666a9.611 9.611 0 0 0-.381 2.671c0 .895.127 1.786.381 2.672.258.887.646 1.78 1.166 2.678h-.938c-.589-.93-1.029-1.834-1.318-2.713a8.436 8.436 0 0 1-.433-2.637c0-.871.144-1.748.433-2.63.289-.883.729-1.786 1.318-2.707h.938Zm-34.453 22.06-4.98 1.875 4.98 1.858v1.072l-6.194-2.449v-.973l6.194-2.449v1.066Zm22.728 0v-1.066l6.194 2.449v.973l-6.194 2.449v-1.072l4.98-1.858-4.98-1.875Zm-8.267 18-4.98 1.875 4.98 1.858v1.072l-6.194-2.449v-.973l6.194-2.449v1.066Zm15.498 0v-1.066l6.193 2.449v.973l-6.193 2.449v-1.072l4.98-1.858-4.98-1.875Zm56.806 0-4.98 1.875 4.98 1.858v1.072l-6.193-2.449v-.973l6.193-2.449v1.066Zm5.731-3.117h1.113l-4.605 9.861h-1.119l4.611-9.861Zm16.998 3.117v-1.066l6.193 2.449v.973l-6.193 2.449v-1.072l4.98-1.858-4.98-1.875Zm-109.494 18-4.98 1.875 4.98 1.858v1.072l-6.194-2.449v-.973l6.194-2.449v1.066Zm5.73-3.117h1.114l-4.606 9.861H72.75l4.611-9.861Zm24.229 3.117v-1.066l6.193 2.449v.973l-6.193 2.449v-1.072l4.98-1.858-4.98-1.875Zm-49.09 13.94h.938c.59.921 1.029 1.824 1.318 2.707.289.882.434 1.759.434 2.63 0 .879-.145 1.76-.434 2.643-.29.883-.729 1.785-1.319 2.707H52.5c.52-.906.906-1.803 1.16-2.689a9.494 9.494 0 0 0 .387-2.661c0-.89-.129-1.779-.387-2.666a11.797 11.797 0 0 0-1.16-2.671Zm7.781 7.576h1.828v1.553l-1.154 2.238h-1.254l.58-2.238v-1.553Zm-.076-4.442h1.828v2.116h-1.828v-2.116Zm-22.512 24.856c.547 0 .903-.084 1.067-.252.168-.168.252-.531.252-1.09v-1.225c0-.668.14-1.128.422-1.382.28-.258.8-.432 1.558-.522-.781-.105-1.306-.275-1.576-.51-.27-.238-.404-.701-.404-1.388v-1.571c0-.554-.084-.916-.252-1.084-.164-.171-.52-.257-1.067-.257h-.41v-.838h.375c.973 0 1.623.144 1.951.433.332.285.498.86.498 1.723v1.523c0 .508.108.893.323 1.155.218.261.603.392 1.154.392h.715v.838h-.715c-.504 0-.877.154-1.12.463a1.751 1.751 0 0 0-.357 1.102v1.171c0 .864-.166 1.44-.498 1.729-.328.289-.978.434-1.95.434h-.376v-.844h.41Z" fill="var(--vscode-foreground)"/><path d="M92.83 143.666a3.64 3.64 0 0 1-.896.375 3.435 3.435 0 0 1-.938.129c-1.015 0-1.81-.305-2.385-.914-.57-.61-.855-1.453-.855-2.531 0-1.079.285-1.922.855-2.532.575-.609 1.37-.914 2.385-.914.317 0 .625.041.926.123.3.082.603.209.908.381v1.131a2.919 2.919 0 0 0-.861-.551 2.624 2.624 0 0 0-.973-.17c-.676 0-1.195.219-1.558.657-.364.437-.545 1.062-.545 1.875 0 .808.181 1.433.544 1.875.368.437.887.656 1.56.656.374 0 .71-.057 1.007-.17.297-.117.572-.297.826-.539v1.119Zm4.623-5.473c-.547 0-.96.213-1.242.639-.281.426-.422 1.057-.422 1.893 0 .832.14 1.463.422 1.892.281.426.695.639 1.242.639.55 0 .967-.213 1.248-.639.281-.429.422-1.06.422-1.892 0-.836-.14-1.467-.422-1.893-.281-.426-.697-.639-1.248-.639Zm0-.914c.91 0 1.606.295 2.086.885.484.59.727 1.443.727 2.561 0 1.121-.241 1.976-.721 2.566-.48.586-1.178.879-2.092.879-.91 0-1.605-.293-2.086-.879-.48-.59-.72-1.445-.72-2.566 0-1.118.24-1.971.72-2.561.48-.59 1.176-.885 2.086-.885Zm9.779 2.655V144h-1.084v-4.066c0-.59-.103-1.024-.31-1.301-.207-.278-.531-.416-.973-.416-.504 0-.892.179-1.166.539-.269.355-.404.867-.404 1.535V144h-1.078v-6.562h1.078v.984c.191-.375.451-.658.779-.85.328-.195.717-.293 1.166-.293.668 0 1.166.221 1.494.662.332.438.498 1.102.498 1.993Zm6.774-2.268v1.055a4.105 4.105 0 0 0-.932-.405 3.469 3.469 0 0 0-.955-.134c-.488 0-.853.08-1.096.24-.238.156-.357.396-.357.721 0 .293.09.511.27.656.179.144.626.285 1.341.422l.434.082c.535.101.939.304 1.213.609.277.305.416.701.416 1.19 0 .648-.231 1.156-.692 1.523-.46.363-1.101.545-1.921.545a5.2 5.2 0 0 1-1.02-.106 9.004 9.004 0 0 1-1.154-.304v-1.114c.402.208.787.364 1.154.469a3.9 3.9 0 0 0 1.043.153c.477 0 .846-.096 1.107-.288.262-.195.393-.466.393-.814 0-.5-.479-.846-1.436-1.037l-.046-.012-.405-.082c-.621-.121-1.074-.324-1.359-.609-.285-.289-.428-.682-.428-1.178 0-.629.213-1.113.639-1.453.426-.344 1.033-.516 1.822-.516.352 0 .69.033 1.014.1.324.062.642.158.955.287Zm5.127-2.092v1.864h2.449v.837h-2.449v3.563c0 .484.092.822.275 1.014.184.191.504.287.961.287h1.213V144h-1.318c-.809 0-1.379-.162-1.711-.486-.332-.325-.498-.883-.498-1.676v-3.563h-1.752v-.837h1.752v-1.864h1.078Zm76.453 5.496h6.193v.991h-6.193v-.991Zm0-2.759h6.193v.99h-6.193v-.99Zm7.23.058v-1.066l6.194 2.449v.973l-6.194 2.449v-1.072l4.981-1.858-4.981-1.875ZM77.18 174.275v-3.392h1.078V180H77.18v-.826c-.18.324-.42.572-.721.744-.297.168-.64.252-1.031.252-.793 0-1.418-.307-1.875-.92-.453-.617-.68-1.467-.68-2.549 0-1.066.229-1.902.686-2.508.457-.609 1.08-.914 1.869-.914.394 0 .742.086 1.043.258.3.168.537.414.709.738Zm-3.17 2.45c0 .836.133 1.466.398 1.892.266.426.658.639 1.178.639.52 0 .914-.215 1.183-.645.274-.429.41-1.058.41-1.886 0-.832-.136-1.461-.41-1.887-.269-.43-.663-.645-1.183-.645s-.912.213-1.178.639c-.265.426-.398 1.057-.398 1.893Zm7.224-3.264h2.76v5.701h2.139V180h-5.356v-.838h2.139v-4.863h-1.682v-.838Zm1.682-2.549h1.078v1.359h-1.078v-1.359Zm4.283 2.526h1.12l1.904 5.507 1.91-5.507h1.119L90.92 180H89.53l-2.332-6.562Zm5.573 20.496V198h-1.085v-4.066c0-.59-.103-1.024-.31-1.301-.207-.278-.531-.416-.973-.416-.504 0-.892.179-1.166.539-.27.355-.404.867-.404 1.535V198h-1.078v-9.117h1.078v3.539c.191-.375.451-.658.78-.85.327-.195.716-.293 1.165-.293.668 0 1.166.221 1.494.662.333.438.499 1.102.499 1.993Zm2.654 3.076h1.84v-6.61l-2.204 1.061v-1.137l2.192-1.043h1.183v7.729h1.817v.99h-4.828v-.99Zm76.881-3.076V198h-1.084v-4.066c0-.59-.104-1.024-.311-1.301-.207-.278-.531-.416-.973-.416-.503 0-.892.179-1.166.539-.269.355-.404.867-.404 1.535V198h-1.078v-9.117h1.078v3.539a2.02 2.02 0 0 1 .779-.85c.329-.195.717-.293 1.166-.293.668 0 1.166.221 1.495.662.332.438.498 1.102.498 1.993Zm2.654 3.076h1.84v-6.61l-2.203 1.061v-1.137l2.191-1.043h1.184v7.729h1.816v.99h-4.828v-.99Zm-90.55 13.265v-3.392h1.077V216H84.41v-.826c-.18.324-.42.572-.72.744-.297.168-.641.252-1.032.252-.793 0-1.418-.307-1.875-.92-.453-.617-.68-1.467-.68-2.549 0-1.066.229-1.902.686-2.508.457-.609 1.08-.914 1.87-.914.394 0 .741.086 1.042.258.301.168.537.414.71.738Zm-3.17 2.45c0 .836.132 1.466.398 1.892.265.426.658.639 1.177.639.52 0 .915-.215 1.184-.645.273-.429.41-1.058.41-1.886 0-.832-.137-1.461-.41-1.887-.27-.43-.664-.645-1.184-.645-.52 0-.912.213-1.177.639-.266.426-.399 1.057-.399 1.893Zm7.224-3.264h2.76v5.701h2.138V216h-5.355v-.838h2.139v-4.863h-1.682v-.838Zm1.681-2.549h1.079v1.359h-1.078v-1.359Zm4.284 2.526h1.119l1.904 5.507 1.91-5.507h1.119L98.15 216h-1.388l-2.332-6.562Z" fill="var(--vscode-notificationLink-foreground)"/><path d="m133.605 136.295-1.248 4.476h2.497l-1.249-4.476Zm-.714-1.043h1.435l2.678 8.748h-1.225l-.644-2.279h-3.065l-.632 2.279h-1.225l2.678-8.748Zm6.533 7.922v3.322h-1.084v-9.058h1.084v.837c.18-.324.418-.57.715-.738.3-.172.646-.258 1.037-.258.793 0 1.414.307 1.863.92.453.613.68 1.463.68 2.549 0 1.066-.227 1.904-.68 2.514-.453.605-1.074.908-1.863.908-.399 0-.748-.084-1.049-.252a1.825 1.825 0 0 1-.703-.744Zm3.164-2.449c0-.836-.133-1.467-.399-1.893-.261-.426-.652-.639-1.171-.639-.524 0-.92.215-1.19.645-.269.426-.404 1.055-.404 1.887 0 .828.135 1.457.404 1.886.27.43.666.645 1.19.645.519 0 .91-.213 1.171-.639.266-.426.399-1.056.399-1.892Zm4.066 2.449v3.322h-1.084v-9.058h1.084v.837c.18-.324.418-.57.715-.738a2.054 2.054 0 0 1 1.037-.258c.793 0 1.414.307 1.864.92.453.613.679 1.463.679 2.549 0 1.066-.226 1.904-.679 2.514-.454.605-1.075.908-1.864.908-.398 0-.748-.084-1.049-.252a1.831 1.831 0 0 1-.703-.744Zm3.164-2.449c0-.836-.132-1.467-.398-1.893-.262-.426-.652-.639-1.172-.639-.523 0-.92.215-1.189.645-.27.426-.405 1.055-.405 1.887 0 .828.135 1.457.405 1.886.269.43.666.645 1.189.645.52 0 .91-.213 1.172-.639.266-.426.398-1.056.398-1.892Z" fill="var(--vscode-editorOverviewRuler-warningForeground)"/><path d="M108.516 189.281h1.582l1.511 4.442 1.524-4.442h1.588V198h-1.096v-7.705l-1.559 4.594h-.896l-1.565-4.594V198h-1.089v-8.719Zm12.046 6.61c-.179.457-.408 1.058-.685 1.804-.387 1.032-.647 1.66-.779 1.887-.18.305-.405.533-.674.686a1.89 1.89 0 0 1-.944.228h-.867v-.902h.639c.316 0 .564-.092.744-.276.18-.183.408-.658.686-1.423l-2.537-6.457h1.142l1.945 5.132 1.916-5.132h1.143l-1.729 4.453Zm13.547-1.19h-.357c-.629 0-1.104.111-1.424.334-.316.219-.474.547-.474.985 0 .394.119.701.357.919.238.219.568.329.99.329.594 0 1.061-.206 1.401-.616.339-.414.511-.984.515-1.711v-.24h-1.008Zm2.092-.445V198h-1.084v-.973c-.23.391-.521.68-.873.868-.348.183-.771.275-1.271.275-.668 0-1.202-.188-1.6-.563-.398-.378-.598-.884-.598-1.517 0-.731.245-1.285.733-1.664.492-.379 1.213-.569 2.162-.569h1.447v-.169c-.004-.524-.137-.903-.398-1.137-.262-.239-.68-.358-1.254-.358-.367 0-.738.053-1.113.159a4.826 4.826 0 0 0-1.096.462v-1.078a7.42 7.42 0 0 1 1.142-.34 5.138 5.138 0 0 1 1.067-.117c.543 0 1.006.08 1.389.241.386.16.699.4.937.72.148.196.254.438.316.727.063.285.094.715.094 1.289Zm3.223 2.918v3.322h-1.084v-9.058h1.084v.837c.18-.324.418-.57.715-.738.3-.172.646-.258 1.037-.258.793 0 1.414.307 1.863.92.453.613.68 1.463.68 2.549 0 1.066-.227 1.904-.68 2.514-.453.605-1.074.908-1.863.908-.399 0-.748-.084-1.049-.252a1.825 1.825 0 0 1-.703-.744Zm3.164-2.449c0-.836-.133-1.467-.399-1.893-.261-.426-.652-.639-1.171-.639-.524 0-.92.215-1.19.645-.269.426-.404 1.055-.404 1.887 0 .828.135 1.457.404 1.886.27.43.666.645 1.19.645.519 0 .91-.213 1.171-.639.266-.426.399-1.056.399-1.892Zm4.066 2.449v3.322h-1.084v-9.058h1.084v.837c.18-.324.418-.57.715-.738a2.054 2.054 0 0 1 1.037-.258c.793 0 1.414.307 1.864.92.453.613.679 1.463.679 2.549 0 1.066-.226 1.904-.679 2.514-.454.605-1.075.908-1.864.908-.398 0-.748-.084-1.049-.252a1.831 1.831 0 0 1-.703-.744Zm3.164-2.449c0-.836-.132-1.467-.398-1.893-.262-.426-.652-.639-1.172-.639-.523 0-.92.215-1.189.645-.27.426-.405 1.055-.405 1.887 0 .828.135 1.457.405 1.886.269.43.666.645 1.189.645.52 0 .91-.213 1.172-.639.266-.426.398-1.056.398-1.892Z" fill="var(--vscode-foreground)"/><path d="M290.279 125.633h2.063V128h-2.063v-2.367Zm8.561-5.338-1.248 4.476h2.496l-1.248-4.476Zm-.715-1.043h1.436l2.677 8.748h-1.224l-.645-2.279h-3.064l-.633 2.279h-1.225l2.678-8.748Zm6.533 7.922v3.322h-1.084v-9.058h1.084v.837c.18-.324.418-.57.715-.738a2.054 2.054 0 0 1 1.037-.258c.793 0 1.414.307 1.863.92.454.613.68 1.463.68 2.549 0 1.066-.226 1.904-.68 2.514-.453.605-1.074.908-1.863.908-.398 0-.748-.084-1.049-.252a1.825 1.825 0 0 1-.703-.744Zm3.164-2.449c0-.836-.133-1.467-.398-1.893-.262-.426-.653-.639-1.172-.639-.523 0-.92.215-1.19.645-.269.426-.404 1.055-.404 1.887 0 .828.135 1.457.404 1.886.27.43.667.645 1.19.645.519 0 .91-.213 1.172-.639.265-.426.398-1.056.398-1.892Zm4.067 2.449v3.322h-1.084v-9.058h1.084v.837c.179-.324.418-.57.715-.738.3-.172.646-.258 1.037-.258.793 0 1.414.307 1.863.92.453.613.68 1.463.68 2.549 0 1.066-.227 1.904-.68 2.514-.453.605-1.074.908-1.863.908-.399 0-.748-.084-1.049-.252a1.825 1.825 0 0 1-.703-.744Zm3.164-2.449c0-.836-.133-1.467-.399-1.893-.261-.426-.652-.639-1.172-.639-.523 0-.92.215-1.189.645-.27.426-.404 1.055-.404 1.887 0 .828.134 1.457.404 1.886.269.43.666.645 1.189.645.52 0 .911-.213 1.172-.639.266-.426.399-1.056.399-1.892Z" fill="var(--vscode-editorOverviewRuler-warningForeground)"/><path d="M330.199 128.299v.844h-.375c-.972 0-1.625-.145-1.957-.434-.328-.289-.492-.865-.492-1.729v-1.171c0-.426-.121-.793-.363-1.102-.239-.309-.61-.463-1.114-.463h-.714v-.838h.714c.551 0 .934-.131 1.149-.392.219-.262.328-.647.328-1.155v-1.523c0-.863.164-1.438.492-1.723.332-.289.985-.433 1.957-.433h.375v.838h-.41c-.547 0-.904.086-1.072.257-.164.168-.246.53-.246 1.084v1.571c0 .687-.135 1.15-.405 1.388-.269.235-.795.405-1.576.51.758.09 1.278.264 1.559.522.281.254.422.714.422 1.382v1.225c0 .559.082.922.246 1.09.168.168.525.252 1.072.252h.41Zm47.08 11.144h1.828v2.116h-1.828v-2.116Zm0 4.424h1.828V146h-1.828v-2.133Zm57.92.018h1.828v1.553l-1.154 2.238h-1.254l.58-2.238v-1.553Zm-.076-4.442h1.828v2.116h-1.828v-2.116Zm-145.43 24.856c.547 0 .903-.084 1.067-.252.168-.168.252-.531.252-1.09v-1.225c0-.668.14-1.128.422-1.382.281-.258.8-.432 1.558-.522-.781-.105-1.306-.275-1.576-.51-.27-.238-.404-.701-.404-1.388v-1.571c0-.554-.084-.916-.252-1.084-.164-.171-.52-.257-1.067-.257h-.41v-.838h.375c.973 0 1.623.144 1.951.433.332.285.498.86.498 1.723v1.523c0 .508.108.893.323 1.155.218.261.603.392 1.154.392h.715v.838h-.715c-.504 0-.877.154-1.119.463a1.753 1.753 0 0 0-.358 1.102v1.171c0 .864-.166 1.44-.498 1.729-.328.289-.978.434-1.951.434h-.375v-.844h.41Z" fill="var(--vscode-foreground)"/><path d="M306.059 137.574v1.864h2.449v.837h-2.449v3.563c0 .484.091.822.275 1.014.184.191.504.287.961.287h1.213V146h-1.319c-.808 0-1.378-.162-1.71-.486-.333-.325-.499-.883-.499-1.676v-3.563h-1.751v-.837h1.751v-1.864h1.079Zm10.195 4.606v.527h-4.67v.035c-.031.895.139 1.537.51 1.928.375.391.902.586 1.582.586a3.86 3.86 0 0 0 1.078-.164c.375-.11.775-.276 1.201-.498v1.072c-.41.168-.807.293-1.189.375a4.972 4.972 0 0 1-1.102.129c-1.019 0-1.816-.305-2.391-.914-.574-.613-.861-1.457-.861-2.531 0-1.047.281-1.883.844-2.508.562-.625 1.312-.938 2.25-.938.836 0 1.494.283 1.974.85.485.566.743 1.25.774 2.051Zm-1.078-.317a2.07 2.07 0 0 0-.498-1.172c-.282-.332-.688-.498-1.219-.498-.52 0-.947.172-1.283.516-.336.344-.52.73-.551 1.16l3.551-.006Zm8.297-2.425-2.35 3.14 2.578 3.422h-1.248l-1.922-2.631-1.916 2.631h-1.248l2.578-3.422-2.349-3.14h1.195l1.74 2.373 1.729-2.373h1.213Zm4.277-1.864v1.864h2.449v.837h-2.449v3.563c0 .484.092.822.275 1.014.184.191.504.287.961.287h1.213V146h-1.318c-.809 0-1.379-.162-1.711-.486-.332-.325-.498-.883-.498-1.676v-3.563h-1.752v-.837h1.752v-1.864h1.078Zm4.23 4.184h6.211v.99h-6.211v-.99Zm10.747.943h-.358c-.629 0-1.103.111-1.424.334-.316.219-.474.547-.474.985 0 .394.119.701.357.919.238.219.568.329.99.329.594 0 1.061-.206 1.401-.616.34-.414.511-.984.515-1.711v-.24h-1.007Zm2.091-.445V146h-1.084v-.973c-.23.391-.521.68-.873.868-.347.183-.771.275-1.271.275-.668 0-1.201-.188-1.6-.563-.398-.378-.597-.884-.597-1.517 0-.731.244-1.285.732-1.664.492-.379 1.213-.569 2.162-.569h1.447v-.169c-.004-.524-.136-.903-.398-1.137-.262-.239-.68-.358-1.254-.358-.367 0-.738.053-1.113.159-.375.105-.74.259-1.096.462v-1.078a7.397 7.397 0 0 1 1.143-.34 5.121 5.121 0 0 1 1.066-.117c.543 0 1.006.08 1.389.241.386.16.699.4.937.72.149.196.254.438.317.727.062.285.093.715.093 1.289Zm5.239 1.371c0 .484.088.85.263 1.096.18.246.444.369.791.369h1.26V146h-1.365c-.645 0-1.145-.205-1.5-.615-.352-.414-.527-1-.527-1.758v-5.936h-1.729v-.843h2.807v6.779Zm4.869-4.166h2.76v5.701h2.138V146h-5.355v-.838h2.138v-4.863h-1.681v-.838Zm1.681-2.549h1.079v1.359h-1.079v-1.359Zm8.725 5.754c0-.809-.133-1.422-.398-1.84-.262-.422-.645-.633-1.149-.633-.527 0-.93.211-1.207.633-.277.418-.416 1.031-.416 1.84 0 .809.139 1.426.416 1.852.281.421.688.632 1.219.632.496 0 .875-.212 1.137-.638.265-.426.398-1.041.398-1.846Zm1.078 2.912c0 .984-.232 1.731-.697 2.238-.465.508-1.149.762-2.051.762-.297 0-.607-.027-.932-.082a6.892 6.892 0 0 1-.972-.24v-1.067c.383.18.73.313 1.043.399.312.086.599.129.861.129.582 0 1.006-.158 1.272-.475.265-.316.398-.818.398-1.506v-.779c-.172.367-.406.641-.703.82-.297.18-.658.27-1.084.27-.766 0-1.377-.307-1.834-.92-.457-.613-.686-1.434-.686-2.461 0-1.031.229-1.854.686-2.467.457-.613 1.068-.92 1.834-.92.422 0 .779.084 1.072.252.293.168.531.428.715.78v-.85h1.078v6.117Zm7.283-3.644V146h-1.084v-4.066c0-.59-.103-1.024-.31-1.301-.207-.278-.531-.416-.973-.416-.504 0-.892.179-1.166.539-.269.355-.404.867-.404 1.535V146h-1.078v-6.562h1.078v.984c.191-.375.451-.658.779-.85.328-.195.717-.293 1.166-.293.668 0 1.166.221 1.494.662.332.438.498 1.102.498 1.993Z" fill="var(--vscode-notificationLink-foreground)"/><path d="M395.443 145.666a3.644 3.644 0 0 1-.896.375 3.436 3.436 0 0 1-.938.129c-1.015 0-1.81-.305-2.384-.914-.571-.61-.856-1.453-.856-2.531 0-1.079.285-1.922.856-2.532.574-.609 1.369-.914 2.384-.914.317 0 .625.041.926.123.301.082.604.209.908.381v1.131a2.915 2.915 0 0 0-.861-.551 2.622 2.622 0 0 0-.973-.17c-.675 0-1.195.219-1.558.657-.363.437-.545 1.062-.545 1.875 0 .808.182 1.433.545 1.875.367.437.887.656 1.558.656.375 0 .711-.057 1.008-.17.297-.117.572-.297.826-.539v1.119Zm7.577-3.486v.527h-4.67v.035c-.032.895.138 1.537.509 1.928.375.391.903.586 1.582.586.344 0 .704-.055 1.079-.164.375-.11.775-.276 1.201-.498v1.072c-.41.168-.807.293-1.19.375a4.97 4.97 0 0 1-1.101.129c-1.02 0-1.817-.305-2.391-.914-.574-.613-.861-1.457-.861-2.531 0-1.047.281-1.883.843-2.508.563-.625 1.313-.938 2.25-.938.836 0 1.495.283 1.975.85.484.566.742 1.25.774 2.051Zm-1.079-.317a2.057 2.057 0 0 0-.498-1.172c-.281-.332-.687-.498-1.218-.498-.52 0-.948.172-1.284.516-.336.344-.519.73-.55 1.16l3.55-.006Zm7.905.071V146h-1.084v-4.066c0-.59-.104-1.024-.311-1.301-.207-.278-.531-.416-.972-.416-.504 0-.893.179-1.167.539-.269.355-.404.867-.404 1.535V146h-1.078v-6.562h1.078v.984c.192-.375.451-.658.78-.85.328-.195.716-.293 1.166-.293.667 0 1.166.221 1.494.662.332.438.498 1.102.498 1.993Zm4.67-4.36v1.864h2.449v.837h-2.449v3.563c0 .484.091.822.275 1.014.184.191.504.287.961.287h1.213V146h-1.319c-.808 0-1.378-.162-1.71-.486-.332-.325-.498-.883-.498-1.676v-3.563h-1.752v-.837h1.752v-1.864h1.078Zm10.195 4.606v.527h-4.67v.035c-.031.895.139 1.537.51 1.928.375.391.902.586 1.582.586a3.86 3.86 0 0 0 1.078-.164c.375-.11.775-.276 1.201-.498v1.072c-.41.168-.807.293-1.189.375a4.972 4.972 0 0 1-1.102.129c-1.019 0-1.816-.305-2.391-.914-.574-.613-.861-1.457-.861-2.531 0-1.047.281-1.883.844-2.508.562-.625 1.312-.938 2.25-.938.836 0 1.494.283 1.975.85.484.566.742 1.25.773 2.051Zm-1.078-.317a2.07 2.07 0 0 0-.498-1.172c-.281-.332-.688-.498-1.219-.498-.52 0-.947.172-1.283.516-.336.344-.52.73-.551 1.16l3.551-.006Zm8.513-1.072a2.418 2.418 0 0 0-.703-.393 2.398 2.398 0 0 0-.785-.123c-.672 0-1.185.211-1.541.633-.355.422-.533 1.031-.533 1.828V146H427.5v-6.562h1.084v1.283c.18-.465.455-.821.826-1.067.375-.25.819-.375 1.33-.375.266 0 .514.033.744.1.231.066.452.17.662.31v1.102Z" fill="#CE9178"/><path fill="var(--vscode-debugToolBar-background)" d="M263 10h1v329h-1z"/></g><defs><clipPath id="b"><path fill="var(--vscode-foreground)" transform="translate(12 10)" d="M0 0h119.931v39.3H0z"/></clipPath><clipPath id="c"><path fill="var(--vscode-foreground)" transform="translate(264 10)" d="M0 0h122.931v39.3H0z"/></clipPath><clipPath id="d"><path fill="var(--vscode-foreground)" transform="translate(264 10)" d="M0 0h122.931v39.3H0z"/></clipPath><filter id="a" x="0" y="0" width="526" height="353" filterUnits="userSpaceOnUse" color-interpolation-filters="sRGB"><feFlood flood-opacity="0" result="BackgroundImageFix"/><feColorMatrix in="SourceAlpha" values="0 0 0 0 0 0 0 0 0 0 0 0 0 0 0 0 0 0 127 0"/><feOffset dy="2"/><feGaussianBlur stdDeviation="6"/><feColorMatrix values="0 0 0 0 0 0 0 0 0 0 0 0 0 0 0 0 0 0 0.6 0"/><feBlend in2="BackgroundImageFix" result="effect1_dropShadow"/><feBlend in="SourceGraphic" in2="effect1_dropShadow" result="shape"/></filter></defs></svg>