<svg xmlns="http://www.w3.org/2000/svg" viewBox="0 0 386 197"><defs><style>.cls-3{fill:#6c6c6c}</style></defs><g id="Layer_2" data-name="Layer 2"><g id="Layer_1-2" data-name="Layer 1"><path style="fill:#f6f6f6" d="M0 0h386v197H0z"/><path style="stroke-miterlimit:10;stroke:#94c5e6;fill:#fff" d="M5.25 8h374v23h-374z"/><path class="cls-3" d="m17.22 21.27-7.14 3.59v-1.24L15.42 21l-5.35-3v-1.22l7.14 4Z"/><path style="fill:none;stroke:#6c6c6c;stroke-miterlimit:10" d="M18.75 12v16"/><path style="fill:#dff0ff" d="M0 38.5h385.75V59H0z"/><path class="cls-3" d="M17.65 53.69a5.34 5.34 0 0 1-2.51.53A4.06 4.06 0 0 1 12 53a4.61 4.61 0 0 1-1.17-3.28 4.83 4.83 0 0 1 1.31-3.53 4.46 4.46 0 0 1 3.33-1.35 5.36 5.36 0 0 1 2.15.37v1.14a4.35 4.35 0 0 0-2.16-.55 3.31 3.31 0 0 0-2.54 1 3.94 3.94 0 0 0-1 2.8 3.76 3.76 0 0 0 .91 2.65 3.1 3.1 0 0 0 2.39 1 4.48 4.48 0 0 0 2.37-.61ZM24.76 54.07h-1v-3.74q0-2-1.51-2a1.65 1.65 0 0 0-1.28.59 2.19 2.19 0 0 0-.52 1.51v3.68h-1v-9.66h1v4.2a2.36 2.36 0 0 1 2.13-1.23q2.2 0 2.2 2.65ZM31.37 54.07h-1v-1a2.18 2.18 0 0 1-2 1.17 2.14 2.14 0 0 1-1.52-.51 1.78 1.78 0 0 1-.55-1.37q0-1.82 2.14-2.12l1.89-.24q0-1.66-1.34-1.66a3.2 3.2 0 0 0-2.12.8V48a4 4 0 0 1 2.21-.61q2.29 0 2.29 2.42Zm-1-3.29-1.61.22a2.55 2.55 0 0 0-1.09.36 1 1 0 0 0-.37.91 1 1 0 0 0 .34.78 1.31 1.31 0 0 0 .9.3 1.67 1.67 0 0 0 1.28-.54 1.94 1.94 0 0 0 .5-1.37ZM38.73 54.07h-1v-3.7q0-2.07-1.51-2.07a1.64 1.64 0 0 0-1.29.59 2.18 2.18 0 0 0-.51 1.48v3.71h-1v-6.5h1v1.08a2.35 2.35 0 0 1 2.13-1.23 2 2 0 0 1 1.63.69 3.07 3.07 0 0 1 .57 2ZM46.24 53.55q0 3.58-3.43 3.58a4.6 4.6 0 0 1-2.11-.46v-1a4.33 4.33 0 0 0 2.09.61q2.4 0 2.4-2.55V53a2.63 2.63 0 0 1-4.19.38 3.47 3.47 0 0 1-.75-2.38 4 4 0 0 1 .75-2.6 2.66 2.66 0 0 1 2.18-1 2.12 2.12 0 0 1 1.95 1.05v-.9h1Zm-1-2.42v-1a1.86 1.86 0 0 0-.52-1.33 1.73 1.73 0 0 0-1.3-.55 1.81 1.81 0 0 0-1.51.7 3.14 3.14 0 0 0-.55 2 2.69 2.69 0 0 0 .52 1.74 1.69 1.69 0 0 0 1.39.65 1.81 1.81 0 0 0 1.42-.62 2.32 2.32 0 0 0 .51-1.59ZM53.57 51.08H49a2.43 2.43 0 0 0 .58 1.68 2 2 0 0 0 1.54.59 3.19 3.19 0 0 0 2-.72v1a3.77 3.77 0 0 1-2.27.62 2.75 2.75 0 0 1-2.16-.89 3.62 3.62 0 0 1-.79-2.49 3.55 3.55 0 0 1 .86-2.47 2.76 2.76 0 0 1 2.14-1 2.45 2.45 0 0 1 2 .83 3.44 3.44 0 0 1 .7 2.29Zm-1.07-.88a2.12 2.12 0 0 0-.43-1.4 1.48 1.48 0 0 0-1.19-.5 1.68 1.68 0 0 0-1.25.53A2.39 2.39 0 0 0 49 50.2ZM63.67 54.07h-4.83V45h4.62v1h-3.55v3h3.29v1h-3.29v3.19h3.76ZM70.68 54.07h-1v-3.7q0-2.07-1.51-2.07a1.64 1.64 0 0 0-1.29.59 2.18 2.18 0 0 0-.51 1.48v3.71h-1v-6.5h1v1.08a2.35 2.35 0 0 1 2.13-1.23 2 2 0 0 1 1.63.69 3.07 3.07 0 0 1 .56 2ZM78.19 54.07h-1V53a2.62 2.62 0 0 1-4.19.38 3.58 3.58 0 0 1-.81-2.38 3.9 3.9 0 0 1 .81-2.61 2.68 2.68 0 0 1 2.16-1 2.09 2.09 0 0 1 1.95 1.05v-4h1Zm-1-2.94v-1a1.86 1.86 0 0 0-.52-1.33 1.74 1.74 0 0 0-1.32-.55 1.8 1.8 0 0 0-1.5.7 3.06 3.06 0 0 0-.54 1.93 2.75 2.75 0 0 0 .52 1.77 1.71 1.71 0 0 0 1.41.65 1.78 1.78 0 0 0 1.41-.63 2.35 2.35 0 0 0 .49-1.54ZM86.57 54.23a3 3 0 0 1-2.3-.91 3.37 3.37 0 0 1-.86-2.42 3.51 3.51 0 0 1 .9-2.56 3.22 3.22 0 0 1 2.42-.92 2.92 2.92 0 0 1 2.27.89 3.56 3.56 0 0 1 .82 2.48 3.49 3.49 0 0 1-.88 2.49 3.08 3.08 0 0 1-2.37.95Zm.08-5.93a2 2 0 0 0-1.59.68 2.8 2.8 0 0 0-.58 1.88 2.64 2.64 0 0 0 .59 1.82 2 2 0 0 0 1.58.67 1.9 1.9 0 0 0 1.55-.65 2.84 2.84 0 0 0 .54-1.86A2.88 2.88 0 0 0 88.2 49a1.89 1.89 0 0 0-1.55-.7ZM94.45 45.37a1.39 1.39 0 0 0-.69-.17q-1.09 0-1.09 1.38v1h1.52v.89h-1.53v5.61h-1v-5.62h-1.14v-.89h1.11v-1.05a2.19 2.19 0 0 1 .59-1.62 2 2 0 0 1 1.47-.59 2 2 0 0 1 .75.11ZM103.73 54.07H99V45h1.07v8.14h3.66ZM105.52 45.92a.66.66 0 0 1-.48-.19.64.64 0 0 1-.2-.48.67.67 0 0 1 .67-.68.67.67 0 0 1 .49.19.68.68 0 0 1 0 1 .66.66 0 0 1-.48.16Zm.51 8.15h-1v-6.5h1ZM113.53 54.07h-1v-3.7q0-2.07-1.51-2.07a1.64 1.64 0 0 0-1.29.59 2.18 2.18 0 0 0-.51 1.48v3.71h-1v-6.5h1v1.08a2.35 2.35 0 0 1 2.13-1.23 2 2 0 0 1 1.63.69 3.07 3.07 0 0 1 .57 2ZM120.71 51.08h-4.59a2.43 2.43 0 0 0 .58 1.68 2 2 0 0 0 1.54.59 3.19 3.19 0 0 0 2-.72v1a3.77 3.77 0 0 1-2.27.62 2.75 2.75 0 0 1-2.17-.89 3.63 3.63 0 0 1-.79-2.49 3.55 3.55 0 0 1 .86-2.47 2.76 2.76 0 0 1 2.14-1 2.44 2.44 0 0 1 2 .83 3.44 3.44 0 0 1 .7 2.29Zm-1.07-.88a2.12 2.12 0 0 0-.44-1.4 1.48 1.48 0 0 0-1.19-.5 1.68 1.68 0 0 0-1.25.53 2.4 2.4 0 0 0-.63 1.38ZM125.56 53.71v-1.26a2.45 2.45 0 0 0 .52.34 4.17 4.17 0 0 0 .63.26 5 5 0 0 0 .67.16 3.72 3.72 0 0 0 .62.06 2.44 2.44 0 0 0 1.47-.36 1.37 1.37 0 0 0 .32-1.69 1.82 1.82 0 0 0-.45-.5 4.46 4.46 0 0 0-.68-.43l-.84-.43c-.32-.16-.61-.32-.89-.49a3.85 3.85 0 0 1-.72-.54 2.28 2.28 0 0 1-.48-.68 2.3 2.3 0 0 1 .1-2 2.33 2.33 0 0 1 .72-.76 3.27 3.27 0 0 1 1-.45 4.67 4.67 0 0 1 1.16-.15 4.45 4.45 0 0 1 2 .32v1.2a3.56 3.56 0 0 0-2.07-.56 3.39 3.39 0 0 0-.7.07 2 2 0 0 0-.62.24 1.36 1.36 0 0 0-.44.42 1.13 1.13 0 0 0-.17.63 1.3 1.3 0 0 0 .13.6 1.46 1.46 0 0 0 .38.46 3.8 3.8 0 0 0 .62.41l.84.43q.49.24.93.51a4.22 4.22 0 0 1 .77.59 2.6 2.6 0 0 1 .52.72 2 2 0 0 1 .19.9 2.29 2.29 0 0 1-.26 1.14 2.16 2.16 0 0 1-.71.76 3.1 3.1 0 0 1-1 .42 5.63 5.63 0 0 1-1.23.13h-.53c-.21 0-.43-.06-.65-.1a5.16 5.16 0 0 1-.62-.17 1.94 1.94 0 0 1-.53-.2ZM138 51.08h-4.59a2.43 2.43 0 0 0 .58 1.68 2 2 0 0 0 1.54.59 3.19 3.19 0 0 0 2-.72v1a3.77 3.77 0 0 1-2.27.62 2.75 2.75 0 0 1-2.17-.89 3.63 3.63 0 0 1-.79-2.49 3.55 3.55 0 0 1 .86-2.47 2.76 2.76 0 0 1 2.14-1 2.44 2.44 0 0 1 2 .83 3.44 3.44 0 0 1 .7 2.29Zm-1.07-.88a2.12 2.12 0 0 0-.44-1.4 1.48 1.48 0 0 0-1.19-.5 1.68 1.68 0 0 0-1.25.53 2.4 2.4 0 0 0-.63 1.38ZM145.1 57.06h-1V53a2.33 2.33 0 0 1-2.22 1.27 2.44 2.44 0 0 1-2-.87 3.56 3.56 0 0 1-.74-2.38 3.9 3.9 0 0 1 .81-2.59 2.7 2.7 0 0 1 2.18-1 2 2 0 0 1 1.87 1.05v-.9h1Zm-1-5.92v-.94a1.89 1.89 0 0 0-.52-1.35 1.76 1.76 0 0 0-1.33-.55 1.78 1.78 0 0 0-1.48.7 3.1 3.1 0 0 0-.55 2 2.69 2.69 0 0 0 .53 1.76 1.68 1.68 0 0 0 1.36.64 1.83 1.83 0 0 0 1.46-.62 2.31 2.31 0 0 0 .49-1.63ZM152.46 54.07h-1V53a2.14 2.14 0 0 1-2 1.18q-2.32 0-2.32-2.77v-3.84h1v3.72q0 2.06 1.57 2.06a1.59 1.59 0 0 0 1.25-.56 2.15 2.15 0 0 0 .49-1.47v-3.75h1ZM159.79 51.08h-4.59a2.43 2.43 0 0 0 .58 1.68 2 2 0 0 0 1.54.59 3.19 3.19 0 0 0 2-.72v1a3.77 3.77 0 0 1-2.27.62 2.75 2.75 0 0 1-2.17-.89 3.63 3.63 0 0 1-.79-2.49 3.55 3.55 0 0 1 .86-2.47 2.76 2.76 0 0 1 2.14-1 2.44 2.44 0 0 1 2 .83 3.44 3.44 0 0 1 .7 2.29Zm-1.07-.88a2.12 2.12 0 0 0-.44-1.4 1.48 1.48 0 0 0-1.19-.5 1.68 1.68 0 0 0-1.25.53 2.4 2.4 0 0 0-.63 1.38ZM166.76 54.07h-1v-3.7q0-2.07-1.51-2.07a1.64 1.64 0 0 0-1.29.59 2.18 2.18 0 0 0-.51 1.48v3.71h-1v-6.5h1v1.08a2.34 2.34 0 0 1 2.13-1.23 2 2 0 0 1 1.63.69 3.07 3.07 0 0 1 .56 2ZM173.15 53.78a3.38 3.38 0 0 1-1.78.45 2.94 2.94 0 0 1-2.24-.9 3.28 3.28 0 0 1-.85-2.35 3.6 3.6 0 0 1 .92-2.58 3.22 3.22 0 0 1 2.46-1 3.42 3.42 0 0 1 1.51.32v1.07a2.65 2.65 0 0 0-1.55-.51A2.09 2.09 0 0 0 170 49a2.71 2.71 0 0 0-.64 1.88 2.58 2.58 0 0 0 .6 1.8 2.07 2.07 0 0 0 1.61.66 2.61 2.61 0 0 0 1.6-.57ZM180 51.08h-4.59a2.43 2.43 0 0 0 .58 1.68 2 2 0 0 0 1.54.59 3.19 3.19 0 0 0 2-.72v1a3.77 3.77 0 0 1-2.27.62 2.75 2.75 0 0 1-2.17-.89 3.63 3.63 0 0 1-.79-2.49 3.55 3.55 0 0 1 .86-2.47 2.76 2.76 0 0 1 2.14-1 2.44 2.44 0 0 1 2 .83 3.44 3.44 0 0 1 .7 2.29Zm-1.07-.88a2.12 2.12 0 0 0-.44-1.4 1.48 1.48 0 0 0-1.19-.5 1.68 1.68 0 0 0-1.25.53 2.4 2.4 0 0 0-.63 1.38ZM17.65 75.69a5.34 5.34 0 0 1-2.51.53A4.06 4.06 0 0 1 12 75a4.61 4.61 0 0 1-1.17-3.28 4.83 4.83 0 0 1 1.31-3.53 4.46 4.46 0 0 1 3.33-1.35 5.36 5.36 0 0 1 2.15.37v1.14a4.35 4.35 0 0 0-2.16-.55 3.31 3.31 0 0 0-2.54 1 3.94 3.94 0 0 0-1 2.8 3.76 3.76 0 0 0 .91 2.65 3.1 3.1 0 0 0 2.39 1 4.48 4.48 0 0 0 2.37-.61ZM24.76 76.07h-1v-3.74q0-2-1.51-2a1.65 1.65 0 0 0-1.28.59 2.19 2.19 0 0 0-.52 1.51v3.68h-1v-9.66h1v4.2a2.36 2.36 0 0 1 2.13-1.23q2.2 0 2.2 2.65ZM31.37 76.07h-1v-1a2.18 2.18 0 0 1-2 1.17 2.14 2.14 0 0 1-1.52-.51 1.78 1.78 0 0 1-.55-1.37q0-1.82 2.14-2.12l1.89-.24q0-1.66-1.34-1.66a3.2 3.2 0 0 0-2.12.8V70a4 4 0 0 1 2.21-.61q2.29 0 2.29 2.42Zm-1-3.29-1.61.22a2.55 2.55 0 0 0-1.09.36 1 1 0 0 0-.37.91 1 1 0 0 0 .34.78 1.31 1.31 0 0 0 .9.3 1.67 1.67 0 0 0 1.28-.54 1.94 1.94 0 0 0 .5-1.37ZM38.73 76.07h-1v-3.7q0-2.07-1.51-2.07a1.64 1.64 0 0 0-1.29.59 2.18 2.18 0 0 0-.51 1.48v3.71h-1v-6.5h1v1.08a2.35 2.35 0 0 1 2.13-1.23 2 2 0 0 1 1.63.69 3.07 3.07 0 0 1 .57 2ZM46.24 75.55q0 3.58-3.43 3.58a4.6 4.6 0 0 1-2.11-.46v-1a4.33 4.33 0 0 0 2.09.61q2.4 0 2.4-2.55V75a2.63 2.63 0 0 1-4.19.38 3.47 3.47 0 0 1-.75-2.38 4 4 0 0 1 .75-2.6 2.66 2.66 0 0 1 2.18-1 2.12 2.12 0 0 1 1.95 1.05v-.9h1Zm-1-2.42v-1a1.86 1.86 0 0 0-.52-1.33 1.73 1.73 0 0 0-1.3-.55 1.81 1.81 0 0 0-1.51.7 3.14 3.14 0 0 0-.55 2 2.69 2.69 0 0 0 .52 1.74 1.69 1.69 0 0 0 1.39.65 1.81 1.81 0 0 0 1.42-.62 2.32 2.32 0 0 0 .51-1.59ZM53.57 73.08H49a2.43 2.43 0 0 0 .58 1.68 2 2 0 0 0 1.54.59 3.19 3.19 0 0 0 2-.72v1a3.77 3.77 0 0 1-2.27.62 2.75 2.75 0 0 1-2.16-.89 3.62 3.62 0 0 1-.79-2.49 3.55 3.55 0 0 1 .86-2.47 2.76 2.76 0 0 1 2.14-1 2.45 2.45 0 0 1 2 .83 3.44 3.44 0 0 1 .7 2.29Zm-1.07-.88a2.12 2.12 0 0 0-.43-1.4 1.48 1.48 0 0 0-1.19-.5 1.68 1.68 0 0 0-1.25.53A2.39 2.39 0 0 0 49 72.2ZM63.46 67.94h-3.55v3.15h3.29v1h-3.29v4h-1.07V67h4.62ZM65.58 67.92a.66.66 0 0 1-.48-.19.64.64 0 0 1-.2-.48.67.67 0 0 1 .67-.68.67.67 0 0 1 .49.19.68.68 0 0 1 0 1 .66.66 0 0 1-.48.16Zm.51 8.15h-1v-6.5h1ZM69.24 76.07h-1v-9.62h1ZM76.57 73.08H72a2.43 2.43 0 0 0 .58 1.68 2 2 0 0 0 1.54.59 3.19 3.19 0 0 0 2-.72v1a3.77 3.77 0 0 1-2.27.62 2.75 2.75 0 0 1-2.16-.89 3.62 3.62 0 0 1-.79-2.49 3.55 3.55 0 0 1 .86-2.47 2.76 2.76 0 0 1 2.14-1 2.45 2.45 0 0 1 2 .83 3.44 3.44 0 0 1 .7 2.29Zm-1.07-.88a2.12 2.12 0 0 0-.43-1.4 1.48 1.48 0 0 0-1.19-.5 1.68 1.68 0 0 0-1.25.53A2.39 2.39 0 0 0 72 72.2ZM86.67 76.07h-4.82V67h4.62v1h-3.56v3h3.29v1h-3.29v3.19h3.76ZM93.68 76.07h-1v-3.7q0-2.07-1.51-2.07a1.64 1.64 0 0 0-1.29.59 2.18 2.18 0 0 0-.51 1.48v3.71h-1v-6.5h1v1.08a2.35 2.35 0 0 1 2.13-1.23 2 2 0 0 1 1.63.69 3.07 3.07 0 0 1 .56 2ZM100.07 75.78a3.38 3.38 0 0 1-1.78.45 2.94 2.94 0 0 1-2.24-.9A3.28 3.28 0 0 1 95.2 73a3.6 3.6 0 0 1 .92-2.58 3.22 3.22 0 0 1 2.46-1 3.41 3.41 0 0 1 1.51.32v1.07a2.64 2.64 0 0 0-1.55-.51 2.1 2.1 0 0 0-1.64.7 2.72 2.72 0 0 0-.64 1.88 2.58 2.58 0 0 0 .6 1.8 2.07 2.07 0 0 0 1.61.66 2.61 2.61 0 0 0 1.6-.57ZM104.36 76.23a3 3 0 0 1-2.3-.91 3.37 3.37 0 0 1-.86-2.42 3.52 3.52 0 0 1 .9-2.56 3.22 3.22 0 0 1 2.42-.92 2.92 2.92 0 0 1 2.27.89 3.56 3.56 0 0 1 .81 2.48 3.49 3.49 0 0 1-.88 2.49 3.08 3.08 0 0 1-2.36.95Zm.08-5.93a2 2 0 0 0-1.59.68 2.81 2.81 0 0 0-.58 1.88 2.65 2.65 0 0 0 .59 1.82 2 2 0 0 0 1.58.67 1.9 1.9 0 0 0 1.56-.65 2.83 2.83 0 0 0 .54-1.86A2.88 2.88 0 0 0 106 71a1.89 1.89 0 0 0-1.56-.7ZM114.81 76.07h-1V75a2.62 2.62 0 0 1-4.19.38 3.57 3.57 0 0 1-.73-2.38 3.9 3.9 0 0 1 .81-2.58 2.68 2.68 0 0 1 2.17-1 2.08 2.08 0 0 1 1.95 1.05v-4h1Zm-1-2.94v-1a1.86 1.86 0 0 0-.52-1.33 1.75 1.75 0 0 0-1.32-.55 1.8 1.8 0 0 0-1.5.7 3.06 3.06 0 0 0-.55 1.93 2.76 2.76 0 0 0 .52 1.77 1.71 1.71 0 0 0 1.41.65 1.78 1.78 0 0 0 1.41-.63 2.34 2.34 0 0 0 .51-1.54ZM117.45 67.92a.66.66 0 0 1-.48-.19.64.64 0 0 1-.2-.48.67.67 0 0 1 .67-.68.67.67 0 0 1 .49.19.68.68 0 0 1 0 1 .66.66 0 0 1-.48.16Zm.51 8.15h-1v-6.5h1ZM125.46 76.07h-1v-3.7q0-2.07-1.51-2.07a1.64 1.64 0 0 0-1.29.59 2.18 2.18 0 0 0-.51 1.48v3.71h-1v-6.5h1v1.08a2.35 2.35 0 0 1 2.13-1.23 2 2 0 0 1 1.63.69 3.07 3.07 0 0 1 .57 2ZM133 75.55q0 3.58-3.43 3.58a4.6 4.6 0 0 1-2.11-.46v-1a4.33 4.33 0 0 0 2.09.61q2.4 0 2.4-2.55V75a2.63 2.63 0 0 1-4.19.38A3.47 3.47 0 0 1 127 73a4 4 0 0 1 .8-2.63 2.66 2.66 0 0 1 2.18-1 2.12 2.12 0 0 1 1.95 1.05v-.9h1Zm-1-2.42v-1a1.86 1.86 0 0 0-.52-1.33 1.73 1.73 0 0 0-1.3-.55 1.81 1.81 0 0 0-1.51.7 3.14 3.14 0 0 0-.55 2 2.69 2.69 0 0 0 .52 1.74 1.69 1.69 0 0 0 1.39.65 1.81 1.81 0 0 0 1.42-.62 2.32 2.32 0 0 0 .48-1.59ZM17.65 97.69a5.34 5.34 0 0 1-2.51.53A4.06 4.06 0 0 1 12 97a4.61 4.61 0 0 1-1.17-3.28 4.83 4.83 0 0 1 1.31-3.53 4.46 4.46 0 0 1 3.33-1.35 5.36 5.36 0 0 1 2.15.37v1.14a4.35 4.35 0 0 0-2.16-.55 3.31 3.31 0 0 0-2.54 1 3.94 3.94 0 0 0-1 2.8 3.76 3.76 0 0 0 .91 2.65 3.1 3.1 0 0 0 2.39 1 4.48 4.48 0 0 0 2.37-.61ZM24.76 98.07h-1v-3.74q0-2-1.51-2a1.65 1.65 0 0 0-1.28.59 2.19 2.19 0 0 0-.52 1.51v3.68h-1v-9.66h1v4.2a2.36 2.36 0 0 1 2.13-1.23q2.2 0 2.2 2.65ZM31.37 98.07h-1v-1a2.18 2.18 0 0 1-2 1.17 2.14 2.14 0 0 1-1.52-.51 1.78 1.78 0 0 1-.55-1.37q0-1.82 2.14-2.12l1.89-.24q0-1.66-1.34-1.66a3.2 3.2 0 0 0-2.12.8V92a4 4 0 0 1 2.21-.61q2.29 0 2.29 2.42Zm-1-3.29-1.61.22a2.55 2.55 0 0 0-1.09.36 1 1 0 0 0-.37.91 1 1 0 0 0 .34.78 1.31 1.31 0 0 0 .9.3 1.67 1.67 0 0 0 1.28-.54 1.94 1.94 0 0 0 .5-1.37ZM38.73 98.07h-1v-3.7q0-2.07-1.51-2.07a1.64 1.64 0 0 0-1.29.59 2.18 2.18 0 0 0-.51 1.48v3.71h-1v-6.5h1v1.08a2.35 2.35 0 0 1 2.13-1.23 2 2 0 0 1 1.63.69 3.07 3.07 0 0 1 .57 2ZM46.24 97.55q0 3.58-3.43 3.58a4.6 4.6 0 0 1-2.11-.46v-1a4.33 4.33 0 0 0 2.09.61q2.4 0 2.4-2.55V97a2.63 2.63 0 0 1-4.19.38 3.47 3.47 0 0 1-.75-2.38 4 4 0 0 1 .75-2.6 2.66 2.66 0 0 1 2.18-1 2.12 2.12 0 0 1 1.95 1.05v-.9h1Zm-1-2.42v-1a1.86 1.86 0 0 0-.52-1.33 1.73 1.73 0 0 0-1.3-.55 1.81 1.81 0 0 0-1.51.7 3.14 3.14 0 0 0-.55 2 2.69 2.69 0 0 0 .52 1.74 1.69 1.69 0 0 0 1.39.65 1.81 1.81 0 0 0 1.42-.62 2.32 2.32 0 0 0 .51-1.59ZM53.57 95.08H49a2.43 2.43 0 0 0 .58 1.68 2 2 0 0 0 1.54.59 3.19 3.19 0 0 0 2-.72v1a3.77 3.77 0 0 1-2.27.62 2.75 2.75 0 0 1-2.16-.89 3.62 3.62 0 0 1-.79-2.49 3.55 3.55 0 0 1 .86-2.47 2.76 2.76 0 0 1 2.14-1 2.45 2.45 0 0 1 2 .83 3.44 3.44 0 0 1 .7 2.29Zm-1.07-.88a2.12 2.12 0 0 0-.43-1.4 1.48 1.48 0 0 0-1.19-.5 1.68 1.68 0 0 0-1.25.53A2.39 2.39 0 0 0 49 94.2ZM63.57 98.07h-4.73V89h1.07v8.14h3.66ZM69.48 98.07h-1v-1a2.18 2.18 0 0 1-2 1.17 2.14 2.14 0 0 1-1.52-.51 1.78 1.78 0 0 1-.55-1.37q0-1.82 2.15-2.12l1.88-.24q0-1.66-1.34-1.66a3.2 3.2 0 0 0-2.12.8V92a4 4 0 0 1 2.21-.61q2.29 0 2.29 2.42Zm-1-3.29-1.61.22a2.55 2.55 0 0 0-1.09.36 1 1 0 0 0-.37.91 1 1 0 0 0 .34.78 1.31 1.31 0 0 0 .9.3 1.67 1.67 0 0 0 1.28-.54 1.94 1.94 0 0 0 .5-1.37ZM76.83 98.07h-1v-3.7q0-2.07-1.51-2.07a1.64 1.64 0 0 0-1.29.59 2.18 2.18 0 0 0-.51 1.48v3.71h-1v-6.5h1v1.08a2.34 2.34 0 0 1 2.13-1.23 2 2 0 0 1 1.63.69 3.07 3.07 0 0 1 .57 2ZM84.34 97.55q0 3.58-3.43 3.58a4.61 4.61 0 0 1-2.11-.46v-1a4.33 4.33 0 0 0 2.1.61q2.4 0 2.4-2.55V97a2.63 2.63 0 0 1-4.19.38 3.47 3.47 0 0 1-.76-2.38 4 4 0 0 1 .8-2.63 2.66 2.66 0 0 1 2.18-1 2.12 2.12 0 0 1 1.95 1.05v-.9h1Zm-1-2.42v-1a1.86 1.86 0 0 0-.52-1.33 1.73 1.73 0 0 0-1.3-.55A1.81 1.81 0 0 0 80 93a3.13 3.13 0 0 0-.55 2 2.7 2.7 0 0 0 .52 1.74 1.69 1.69 0 0 0 1.39.65 1.81 1.81 0 0 0 1.42-.62 2.32 2.32 0 0 0 .52-1.64ZM91.71 98.07h-1V97a2.14 2.14 0 0 1-2 1.18q-2.32 0-2.32-2.77v-3.84h1v3.72q0 2.06 1.57 2.06a1.59 1.59 0 0 0 1.25-.56 2.15 2.15 0 0 0 .49-1.47v-3.75h1ZM98.46 98.07h-1v-1a2.18 2.18 0 0 1-2 1.17 2.14 2.14 0 0 1-1.52-.51 1.79 1.79 0 0 1-.55-1.37q0-1.82 2.15-2.12l1.88-.24q0-1.66-1.34-1.66a3.2 3.2 0 0 0-2.12.8V92a4 4 0 0 1 2.21-.61q2.29 0 2.29 2.42Zm-1-3.29-1.61.22a2.55 2.55 0 0 0-1.09.36 1 1 0 0 0-.37.91 1 1 0 0 0 .34.78 1.31 1.31 0 0 0 .9.3 1.67 1.67 0 0 0 1.28-.54 1.94 1.94 0 0 0 .5-1.37ZM106 97.55q0 3.58-3.43 3.58a4.6 4.6 0 0 1-2.11-.46v-1a4.33 4.33 0 0 0 2.09.61q2.4 0 2.4-2.55V97a2.63 2.63 0 0 1-4.19.38A3.46 3.46 0 0 1 100 95a4 4 0 0 1 .8-2.63 2.66 2.66 0 0 1 2.18-1 2.12 2.12 0 0 1 1.95 1.05v-.9h1Zm-1-2.42v-1a1.86 1.86 0 0 0-.52-1.33 1.73 1.73 0 0 0-1.3-.55 1.81 1.81 0 0 0-1.51.7 3.13 3.13 0 0 0-.55 2 2.69 2.69 0 0 0 .52 1.74 1.69 1.69 0 0 0 1.39.65 1.81 1.81 0 0 0 1.43-.62 2.32 2.32 0 0 0 .47-1.59ZM113.3 95.08h-4.59a2.43 2.43 0 0 0 .58 1.68 2 2 0 0 0 1.54.59 3.19 3.19 0 0 0 2-.72v1a3.77 3.77 0 0 1-2.27.62 2.75 2.75 0 0 1-2.17-.89 3.63 3.63 0 0 1-.79-2.49 3.55 3.55 0 0 1 .86-2.47 2.76 2.76 0 0 1 2.14-1 2.44 2.44 0 0 1 2 .83 3.44 3.44 0 0 1 .7 2.29Zm-1.07-.88a2.12 2.12 0 0 0-.44-1.4 1.48 1.48 0 0 0-1.19-.5 1.68 1.68 0 0 0-1.25.53 2.4 2.4 0 0 0-.63 1.38ZM127.86 98.07h-1.06V92q0-.72.09-1.77a5.69 5.69 0 0 1-.27.88l-3.11 7H123l-3.1-6.94a5.42 5.42 0 0 1-.27-.93q0 .54.05 1.78v6.09h-1V89H120l2.79 6.35a8.11 8.11 0 0 1 .42 1.09q.27-.75.44-1.12l2.87-6.32h1.33ZM132.83 98.23a3 3 0 0 1-2.3-.91 3.37 3.37 0 0 1-.86-2.42 3.52 3.52 0 0 1 .9-2.56 3.22 3.22 0 0 1 2.42-.92 2.92 2.92 0 0 1 2.27.89 3.56 3.56 0 0 1 .81 2.48 3.49 3.49 0 0 1-.88 2.49 3.08 3.08 0 0 1-2.36.95Zm.08-5.93a2 2 0 0 0-1.59.68 2.81 2.81 0 0 0-.58 1.88 2.65 2.65 0 0 0 .59 1.82 2 2 0 0 0 1.58.67 1.9 1.9 0 0 0 1.55-.65 2.83 2.83 0 0 0 .54-1.86 2.88 2.88 0 0 0-.54-1.88 1.89 1.89 0 0 0-1.56-.66ZM143.27 98.07h-1V97a2.62 2.62 0 0 1-4.19.38 3.57 3.57 0 0 1-.73-2.38 3.9 3.9 0 0 1 .81-2.58 2.68 2.68 0 0 1 2.17-1 2.08 2.08 0 0 1 1.95 1.05v-4h1Zm-1-2.94v-1a1.86 1.86 0 0 0-.52-1.33 1.75 1.75 0 0 0-1.32-.55 1.8 1.8 0 0 0-1.5.7 3.06 3.06 0 0 0-.55 1.93 2.76 2.76 0 0 0 .52 1.77 1.71 1.71 0 0 0 1.41.65 1.78 1.78 0 0 0 1.41-.63 2.34 2.34 0 0 0 .51-1.54ZM150.61 95.08H146a2.43 2.43 0 0 0 .58 1.68 2 2 0 0 0 1.54.59 3.19 3.19 0 0 0 2-.72v1a3.77 3.77 0 0 1-2.27.62 2.74 2.74 0 0 1-2.16-.89 3.62 3.62 0 0 1-.79-2.49 3.55 3.55 0 0 1 .86-2.47 2.76 2.76 0 0 1 2.14-1 2.45 2.45 0 0 1 2 .83 3.44 3.44 0 0 1 .7 2.29Zm-1.07-.88a2.11 2.11 0 0 0-.44-1.4 1.48 1.48 0 0 0-1.19-.5 1.68 1.68 0 0 0-1.25.53 2.38 2.38 0 0 0-.66 1.37ZM17.65 119.69a5.34 5.34 0 0 1-2.51.53A4.06 4.06 0 0 1 12 119a4.61 4.61 0 0 1-1.17-3.28 4.83 4.83 0 0 1 1.31-3.53 4.46 4.46 0 0 1 3.33-1.35 5.36 5.36 0 0 1 2.15.37v1.14a4.35 4.35 0 0 0-2.16-.55 3.31 3.31 0 0 0-2.54 1 3.94 3.94 0 0 0-1 2.8 3.76 3.76 0 0 0 .91 2.65 3.1 3.1 0 0 0 2.39 1 4.48 4.48 0 0 0 2.37-.61ZM20.4 120.07h-1v-9.62h1ZM27.73 117.08h-4.59a2.43 2.43 0 0 0 .58 1.68 2 2 0 0 0 1.54.59 3.19 3.19 0 0 0 2-.72v1a3.77 3.77 0 0 1-2.27.62 2.75 2.75 0 0 1-2.17-.89 3.63 3.63 0 0 1-.79-2.49 3.55 3.55 0 0 1 .86-2.47 2.76 2.76 0 0 1 2.14-1 2.44 2.44 0 0 1 2 .83 3.44 3.44 0 0 1 .7 2.29Zm-1.07-.88a2.12 2.12 0 0 0-.44-1.4 1.48 1.48 0 0 0-1.19-.5 1.68 1.68 0 0 0-1.25.53 2.4 2.4 0 0 0-.63 1.38ZM34 120.07h-1v-1a2.18 2.18 0 0 1-2 1.17 2.14 2.14 0 0 1-1.52-.51 1.78 1.78 0 0 1-.55-1.37q0-1.82 2.14-2.12l1.95-.27q0-1.66-1.34-1.66a3.2 3.2 0 0 0-2.12.8V114a4 4 0 0 1 2.21-.61q2.29 0 2.29 2.42Zm-1-3.29-1.57.22a2.55 2.55 0 0 0-1.09.36 1 1 0 0 0-.37.91 1 1 0 0 0 .34.78 1.31 1.31 0 0 0 .9.3 1.67 1.67 0 0 0 1.28-.54 1.94 1.94 0 0 0 .5-1.37ZM39.31 114.63a1.28 1.28 0 0 0-.79-.21 1.33 1.33 0 0 0-1.12.63 2.92 2.92 0 0 0-.45 1.71v3.31h-1v-6.5h1v1.34a2.27 2.27 0 0 1 .68-1.07 1.55 1.55 0 0 1 1-.38 1.7 1.7 0 0 1 .62.09ZM49 120.07h-4.86V111h4.62v1h-3.55v3h3.29v1h-3.29v3.19H49ZM56.13 120.07h-1V119a2.4 2.4 0 0 1-2.23 1.26 2.43 2.43 0 0 1-2-.87 3.58 3.58 0 0 1-.73-2.38 3.9 3.9 0 0 1 .81-2.58 2.68 2.68 0 0 1 2.16-1 2.08 2.08 0 0 1 1.95 1.05v-4h1Zm-1-2.94v-1a1.86 1.86 0 0 0-.52-1.33 1.74 1.74 0 0 0-1.32-.55 1.8 1.8 0 0 0-1.5.7 3.06 3.06 0 0 0-.55 1.93 2.76 2.76 0 0 0 .52 1.77 1.71 1.71 0 0 0 1.41.65 1.78 1.78 0 0 0 1.41-.63 2.34 2.34 0 0 0 .51-1.54ZM58.77 111.92a.66.66 0 0 1-.48-.19.64.64 0 0 1-.2-.48.67.67 0 0 1 .67-.68.67.67 0 0 1 .49.19.68.68 0 0 1 0 1 .66.66 0 0 1-.48.16Zm.51 8.15h-1v-6.5h1ZM64.4 120a2 2 0 0 1-1 .2q-1.71 0-1.71-1.9v-3.85H60.6v-.89h1.12V112l1-.34v1.92h1.68v.89h-1.64v3.66a1.52 1.52 0 0 0 .22.93.89.89 0 0 0 .74.28 1.1 1.1 0 0 0 .68-.22ZM68.4 120.23a3 3 0 0 1-2.3-.91 3.37 3.37 0 0 1-.86-2.42 3.52 3.52 0 0 1 .89-2.56 3.22 3.22 0 0 1 2.42-.92 2.92 2.92 0 0 1 2.27.89 3.55 3.55 0 0 1 .82 2.48 3.49 3.49 0 0 1-.88 2.49 3.08 3.08 0 0 1-2.36.95Zm.08-5.93a2 2 0 0 0-1.59.68 2.81 2.81 0 0 0-.58 1.88 2.65 2.65 0 0 0 .59 1.82 2 2 0 0 0 1.58.67 1.9 1.9 0 0 0 1.52-.65 2.84 2.84 0 0 0 .54-1.86A2.88 2.88 0 0 0 70 115a1.89 1.89 0 0 0-1.52-.7ZM76.69 114.63a1.27 1.27 0 0 0-.79-.21 1.33 1.33 0 0 0-1.11.63 2.91 2.91 0 0 0-.45 1.71v3.31h-1v-6.5h1v1.34a2.27 2.27 0 0 1 .68-1.07 1.55 1.55 0 0 1 1-.38 1.7 1.7 0 0 1 .62.09ZM88.37 120.07H87.3v-4.15h-4.71v4.15h-1.07V111h1.07v4h4.71v-4h1.07ZM91.15 111.92a.66.66 0 0 1-.48-.19.64.64 0 0 1-.2-.48.67.67 0 0 1 .67-.68.67.67 0 0 1 .49.19.68.68 0 0 1 0 1 .66.66 0 0 1-.48.16Zm.51 8.15h-1v-6.5h1ZM93.37 119.84v-1.12a3.09 3.09 0 0 0 1.87.63q1.37 0 1.37-.91a.79.79 0 0 0-.12-.44 1.17 1.17 0 0 0-.32-.32 2.44 2.44 0 0 0-.47-.25l-.58-.23a7.45 7.45 0 0 1-.76-.35 2.3 2.3 0 0 1-.55-.39 1.47 1.47 0 0 1-.33-.5 1.76 1.76 0 0 1-.11-.65 1.56 1.56 0 0 1 .21-.81 1.85 1.85 0 0 1 .56-.59 2.6 2.6 0 0 1 .8-.36 3.52 3.52 0 0 1 .92-.12 3.74 3.74 0 0 1 1.51.29v1.05a2.94 2.94 0 0 0-1.65-.47 2 2 0 0 0-.53.07 1.3 1.3 0 0 0-.4.19.87.87 0 0 0-.26.29.77.77 0 0 0-.09.37.9.9 0 0 0 .09.42.94.94 0 0 0 .27.3 2 2 0 0 0 .43.24l.58.23a8.15 8.15 0 0 1 .78.34 2.64 2.64 0 0 1 .58.39 1.53 1.53 0 0 1 .37.5 1.63 1.63 0 0 1 .13.68 1.61 1.61 0 0 1-.21.84 1.84 1.84 0 0 1-.57.59 2.61 2.61 0 0 1-.82.35 4 4 0 0 1-1 .11 3.69 3.69 0 0 1-1.7-.37ZM102.29 120a2 2 0 0 1-1 .2q-1.71 0-1.71-1.9v-3.85H98.5v-.89h1.12V112l1-.34v1.92h1.64v.89h-1.64v3.66a1.52 1.52 0 0 0 .22.93.88.88 0 0 0 .74.28 1.09 1.09 0 0 0 .68-.22ZM106.3 120.23a3 3 0 0 1-2.3-.91 3.37 3.37 0 0 1-.86-2.42 3.51 3.51 0 0 1 .9-2.56 3.22 3.22 0 0 1 2.42-.92 2.92 2.92 0 0 1 2.27.89 3.56 3.56 0 0 1 .82 2.48 3.49 3.49 0 0 1-.88 2.49 3.08 3.08 0 0 1-2.37.95Zm.08-5.93a2 2 0 0 0-1.59.68 2.8 2.8 0 0 0-.58 1.88 2.64 2.64 0 0 0 .59 1.82 2 2 0 0 0 1.58.67 1.9 1.9 0 0 0 1.55-.65 2.84 2.84 0 0 0 .54-1.86 2.88 2.88 0 0 0-.54-1.88 1.89 1.89 0 0 0-1.55-.66ZM114.59 114.63a1.27 1.27 0 0 0-.79-.21 1.33 1.33 0 0 0-1.11.63 2.91 2.91 0 0 0-.45 1.71v3.31h-1v-6.5h1v1.34a2.27 2.27 0 0 1 .68-1.07 1.55 1.55 0 0 1 1-.38 1.69 1.69 0 0 1 .62.09ZM121.41 113.57l-3 7.54q-.8 2-2.25 2a2.36 2.36 0 0 1-.68-.08v-.93a1.93 1.93 0 0 0 .62.11 1.28 1.28 0 0 0 1.18-.94l.52-1.23-2.54-6.49h1.16l1.76 5q0 .1.13.5 0-.15.13-.48l1.85-5ZM17.65 141.69a5.34 5.34 0 0 1-2.51.53A4.06 4.06 0 0 1 12 141a4.61 4.61 0 0 1-1.17-3.28 4.83 4.83 0 0 1 1.31-3.53 4.46 4.46 0 0 1 3.33-1.35 5.36 5.36 0 0 1 2.15.37v1.14a4.35 4.35 0 0 0-2.16-.55 3.31 3.31 0 0 0-2.54 1 3.94 3.94 0 0 0-1 2.8 3.76 3.76 0 0 0 .91 2.65 3.1 3.1 0 0 0 2.39 1 4.48 4.48 0 0 0 2.37-.61ZM20.4 142.07h-1v-9.62h1ZM25.23 142.23a3 3 0 0 1-2.3-.91 3.37 3.37 0 0 1-.86-2.42 3.51 3.51 0 0 1 .9-2.56 3.22 3.22 0 0 1 2.42-.92 2.92 2.92 0 0 1 2.27.89 3.56 3.56 0 0 1 .82 2.48 3.49 3.49 0 0 1-.88 2.49 3.08 3.08 0 0 1-2.37.95Zm.08-5.93a2 2 0 0 0-1.59.68 2.8 2.8 0 0 0-.58 1.88 2.64 2.64 0 0 0 .59 1.82 2 2 0 0 0 1.58.67 1.9 1.9 0 0 0 1.55-.65 2.84 2.84 0 0 0 .54-1.86 2.88 2.88 0 0 0-.54-1.88 1.89 1.89 0 0 0-1.56-.66ZM29.73 141.84v-1.12a3.09 3.09 0 0 0 1.87.63q1.37 0 1.37-.91a.8.8 0 0 0-.12-.44 1.16 1.16 0 0 0-.32-.32 2.46 2.46 0 0 0-.47-.25l-.58-.23a7.47 7.47 0 0 1-.76-.35 2.29 2.29 0 0 1-.55-.39 1.47 1.47 0 0 1-.33-.5 1.76 1.76 0 0 1-.11-.65 1.56 1.56 0 0 1 .21-.81 1.87 1.87 0 0 1 .56-.59 2.6 2.6 0 0 1 .8-.36 3.51 3.51 0 0 1 .92-.12 3.74 3.74 0 0 1 1.51.29v1.05a2.94 2.94 0 0 0-1.65-.47 1.94 1.94 0 0 0-.53.07 1.3 1.3 0 0 0-.4.19.86.86 0 0 0-.26.29.77.77 0 0 0-.09.37.9.9 0 0 0 .09.42.92.92 0 0 0 .27.3 2.06 2.06 0 0 0 .43.24l.58.23a8.23 8.23 0 0 1 .77.34 2.64 2.64 0 0 1 .58.39 1.52 1.52 0 0 1 .37.5 1.8 1.8 0 0 1-.08 1.52 1.82 1.82 0 0 1-.57.59 2.61 2.61 0 0 1-.82.35 4 4 0 0 1-1 .11 3.69 3.69 0 0 1-1.69-.37ZM40.87 139.08h-4.59a2.43 2.43 0 0 0 .58 1.68 2 2 0 0 0 1.54.59 3.19 3.19 0 0 0 2-.72v1a3.77 3.77 0 0 1-2.27.62 2.74 2.74 0 0 1-2.16-.89 3.62 3.62 0 0 1-.79-2.49 3.55 3.55 0 0 1 .86-2.47 2.76 2.76 0 0 1 2.14-1 2.45 2.45 0 0 1 2 .83 3.44 3.44 0 0 1 .7 2.29Zm-1.07-.88a2.11 2.11 0 0 0-.44-1.4 1.48 1.48 0 0 0-1.19-.5 1.68 1.68 0 0 0-1.25.53 2.38 2.38 0 0 0-.63 1.38ZM53.48 142.07h-1.31l-4.68-7.26a3 3 0 0 1-.29-.57 9.48 9.48 0 0 1 .05 1.25v6.58h-1.11V133h1.38l4.56 7.14c.19.3.31.5.37.61a9.73 9.73 0 0 1-.06-1.34V133h1.07ZM58.44 142.23a3 3 0 0 1-2.3-.91 3.37 3.37 0 0 1-.86-2.42 3.52 3.52 0 0 1 .89-2.56 3.22 3.22 0 0 1 2.42-.92 2.92 2.92 0 0 1 2.27.89 3.55 3.55 0 0 1 .82 2.48 3.49 3.49 0 0 1-.88 2.49 3.08 3.08 0 0 1-2.36.95Zm.08-5.93a2 2 0 0 0-1.59.68 2.8 2.8 0 0 0-.58 1.88 2.65 2.65 0 0 0 .59 1.82 2 2 0 0 0 1.58.67 1.9 1.9 0 0 0 1.55-.65 2.84 2.84 0 0 0 .54-1.86 2.89 2.89 0 0 0-.54-1.88 1.89 1.89 0 0 0-1.55-.66ZM66.36 142a2 2 0 0 1-1 .2q-1.71 0-1.71-1.9v-3.85h-1.09v-.89h1.12V134l1-.34v1.92h1.64v.89h-1.6v3.66a1.52 1.52 0 0 0 .22.93.89.89 0 0 0 .74.28 1.1 1.1 0 0 0 .68-.22ZM68.28 133.92a.66.66 0 0 1-.48-.19.64.64 0 0 1-.2-.48.67.67 0 0 1 .67-.68.67.67 0 0 1 .48.19.67.67 0 0 1 0 1 .66.66 0 0 1-.47.16Zm.51 8.15h-1v-6.5h1ZM74.11 133.37a1.39 1.39 0 0 0-.69-.17q-1.09 0-1.09 1.38v1h1.52v.89h-1.52v5.61h-1v-5.61h-1.15v-.89h1.11v-1.05a2.19 2.19 0 0 1 .59-1.62 2 2 0 0 1 1.47-.59 2 2 0 0 1 .75.11ZM75.5 133.92a.66.66 0 0 1-.48-.19.64.64 0 0 1-.2-.48.67.67 0 0 1 .67-.68.67.67 0 0 1 .49.19.68.68 0 0 1 0 1 .66.66 0 0 1-.48.16Zm.51 8.15H75v-6.5h1ZM82.55 141.78a3.38 3.38 0 0 1-1.78.45 2.94 2.94 0 0 1-2.24-.9 3.28 3.28 0 0 1-.85-2.35 3.6 3.6 0 0 1 .92-2.58 3.22 3.22 0 0 1 2.46-1 3.41 3.41 0 0 1 1.51.32v1.07a2.64 2.64 0 0 0-1.57-.49 2.1 2.1 0 0 0-1.63.71 2.71 2.71 0 0 0-.64 1.88 2.58 2.58 0 0 0 .6 1.8 2.07 2.07 0 0 0 1.61.66 2.61 2.61 0 0 0 1.6-.57ZM88.77 142.07h-1v-1a2.18 2.18 0 0 1-2 1.17 2.14 2.14 0 0 1-1.52-.51 1.78 1.78 0 0 1-.55-1.37q0-1.82 2.15-2.12l1.95-.27q0-1.66-1.34-1.66a3.2 3.2 0 0 0-2.12.8V136a4 4 0 0 1 2.21-.61q2.29 0 2.29 2.42Zm-1-3.29-1.57.22a2.55 2.55 0 0 0-1.09.36 1 1 0 0 0-.37.91 1 1 0 0 0 .26.73 1.31 1.31 0 0 0 .9.3 1.67 1.67 0 0 0 1.28-.54 1.94 1.94 0 0 0 .5-1.37ZM93.75 142a2 2 0 0 1-1 .2q-1.71 0-1.71-1.9v-3.85H90v-.89h1.12V134l1-.34v1.92h1.64v.89h-1.65v3.66a1.52 1.52 0 0 0 .22.93.89.89 0 0 0 .74.28 1.1 1.1 0 0 0 .68-.22ZM95.67 133.92a.66.66 0 0 1-.48-.19.64.64 0 0 1-.2-.48.67.67 0 0 1 .67-.68.67.67 0 0 1 .49.19.68.68 0 0 1 0 1 .66.66 0 0 1-.48.16Zm.51 8.15h-1v-6.5h1ZM101 142.23a3 3 0 0 1-2.3-.91 3.37 3.37 0 0 1-.86-2.42 3.52 3.52 0 0 1 .89-2.56 3.22 3.22 0 0 1 2.42-.92 2.92 2.92 0 0 1 2.27.89 3.55 3.55 0 0 1 .82 2.48 3.49 3.49 0 0 1-.88 2.49 3.08 3.08 0 0 1-2.36.95Zm.08-5.93a2 2 0 0 0-1.59.68 2.81 2.81 0 0 0-.58 1.88 2.65 2.65 0 0 0 .59 1.82 2 2 0 0 0 1.58.67 1.9 1.9 0 0 0 1.55-.65 2.84 2.84 0 0 0 .54-1.86 2.88 2.88 0 0 0-.54-1.88 1.89 1.89 0 0 0-1.55-.66ZM111.3 142.07h-1v-3.71q0-2.07-1.51-2.07a1.64 1.64 0 0 0-1.29.59 2.18 2.18 0 0 0-.51 1.48v3.71h-1v-6.5h1v1.08a2.35 2.35 0 0 1 2.13-1.23 2 2 0 0 1 1.63.69 3.07 3.07 0 0 1 .56 2ZM126.24 142.07h-1.06V136q0-.72.09-1.77a5.6 5.6 0 0 1-.27.88l-3.11 7h-.52l-3.1-6.94a5.53 5.53 0 0 1-.27-.93q.05.54.05 1.78v6.09h-1V133h1.41l2.79 6.35a8.11 8.11 0 0 1 .42 1.09q.27-.75.44-1.12l2.85-6.32h1.33ZM133.72 139.08h-4.59a2.43 2.43 0 0 0 .58 1.68 2 2 0 0 0 1.54.59 3.19 3.19 0 0 0 2-.72v1a3.77 3.77 0 0 1-2.27.62 2.74 2.74 0 0 1-2.16-.89 3.62 3.62 0 0 1-.79-2.49 3.55 3.55 0 0 1 .86-2.47 2.76 2.76 0 0 1 2.14-1 2.45 2.45 0 0 1 2 .83 3.44 3.44 0 0 1 .7 2.29Zm-1.07-.88a2.11 2.11 0 0 0-.44-1.4 1.48 1.48 0 0 0-1.19-.5 1.68 1.68 0 0 0-1.25.53 2.38 2.38 0 0 0-.63 1.38ZM134.9 141.84v-1.12a3.09 3.09 0 0 0 1.87.63q1.37 0 1.37-.91a.8.8 0 0 0-.14-.44 1.16 1.16 0 0 0-.32-.32 2.46 2.46 0 0 0-.47-.25l-.58-.23a7.47 7.47 0 0 1-.76-.35 2.29 2.29 0 0 1-.55-.39 1.47 1.47 0 0 1-.33-.5 1.76 1.76 0 0 1-.11-.65 1.56 1.56 0 0 1 .21-.81 1.87 1.87 0 0 1 .56-.59 2.6 2.6 0 0 1 .8-.36 3.51 3.51 0 0 1 .92-.12 3.74 3.74 0 0 1 1.51.29v1.05a2.94 2.94 0 0 0-1.65-.47 1.94 1.94 0 0 0-.53.07 1.3 1.3 0 0 0-.4.19.86.86 0 0 0-.26.29.77.77 0 0 0-.09.37.9.9 0 0 0 .09.42.92.92 0 0 0 .27.3 2.06 2.06 0 0 0 .43.24l.58.23a8.23 8.23 0 0 1 .77.34 2.64 2.64 0 0 1 .58.39 1.52 1.52 0 0 1 .37.5 1.8 1.8 0 0 1-.08 1.52 1.82 1.82 0 0 1-.57.59 2.61 2.61 0 0 1-.82.35 4 4 0 0 1-1 .11 3.69 3.69 0 0 1-1.67-.37ZM140.42 141.84v-1.12a3.09 3.09 0 0 0 1.87.63q1.37 0 1.37-.91a.79.79 0 0 0-.12-.44 1.17 1.17 0 0 0-.32-.32 2.44 2.44 0 0 0-.47-.25l-.58-.23a7.45 7.45 0 0 1-.76-.35 2.3 2.3 0 0 1-.55-.39 1.47 1.47 0 0 1-.33-.5 1.76 1.76 0 0 1-.11-.65 1.56 1.56 0 0 1 .21-.81 1.85 1.85 0 0 1 .56-.59 2.6 2.6 0 0 1 .8-.36 3.52 3.52 0 0 1 .92-.12 3.74 3.74 0 0 1 1.51.29v1.05a2.94 2.94 0 0 0-1.65-.47 2 2 0 0 0-.53.07 1.3 1.3 0 0 0-.4.19.87.87 0 0 0-.26.29.77.77 0 0 0-.09.37.9.9 0 0 0 .09.42.94.94 0 0 0 .27.3 2 2 0 0 0 .43.24l.58.23a8.15 8.15 0 0 1 .78.34 2.64 2.64 0 0 1 .58.39 1.53 1.53 0 0 1 .37.5 1.63 1.63 0 0 1 .13.68 1.61 1.61 0 0 1-.21.84 1.84 1.84 0 0 1-.57.59 2.61 2.61 0 0 1-.82.35 4 4 0 0 1-1 .11 3.69 3.69 0 0 1-1.7-.37ZM151 142.07h-1v-1a2.18 2.18 0 0 1-2 1.17 2.14 2.14 0 0 1-1.52-.51 1.78 1.78 0 0 1-.55-1.37q0-1.82 2.15-2.12l1.95-.27q0-1.66-1.34-1.66a3.2 3.2 0 0 0-2.12.8V136a4 4 0 0 1 2.21-.61q2.29 0 2.29 2.42Zm-1-3.29-1.57.22a2.55 2.55 0 0 0-1.09.36 1 1 0 0 0-.37.91 1 1 0 0 0 .34.78 1.31 1.31 0 0 0 .9.3 1.67 1.67 0 0 0 1.28-.54 1.94 1.94 0 0 0 .5-1.37ZM158.49 141.55q0 3.58-3.43 3.58a4.6 4.6 0 0 1-2.11-.46v-1a4.33 4.33 0 0 0 2.09.61q2.4 0 2.4-2.55V141a2.63 2.63 0 0 1-4.19.38 3.47 3.47 0 0 1-.74-2.33 4 4 0 0 1 .8-2.63 2.66 2.66 0 0 1 2.18-1 2.12 2.12 0 0 1 1.95 1.05v-.9h1Zm-1-2.42v-1a1.86 1.86 0 0 0-.52-1.33 1.73 1.73 0 0 0-1.3-.55 1.81 1.81 0 0 0-1.51.7 3.14 3.14 0 0 0-.55 2 2.69 2.69 0 0 0 .52 1.74 1.69 1.69 0 0 0 1.39.65 1.81 1.81 0 0 0 1.42-.62 2.32 2.32 0 0 0 .51-1.59ZM165.82 139.08h-4.59a2.43 2.43 0 0 0 .58 1.68 2 2 0 0 0 1.54.59 3.19 3.19 0 0 0 2-.72v1a3.77 3.77 0 0 1-2.27.62 2.75 2.75 0 0 1-2.16-.89 3.62 3.62 0 0 1-.79-2.49 3.55 3.55 0 0 1 .86-2.47 2.76 2.76 0 0 1 2.14-1 2.45 2.45 0 0 1 2 .83 3.44 3.44 0 0 1 .7 2.29Zm-1.07-.88a2.12 2.12 0 0 0-.43-1.4 1.48 1.48 0 0 0-1.19-.5 1.68 1.68 0 0 0-1.25.53 2.39 2.39 0 0 0-.63 1.38ZM167 141.84v-1.12a3.09 3.09 0 0 0 1.87.63q1.37 0 1.37-.91a.79.79 0 0 0-.12-.44 1.17 1.17 0 0 0-.32-.32 2.44 2.44 0 0 0-.47-.25l-.58-.23a7.45 7.45 0 0 1-.76-.35 2.3 2.3 0 0 1-.55-.39 1.47 1.47 0 0 1-.33-.5 1.76 1.76 0 0 1-.11-.65 1.56 1.56 0 0 1 .21-.81 1.85 1.85 0 0 1 .56-.59 2.6 2.6 0 0 1 .8-.36 3.52 3.52 0 0 1 .92-.12 3.74 3.74 0 0 1 1.51.29v1.05a2.94 2.94 0 0 0-1.65-.47 2 2 0 0 0-.53.07 1.3 1.3 0 0 0-.4.19.87.87 0 0 0-.26.29.77.77 0 0 0-.09.37.9.9 0 0 0 .09.42.94.94 0 0 0 .27.3 2 2 0 0 0 .43.24l.58.23a8.15 8.15 0 0 1 .78.34 2.64 2.64 0 0 1 .58.39 1.53 1.53 0 0 1 .37.5 1.63 1.63 0 0 1 .13.68 1.61 1.61 0 0 1-.21.84 1.84 1.84 0 0 1-.57.59 2.61 2.61 0 0 1-.82.35 4 4 0 0 1-1 .11 3.69 3.69 0 0 1-1.7-.37ZM17.65 163.69a5.34 5.34 0 0 1-2.51.53A4.06 4.06 0 0 1 12 163a4.61 4.61 0 0 1-1.17-3.28 4.83 4.83 0 0 1 1.31-3.53 4.46 4.46 0 0 1 3.33-1.35 5.36 5.36 0 0 1 2.15.37v1.14a4.35 4.35 0 0 0-2.16-.55 3.31 3.31 0 0 0-2.54 1 3.94 3.94 0 0 0-1 2.8 3.76 3.76 0 0 0 .91 2.65 3.1 3.1 0 0 0 2.39 1 4.48 4.48 0 0 0 2.37-.61ZM20.4 164.07h-1v-9.62h1ZM25.23 164.23a3 3 0 0 1-2.3-.91 3.37 3.37 0 0 1-.86-2.42 3.51 3.51 0 0 1 .9-2.56 3.22 3.22 0 0 1 2.42-.92 2.92 2.92 0 0 1 2.27.89 3.56 3.56 0 0 1 .82 2.48 3.49 3.49 0 0 1-.88 2.49 3.08 3.08 0 0 1-2.37.95Zm.08-5.93a2 2 0 0 0-1.59.68 2.8 2.8 0 0 0-.58 1.88 2.64 2.64 0 0 0 .59 1.82 2 2 0 0 0 1.58.67 1.9 1.9 0 0 0 1.55-.65 2.84 2.84 0 0 0 .54-1.86 2.88 2.88 0 0 0-.54-1.88 1.89 1.89 0 0 0-1.56-.66ZM29.73 163.84v-1.12a3.09 3.09 0 0 0 1.87.63q1.37 0 1.37-.91a.8.8 0 0 0-.12-.44 1.16 1.16 0 0 0-.32-.32 2.46 2.46 0 0 0-.47-.25l-.58-.23a7.47 7.47 0 0 1-.76-.35 2.29 2.29 0 0 1-.55-.39 1.47 1.47 0 0 1-.33-.5 1.76 1.76 0 0 1-.11-.65 1.56 1.56 0 0 1 .21-.81 1.87 1.87 0 0 1 .56-.59 2.6 2.6 0 0 1 .8-.36 3.51 3.51 0 0 1 .92-.12 3.74 3.74 0 0 1 1.51.29v1.05a2.94 2.94 0 0 0-1.65-.47 1.94 1.94 0 0 0-.53.07 1.3 1.3 0 0 0-.4.19.86.86 0 0 0-.26.29.77.77 0 0 0-.09.37.9.9 0 0 0 .09.42.92.92 0 0 0 .27.3 2.06 2.06 0 0 0 .43.24l.58.23a8.23 8.23 0 0 1 .77.34 2.64 2.64 0 0 1 .58.39 1.52 1.52 0 0 1 .37.5 1.8 1.8 0 0 1-.08 1.52 1.82 1.82 0 0 1-.57.59 2.61 2.61 0 0 1-.82.35 4 4 0 0 1-1 .11 3.69 3.69 0 0 1-1.69-.37ZM40.87 161.08h-4.59a2.43 2.43 0 0 0 .58 1.68 2 2 0 0 0 1.54.59 3.19 3.19 0 0 0 2-.72v1a3.77 3.77 0 0 1-2.27.62 2.74 2.74 0 0 1-2.16-.89 3.62 3.62 0 0 1-.79-2.49 3.55 3.55 0 0 1 .86-2.47 2.76 2.76 0 0 1 2.14-1 2.45 2.45 0 0 1 2 .83 3.44 3.44 0 0 1 .7 2.29Zm-1.07-.88a2.11 2.11 0 0 0-.44-1.4 1.48 1.48 0 0 0-1.19-.5 1.68 1.68 0 0 0-1.25.53 2.38 2.38 0 0 0-.63 1.38ZM56.93 155l-2.57 9.1h-1.25l-1.87-6.65a4.11 4.11 0 0 1-.15-.93 4.67 4.67 0 0 1-.17.91L49 164.07h-1.22L45.11 155h1.17l1.94 7a4.63 4.63 0 0 1 .15.91 5.39 5.39 0 0 1 .2-.91l2-7h1l1.93 7a5 5 0 0 1 .15.85 5.15 5.15 0 0 1 .17-.88l1.86-7ZM58.68 155.92a.66.66 0 0 1-.48-.19.64.64 0 0 1-.2-.48.67.67 0 0 1 .67-.68.67.67 0 0 1 .49.19.68.68 0 0 1 0 1 .66.66 0 0 1-.48.16Zm.51 8.15h-1v-6.5h1ZM66.69 164.07h-1v-3.71q0-2.07-1.51-2.07a1.64 1.64 0 0 0-1.29.59 2.18 2.18 0 0 0-.51 1.48v3.71h-1v-6.5h1v1.08a2.35 2.35 0 0 1 2.13-1.23 2 2 0 0 1 1.63.69 3.07 3.07 0 0 1 .56 2ZM74.2 164.07h-1V163a2.62 2.62 0 0 1-4.19.38 3.58 3.58 0 0 1-.73-2.38 3.9 3.9 0 0 1 .81-2.58 2.68 2.68 0 0 1 2.16-1 2.09 2.09 0 0 1 1.95 1.05v-4h1Zm-1-2.94v-1a1.86 1.86 0 0 0-.52-1.33 1.74 1.74 0 0 0-1.32-.55 1.8 1.8 0 0 0-1.5.7 3.06 3.06 0 0 0-.54 1.93 2.75 2.75 0 0 0 .52 1.77 1.71 1.71 0 0 0 1.41.65 1.78 1.78 0 0 0 1.41-.63 2.35 2.35 0 0 0 .5-1.54ZM79 164.23a3 3 0 0 1-2.3-.91 3.37 3.37 0 0 1-.86-2.42 3.52 3.52 0 0 1 .9-2.56 3.22 3.22 0 0 1 2.42-.92 2.92 2.92 0 0 1 2.27.89 3.56 3.56 0 0 1 .81 2.48 3.49 3.49 0 0 1-.88 2.49 3.08 3.08 0 0 1-2.36.95Zm.08-5.93a2 2 0 0 0-1.59.68 2.81 2.81 0 0 0-.58 1.88 2.65 2.65 0 0 0 .59 1.82 2 2 0 0 0 1.58.67 1.9 1.9 0 0 0 1.55-.65 2.83 2.83 0 0 0 .54-1.86 2.88 2.88 0 0 0-.54-1.88 1.89 1.89 0 0 0-1.53-.66ZM92.11 157.57l-1.95 6.5h-1.08l-1.34-4.65a3.08 3.08 0 0 1-.1-.6 2.76 2.76 0 0 1-.13.59L86 164.07h-1l-2-6.5h1.09l1.35 4.89a2.94 2.94 0 0 1 .09.58h.05a2.73 2.73 0 0 1 .11-.6l1.5-4.87h1l1.35 4.9a3.47 3.47 0 0 1 .09.58h.05a2.67 2.67 0 0 1 .11-.58l1.32-4.9ZM17.65 185.69a5.34 5.34 0 0 1-2.51.53A4.06 4.06 0 0 1 12 185a4.61 4.61 0 0 1-1.17-3.28 4.83 4.83 0 0 1 1.31-3.53 4.46 4.46 0 0 1 3.33-1.35 5.36 5.36 0 0 1 2.15.37v1.14a4.35 4.35 0 0 0-2.16-.55 3.31 3.31 0 0 0-2.54 1 3.94 3.94 0 0 0-1 2.8 3.76 3.76 0 0 0 .91 2.65 3.1 3.1 0 0 0 2.39 1 4.48 4.48 0 0 0 2.37-.61ZM22.08 186.23a3 3 0 0 1-2.3-.91 3.37 3.37 0 0 1-.86-2.42 3.51 3.51 0 0 1 .9-2.56 3.22 3.22 0 0 1 2.42-.92 2.92 2.92 0 0 1 2.27.89 3.56 3.56 0 0 1 .82 2.48 3.49 3.49 0 0 1-.88 2.49 3.08 3.08 0 0 1-2.37.95Zm.08-5.93a2 2 0 0 0-1.59.68 2.8 2.8 0 0 0-.58 1.88 2.64 2.64 0 0 0 .59 1.82 2 2 0 0 0 1.58.67 1.9 1.9 0 0 0 1.55-.65 2.84 2.84 0 0 0 .54-1.86 2.88 2.88 0 0 0-.54-1.88 1.89 1.89 0 0 0-1.56-.66ZM32.37 186.07h-1v-3.71q0-2.07-1.51-2.07a1.64 1.64 0 0 0-1.29.59 2.18 2.18 0 0 0-.51 1.48v3.71H27v-6.5h1v1.08a2.34 2.34 0 0 1 2.13-1.23 2 2 0 0 1 1.63.69 3.07 3.07 0 0 1 .57 2ZM37.55 177.37a1.39 1.39 0 0 0-.69-.17q-1.09 0-1.09 1.38v1h1.52v.89h-1.53v5.61h-1v-5.61h-1.14v-.89h1.11v-1.05a2.19 2.19 0 0 1 .59-1.62 2 2 0 0 1 1.47-.59 2 2 0 0 1 .75.11ZM38.94 177.92a.66.66 0 0 1-.48-.19.64.64 0 0 1-.2-.48.67.67 0 0 1 .67-.68.67.67 0 0 1 .49.19.68.68 0 0 1 0 1 .66.66 0 0 1-.48.16Zm.51 8.15h-1v-6.5h1ZM47.1 185.55q0 3.58-3.43 3.58a4.6 4.6 0 0 1-2.11-.46v-1a4.33 4.33 0 0 0 2.09.61q2.4 0 2.4-2.55V185a2.63 2.63 0 0 1-4.19.38 3.47 3.47 0 0 1-.74-2.33 4 4 0 0 1 .8-2.63 2.66 2.66 0 0 1 2.18-1 2.12 2.12 0 0 1 1.9 1.06v-.9h1Zm-1-2.42v-1a1.86 1.86 0 0 0-.52-1.33 1.73 1.73 0 0 0-1.3-.55 1.81 1.81 0 0 0-1.51.7 3.14 3.14 0 0 0-.55 2 2.69 2.69 0 0 0 .52 1.74 1.69 1.69 0 0 0 1.39.65 1.81 1.81 0 0 0 1.42-.62 2.32 2.32 0 0 0 .51-1.59ZM54.46 186.07h-1v-1a2.14 2.14 0 0 1-2 1.18q-2.32 0-2.32-2.77v-3.88h1v3.72q0 2.06 1.57 2.06a1.59 1.59 0 0 0 1.25-.56 2.15 2.15 0 0 0 .49-1.47v-3.75h1ZM60 180.63a1.28 1.28 0 0 0-.79-.21 1.33 1.33 0 0 0-1.12.63 2.92 2.92 0 0 0-.45 1.71v3.31h-1v-6.5h1v1.34a2.27 2.27 0 0 1 .68-1.07 1.55 1.55 0 0 1 1-.38 1.7 1.7 0 0 1 .62.09ZM66.14 183.08h-4.59a2.43 2.43 0 0 0 .58 1.68 2 2 0 0 0 1.54.59 3.19 3.19 0 0 0 2-.72v1a3.77 3.77 0 0 1-2.27.62 2.75 2.75 0 0 1-2.16-.89 3.62 3.62 0 0 1-.79-2.49 3.55 3.55 0 0 1 .86-2.47 2.76 2.76 0 0 1 2.14-1 2.45 2.45 0 0 1 2 .83 3.44 3.44 0 0 1 .7 2.29Zm-1.07-.88a2.12 2.12 0 0 0-.43-1.4 1.48 1.48 0 0 0-1.19-.5 1.68 1.68 0 0 0-1.25.53 2.39 2.39 0 0 0-.63 1.38ZM76.13 186.07h-4.72V177h1.07v8.14h3.66ZM82 186.07h-1v-1a2.18 2.18 0 0 1-2 1.17 2.14 2.14 0 0 1-1.52-.51 1.78 1.78 0 0 1-.55-1.37q0-1.82 2.15-2.12L81 182q0-1.66-1.34-1.66a3.2 3.2 0 0 0-2.12.8V180a4 4 0 0 1 2.21-.61q2.29 0 2.29 2.42Zm-1-3.29-1.57.22a2.55 2.55 0 0 0-1.09.36 1 1 0 0 0-.37.91 1 1 0 0 0 .34.78 1.31 1.31 0 0 0 .9.3 1.67 1.67 0 0 0 1.28-.54 1.94 1.94 0 0 0 .5-1.37ZM89.4 186.07h-1v-3.71q0-2.07-1.51-2.07a1.64 1.64 0 0 0-1.29.59 2.18 2.18 0 0 0-.51 1.48v3.71H84v-6.5h1v1.08a2.34 2.34 0 0 1 2.13-1.23 2 2 0 0 1 1.63.69 3.07 3.07 0 0 1 .57 2ZM96.91 185.55q0 3.58-3.43 3.58a4.61 4.61 0 0 1-2.11-.46v-1a4.33 4.33 0 0 0 2.1.61q2.4 0 2.4-2.55V185a2.63 2.63 0 0 1-4.19.38 3.47 3.47 0 0 1-.74-2.33 4 4 0 0 1 .8-2.63 2.66 2.66 0 0 1 2.18-1 2.12 2.12 0 0 1 1.95 1.05v-.9h1Zm-1-2.42v-1a1.86 1.86 0 0 0-.52-1.33 1.73 1.73 0 0 0-1.3-.55 1.81 1.81 0 0 0-1.51.7 3.13 3.13 0 0 0-.55 2 2.7 2.7 0 0 0 .52 1.74 1.69 1.69 0 0 0 1.39.65 1.81 1.81 0 0 0 1.42-.62 2.32 2.32 0 0 0 .51-1.59ZM104.27 186.07h-1v-1a2.14 2.14 0 0 1-2 1.18q-2.32 0-2.32-2.77v-3.88h1v3.72q0 2.06 1.57 2.06a1.59 1.59 0 0 0 1.25-.56 2.15 2.15 0 0 0 .49-1.47v-3.75h1ZM111 186.07h-1v-1a2.18 2.18 0 0 1-2 1.17 2.14 2.14 0 0 1-1.52-.51 1.79 1.79 0 0 1-.55-1.37q0-1.82 2.15-2.12L110 182q0-1.66-1.34-1.66a3.2 3.2 0 0 0-2.12.8V180a4 4 0 0 1 2.21-.61q2.29 0 2.29 2.42Zm-1-3.29-1.57.22a2.55 2.55 0 0 0-1.09.36 1 1 0 0 0-.37.91 1 1 0 0 0 .34.78 1.31 1.31 0 0 0 .9.3 1.67 1.67 0 0 0 1.28-.54 1.94 1.94 0 0 0 .5-1.37ZM118.54 185.55q0 3.58-3.43 3.58a4.6 4.6 0 0 1-2.11-.46v-1a4.33 4.33 0 0 0 2.09.61q2.4 0 2.4-2.55V185a2.63 2.63 0 0 1-4.19.38 3.46 3.46 0 0 1-.74-2.33 4 4 0 0 1 .8-2.63 2.66 2.66 0 0 1 2.18-1 2.12 2.12 0 0 1 1.95 1.05v-.9h1Zm-1-2.42v-1a1.86 1.86 0 0 0-.52-1.33 1.73 1.73 0 0 0-1.3-.55 1.81 1.81 0 0 0-1.51.7 3.13 3.13 0 0 0-.55 2 2.69 2.69 0 0 0 .52 1.74 1.69 1.69 0 0 0 1.39.65 1.81 1.81 0 0 0 1.43-.62 2.32 2.32 0 0 0 .5-1.59ZM125.87 183.08h-4.59a2.43 2.43 0 0 0 .58 1.68 2 2 0 0 0 1.54.59 3.19 3.19 0 0 0 2-.72v1a3.77 3.77 0 0 1-2.27.62 2.75 2.75 0 0 1-2.17-.89 3.63 3.63 0 0 1-.79-2.49 3.55 3.55 0 0 1 .86-2.47 2.76 2.76 0 0 1 2.14-1 2.44 2.44 0 0 1 2 .83 3.44 3.44 0 0 1 .7 2.29Zm-1.07-.88a2.12 2.12 0 0 0-.44-1.4 1.48 1.48 0 0 0-1.19-.5 1.68 1.68 0 0 0-1.25.53 2.4 2.4 0 0 0-.63 1.38Z"/><path style="opacity:.52;fill:#fff" d="M0 0h386v197H0z"/></g></g></svg>