<svg width="53" height="36" fill="none" xmlns="http://www.w3.org/2000/svg"><g clip-path="url(#a)"><path fill-rule="evenodd" clip-rule="evenodd" d="M48.036 4.01H4.008V32.03h44.028V4.01ZM4.008.008A4.003 4.003 0 0 0 .005 4.01V32.03a4.003 4.003 0 0 0 4.003 4.002h44.028a4.003 4.003 0 0 0 4.003-4.002V4.01A4.003 4.003 0 0 0 48.036.008H4.008ZM8.01 8.013h4.003v4.003H8.01V8.013Zm12.008 0h-4.002v4.003h4.002V8.013Zm4.003 0h4.002v4.003h-4.002V8.013Zm12.008 0h-4.003v4.003h4.003V8.013Zm4.002 0h4.003v4.003H40.03V8.013Zm-24.015 8.005H8.01v4.003h8.006v-4.003Zm4.002 0h4.003v4.003h-4.003v-4.003Zm12.008 0h-4.003v4.003h4.003v-4.003Zm12.008 0v4.003h-8.005v-4.003h8.005Zm-32.021 8.005H8.01v4.003h4.003v-4.003Zm4.003 0h20.013v4.003H16.016v-4.003Zm28.018 0H40.03v4.003h4.003v-4.003Z" fill="#424242"/></g><defs><clipPath id="a"><path fill="#fff" d="M0 0h53v36H0z"/></clipPath></defs></svg>